{
.appVersion = "1352";
DisplayStrings = (

glyphs = (
{
glyphname = .notdef;
lastChange = "2022-01-12 01:22:08 +0000";
layers = (
{
layerId = "34A4CA4C-C6E5-4C7E-9ECD-8F87FE1EC3A4";
paths = (
{
closed = 1;
nodes = (
"437 10 LINE",
"437 810 LINE",
"62 810 LINE",
"62 10 LINE"
);
},
{
closed = 1;
nodes = (
"251 378 LINE",
"368 73 LINE",
"133 73 LINE"
);
},
{
closed = 1;
nodes = (
"124 708 LINE",
"237 415 LINE",
"124 122 LINE"
);
},
{
closed = 1;
nodes = (
"265 415 LINE",
"374 700 LINE",
"374 130 LINE"
);
},
{
closed = 1;
nodes = (
"137 748 LINE",
"364 748 LINE",
"251 451 LINE"
);
}
);
width = 499;
}
);
note = .notdef;
},
{
glyphname = A;
layers = (
{
hints = (
{
horizontal = 1;
place = "{588, -20}";
target = down;
type = TopGhost;
},
{
place = "{398, 48}";
type = Stem;
}
);
layerId = "34A4CA4C-C6E5-4C7E-9ECD-8F87FE1EC3A4";
paths = (
{
closed = 1;
nodes = (
"445 277 LINE SMOOTH",
"446 284 OFFCURVE",
"446 291 OFFCURVE",
"446 299 CURVE SMOOTH",
"449 366 OFFCURVE",
"446 404 OFFCURVE",
"445 468 CURVE SMOOTH",
"445 496 OFFCURVE",
"454 526 OFFCURVE",
"442 558 CURVE",
"420 597 OFFCURVE",
"380 596 OFFCURVE",
"355 566 CURVE",
"342 537 OFFCURVE",
"300 494 OFFCURVE",
"276 458 CURVE SMOOTH",
"275 457 LINE SMOOTH",
"241 404 OFFCURVE",
"227 371 OFFCURVE",
"195 321 CURVE SMOOTH",
"159 266 OFFCURVE",
"133 237 OFFCURVE",
"96 181 CURVE SMOOTH",
"74 149 OFFCURVE",
"61 129 OFFCURVE",
"37 95 CURVE SMOOTH",
"17 66 OFFCURVE",
"2 47 OFFCURVE",
"-18 17 CURVE SMOOTH",
"-36 -11 OFFCURVE",
"6 -45 OFFCURVE",
"25 -17 CURVE SMOOTH",
"44 13 OFFCURVE",
"57 53 OFFCURVE",
"79 84 CURVE SMOOTH",
"101 117 OFFCURVE",
"115 137 OFFCURVE",
"138 171 CURVE SMOOTH",
"143 177 OFFCURVE",
"148 184 OFFCURVE",
"152 190 CURVE",
"148 173 OFFCURVE",
"161 153 OFFCURVE",
"183 161 CURVE SMOOTH",
"211 172 OFFCURVE",
"228 188 OFFCURVE",
"250 196 CURVE",
"251 196 LINE",
"306 216 OFFCURVE",
"346 217 OFFCURVE",
"397 223 CURVE",
"395 176 OFFCURVE",
"392 121 OFFCURVE",
"382 57 CURVE SMOOTH",
"370 -23 OFFCURVE",
"374 22 OFFCURVE",
"359 -65 CURVE SMOOTH",
"353 -97 OFFCURVE",
"402 -101 OFFCURVE",
"408 -69 CURVE SMOOTH",
"423 20 OFFCURVE",
"424 60 OFFCURVE",
"432 139 CURVE SMOOTH",
"436 174 OFFCURVE",
"438 201 OFFCURVE",
"441 229 CURVE",
"446 231 OFFCURVE",
"450 232 OFFCURVE",
"454 233 CURVE SMOOTH",
"487 239 OFFCURVE",
"487 278 OFFCURVE",
"455 278 CURVE SMOOTH",
"452 278 OFFCURVE",
"449 278 OFFCURVE",
"445 278 CURVE"
);
},
{
closed = 1;
nodes = (
"168 208 OFFCURVE",
"167 207 OFFCURVE",
"166 206 CURVE SMOOTH",
"188 236 OFFCURVE",
"208 256 OFFCURVE",
"235 299 CURVE SMOOTH",
"269 352 OFFCURVE",
"283 385 OFFCURVE",
"316 435 CURVE",
"316 434 LINE",
"345 478 OFFCURVE",
"359 513 OFFCURVE",
"383 529 CURVE",
"388 534 OFFCURVE",
"395 534 OFFCURVE",
"398 534 CURVE",
"402 524 OFFCURVE",
"401 497 OFFCURVE",
"397 464 CURVE",
"398 398 OFFCURVE",
"402 370 OFFCURVE",
"400 306 CURVE SMOOTH",
"399 272 LINE",
"331 260 OFFCURVE",
"238 237 OFFCURVE",
"238 237 CURVE",
"210 231 OFFCURVE",
"194 218 OFFCURVE",
"169 209 CURVE"
);
}
);
width = 498;
}
);
note = A;
unicode = 0041;
},
{
glyphname = AE;
layers = (
{
hints = (
{
horizontal = 1;
place = "{588, -20}";
target = down;
type = TopGhost;
},
{
place = "{398, 48}";
type = Stem;
}
);
layerId = "34A4CA4C-C6E5-4C7E-9ECD-8F87FE1EC3A4";
paths = (
{
closed = 1;
nodes = (
"166 206 LINE",
"188 236 OFFCURVE",
"208 256 OFFCURVE",
"235 299 CURVE SMOOTH",
"269 352 OFFCURVE",
"283 385 OFFCURVE",
"316 435 CURVE",
"316 434 LINE",
"345 478 OFFCURVE",
"359 513 OFFCURVE",
"383 529 CURVE",
"388 534 OFFCURVE",
"395 534 OFFCURVE",
"398 534 CURVE",
"402 524 OFFCURVE",
"401 497 OFFCURVE",
"397 464 CURVE",
"398 398 OFFCURVE",
"402 370 OFFCURVE",
"400 306 CURVE SMOOTH",
"399 272 LINE",
"331 260 OFFCURVE",
"238 237 OFFCURVE",
"238 237 CURVE",
"210 231 OFFCURVE",
"194 218 OFFCURVE",
"169 209 CURVE"
);
},
{
closed = 1;
nodes = (
"839 552 LINE SMOOTH",
"896 563 OFFCURVE",
"901 614 OFFCURVE",
"830 599 CURVE SMOOTH",
"707 574 OFFCURVE",
"563 473 OFFCURVE",
"477 362 CURVE SMOOTH",
"467 349 OFFCURVE",
"457 334 OFFCURVE",
"447 319 CURVE",
"448 374 OFFCURVE",
"446 411 OFFCURVE",
"445 468 CURVE SMOOTH",
"445 496 OFFCURVE",
"454 526 OFFCURVE",
"442 558 CURVE",
"420 597 OFFCURVE",
"380 596 OFFCURVE",
"355 566 CURVE",
"342 537 OFFCURVE",
"300 494 OFFCURVE",
"276 458 CURVE SMOOTH",
"275 457 LINE SMOOTH",
"241 404 OFFCURVE",
"227 371 OFFCURVE",
"195 321 CURVE SMOOTH",
"159 266 OFFCURVE",
"133 237 OFFCURVE",
"96 181 CURVE SMOOTH",
"74 149 OFFCURVE",
"61 129 OFFCURVE",
"37 95 CURVE SMOOTH",
"17 66 OFFCURVE",
"2 47 OFFCURVE",
"-18 17 CURVE SMOOTH",
"-36 -11 OFFCURVE",
"6 -45 OFFCURVE",
"25 -17 CURVE SMOOTH",
"44 13 OFFCURVE",
"57 53 OFFCURVE",
"79 84 CURVE SMOOTH",
"101 117 OFFCURVE",
"115 137 OFFCURVE",
"138 171 CURVE SMOOTH",
"143 177 OFFCURVE",
"148 184 OFFCURVE",
"152 190 CURVE",
"148 173 OFFCURVE",
"161 153 OFFCURVE",
"183 161 CURVE SMOOTH",
"211 172 OFFCURVE",
"228 188 OFFCURVE",
"250 196 CURVE",
"251 196 LINE",
"306 216 OFFCURVE",
"346 217 OFFCURVE",
"397 223 CURVE",
"397 219 LINE",
"383 177 OFFCURVE",
"377 133 OFFCURVE",
"387 90 CURVE",
"385 79 OFFCURVE",
"384 68 OFFCURVE",
"382 57 CURVE SMOOTH",
"370 -23 OFFCURVE",
"374 22 OFFCURVE",
"359 -65 CURVE SMOOTH",
"353 -97 OFFCURVE",
"402 -101 OFFCURVE",
"408 -69 CURVE SMOOTH",
"414 -34 OFFCURVE",
"418 -7 OFFCURVE",
"421 18 CURVE",
"466 -39 OFFCURVE",
"567 -69 OFFCURVE",
"673 -48 CURVE SMOOTH",
"806 -22 OFFCURVE",
"842 44 OFFCURVE",
"855 53 CURVE SMOOTH",
"883 70 OFFCURVE",
"880 123 OFFCURVE",
"852 106 CURVE",
"819 79 OFFCURVE",
"786 28 OFFCURVE",
"662 -1 CURVE SMOOTH",
"570 -22 OFFCURVE",
"479 17 OFFCURVE",
"453 54 CURVE SMOOTH",
"437 77 OFFCURVE",
"428 105 OFFCURVE",
"431 133 CURVE SMOOTH",
"432 139 LINE",
"435 166 LINE SMOOTH",
"437 188 OFFCURVE",
"446 211 OFFCURVE",
"456 233 CURVE",
"478 239 OFFCURVE",
"484 259 OFFCURVE",
"474 271 CURVE",
"486 293 OFFCURVE",
"500 314 OFFCURVE",
"515 333 CURVE SMOOTH",
"592 434 OFFCURVE",
"734 531 OFFCURVE",
"838 552 CURVE SMOOTH"
);
},
{
closed = 1;
nodes = (
"472 215 OFFCURVE",
"485 170 OFFCURVE",
"516 181 CURVE SMOOTH",
"545 191 OFFCURVE",
"562 206 OFFCURVE",
"584 214 CURVE",
"584 215 LINE",
"658 241 OFFCURVE",
"704 234 OFFCURVE",
"788 251 CURVE SMOOTH",
"821 257 OFFCURVE",
"821 296 OFFCURVE",
"789 296 CURVE SMOOTH",
"741 296 OFFCURVE",
"572 254 OFFCURVE",
"572 254 CURVE",
"544 249 OFFCURVE",
"528 235 OFFCURVE",
"503 226 CURVE SMOOTH"
);
}
);
width = 893;
}
);
note = AE;
unicode = 00C6;
},
{
glyphname = B;
layers = (
{
hints = (
{
horizontal = 1;
place = "{628, -20}";
target = down;
type = TopGhost;
}
);
layerId = "34A4CA4C-C6E5-4C7E-9ECD-8F87FE1EC3A4";
paths = (
{
closed = 1;
nodes = (
"294 479 LINE SMOOTH",
"298 511 OFFCURVE",
"255 521 OFFCURVE",
"239 493 CURVE SMOOTH",
"174 384 OFFCURVE",
"39 90 OFFCURVE",
"28 -15 CURVE SMOOTH",
"23 -64 OFFCURVE",
"78 -76 OFFCURVE",
"99 -63 CURVE SMOOTH",
"132 -43 OFFCURVE",
"79 -22 OFFCURVE",
"81 -2 CURVE SMOOTH",
"87 67 OFFCURVE",
"142 206 OFFCURVE",
"216 344 CURVE SMOOTH",
"232 374 OFFCURVE",
"256 395 OFFCURVE",
"271 416 CURVE SMOOTH",
"282 432 OFFCURVE",
"292 467 OFFCURVE",
"294 480 CURVE SMOOTH"
);
},
{
closed = 1;
nodes = (
"193 585 OFFCURVE",
"218 541 OFFCURVE",
"253 553 CURVE",
"272 562 OFFCURVE",
"280 570 OFFCURVE",
"291 570 CURVE",
"291 570 LINE",
"325 580 OFFCURVE",
"338 584 OFFCURVE",
"366 576 CURVE SMOOTH",
"422 559 OFFCURVE",
"448 540 OFFCURVE",
"432 480 CURVE SMOOTH",
"418 430 OFFCURVE",
"324 401 OFFCURVE",
"279 388 CURVE SMOOTH",
"253 380 OFFCURVE",
"262 341 OFFCURVE",
"289 341 CURVE SMOOTH",
"315 341 OFFCURVE",
"346 333 OFFCURVE",
"384 323 CURVE SMOOTH",
"440 309 OFFCURVE",
"468 309 OFFCURVE",
"495 282 CURVE SMOOTH",
"531 246 OFFCURVE",
"544 245 OFFCURVE",
"531 212 CURVE SMOOTH",
"508 156 OFFCURVE",
"473 120 OFFCURVE",
"413 78 CURVE SMOOTH",
"343 28 OFFCURVE",
"239 4 OFFCURVE",
"188 -4 CURVE SMOOTH",
"152 -10 OFFCURVE",
"163 -57 OFFCURVE",
"199 -52 CURVE SMOOTH",
"255 -44 OFFCURVE",
"365 -20 OFFCURVE",
"449 38 CURVE SMOOTH",
"514 84 OFFCURVE",
"556 131 OFFCURVE",
"584 194 CURVE SMOOTH",
"613 258 OFFCURVE",
"559 292 OFFCURVE",
"537 314 CURVE SMOOTH",
"495 356 OFFCURVE",
"446 358 OFFCURVE",
"401 370 CURVE SMOOTH",
"395 371 OFFCURVE",
"390 373 OFFCURVE",
"387 373 CURVE",
"428 393 OFFCURVE",
"469 421 OFFCURVE",
"486 467 CURVE SMOOTH",
"518 551 OFFCURVE",
"451 607 OFFCURVE",
"382 623 CURVE SMOOTH",
"341 632 OFFCURVE",
"307 628 OFFCURVE",
"273 617 CURVE",
"273 617 LINE",
"252 610 OFFCURVE",
"241 601 OFFCURVE",
"228 597 CURVE SMOOTH"
);
}
);
width = 598;
}
);
note = B;
unicode = 0042;
},
{
glyphname = C;
layers = (
{
hints = (
{
horizontal = 1;
place = "{603, -20}";
target = down;
type = TopGhost;
},
{
place = "{604, 52}";
type = Stem;
}
);
layerId = "34A4CA4C-C6E5-4C7E-9ECD-8F87FE1EC3A4";
paths = (
{
closed = 1;
nodes = (
"604 489 LINE SMOOTH",
"604 457 OFFCURVE",
"656 475 OFFCURVE",
"656 507 CURVE",
"642 589 OFFCURVE",
"553 614 OFFCURVE",
"482 599 CURVE SMOOTH",
"360 574 OFFCURVE",
"216 473 OFFCURVE",
"130 362 CURVE SMOOTH",
"63 274 OFFCURVE",
"-9 139 OFFCURVE",
"67 27 CURVE SMOOTH",
"109 -36 OFFCURVE",
"215 -70 OFFCURVE",
"326 -48 CURVE SMOOTH",
"459 -22 OFFCURVE",
"494 44 OFFCURVE",
"508 53 CURVE SMOOTH",
"535 70 OFFCURVE",
"533 123 OFFCURVE",
"505 106 CURVE",
"472 79 OFFCURVE",
"439 28 OFFCURVE",
"315 -1 CURVE SMOOTH",
"223 -22 OFFCURVE",
"132 17 OFFCURVE",
"106 54 CURVE SMOOTH",
"54 131 OFFCURVE",
"104 250 OFFCURVE",
"168 333 CURVE SMOOTH",
"245 434 OFFCURVE",
"387 531 OFFCURVE",
"491 552 CURVE SMOOTH",
"549 563 OFFCURVE",
"604 525 OFFCURVE",
"604 490 CURVE SMOOTH"
);
}
);
width = 625;
}
);
note = C;
unicode = 0043;
},
{
glyphname = D;
layers = (
{
hints = (
{
horizontal = 1;
place = "{622, -20}";
target = down;
type = TopGhost;
}
);
layerId = "34A4CA4C-C6E5-4C7E-9ECD-8F87FE1EC3A4";
paths = (
{
closed = 1;
nodes = (
"268 499 LINE",
"272 531 OFFCURVE",
"235 541 OFFCURVE",
"220 513 CURVE SMOOTH",
"164 405 OFFCURVE",
"50 130 OFFCURVE",
"41 25 CURVE SMOOTH",
"36 -25 OFFCURVE",
"84 -37 OFFCURVE",
"102 -25 CURVE SMOOTH",
"131 -4 OFFCURVE",
"85 17 OFFCURVE",
"86 37 CURVE SMOOTH",
"91 105 OFFCURVE",
"135 226 OFFCURVE",
"200 364 CURVE SMOOTH",
"214 394 OFFCURVE",
"236 415 OFFCURVE",
"249 437 CURVE SMOOTH",
"259 452 OFFCURVE",
"267 487 OFFCURVE",
"269 500 CURVE"
);
},
{
closed = 1;
nodes = (
"90 555 OFFCURVE",
"113 512 OFFCURVE",
"142 527 CURVE SMOOTH",
"161 537 OFFCURVE",
"170 544 OFFCURVE",
"185 550 CURVE SMOOTH",
"230 569 OFFCURVE",
"253 577 OFFCURVE",
"297 573 CURVE SMOOTH",
"373 567 OFFCURVE",
"427 537 OFFCURVE",
"465 470 CURVE SMOOTH",
"487 432 OFFCURVE",
"477 284 OFFCURVE",
"443 208 CURVE SMOOTH",
"389 86 OFFCURVE",
"137 -50 OFFCURVE",
"51 -70 CURVE SMOOTH",
"19 -77 OFFCURVE",
"28 -114 OFFCURVE",
"59 -106 CURVE SMOOTH",
"158 -81 OFFCURVE",
"418 35 OFFCURVE",
"488 188 CURVE SMOOTH",
"531 282 OFFCURVE",
"550 431 OFFCURVE",
"518 495 CURVE SMOOTH",
"479 574 OFFCURVE",
"392 614 OFFCURVE",
"302 622 CURVE SMOOTH",
"249 626 OFFCURVE",
"212 615 OFFCURVE",
"167 596 CURVE SMOOTH",
"146 587 OFFCURVE",
"135 578 OFFCURVE",
"119 570 CURVE SMOOTH"
);
}
);
width = 545;
}
);
note = D;
unicode = 0044;
},
{
glyphname = Eth;
layers = (
{
hints = (
{
horizontal = 1;
place = "{622, -20}";
target = down;
type = TopGhost;
}
);
layerId = "34A4CA4C-C6E5-4C7E-9ECD-8F87FE1EC3A4";
paths = (
{
closed = 1;
nodes = (
"90 555 OFFCURVE",
"113 512 OFFCURVE",
"142 527 CURVE SMOOTH",
"161 537 OFFCURVE",
"170 544 OFFCURVE",
"185 550 CURVE SMOOTH",
"230 569 OFFCURVE",
"253 577 OFFCURVE",
"297 573 CURVE SMOOTH",
"373 567 OFFCURVE",
"427 537 OFFCURVE",
"465 470 CURVE SMOOTH",
"487 432 OFFCURVE",
"477 284 OFFCURVE",
"443 208 CURVE SMOOTH",
"389 86 OFFCURVE",
"137 -50 OFFCURVE",
"51 -70 CURVE SMOOTH",
"19 -77 OFFCURVE",
"28 -114 OFFCURVE",
"59 -106 CURVE SMOOTH",
"158 -81 OFFCURVE",
"418 35 OFFCURVE",
"488 188 CURVE SMOOTH",
"531 282 OFFCURVE",
"550 431 OFFCURVE",
"518 495 CURVE SMOOTH",
"479 574 OFFCURVE",
"392 614 OFFCURVE",
"302 622 CURVE SMOOTH",
"249 626 OFFCURVE",
"212 615 OFFCURVE",
"167 596 CURVE SMOOTH",
"146 587 OFFCURVE",
"135 578 OFFCURVE",
"119 570 CURVE SMOOTH"
);
},
{
closed = 1;
nodes = (
"69 144 LINE",
"54 96 OFFCURVE",
"43 54 OFFCURVE",
"41 25 CURVE SMOOTH",
"36 -25 OFFCURVE",
"84 -37 OFFCURVE",
"102 -25 CURVE SMOOTH",
"131 -4 OFFCURVE",
"85 17 OFFCURVE",
"86 37 CURVE SMOOTH",
"88 66 OFFCURVE",
"97 104 OFFCURVE",
"112 150 CURVE",
"143 153 OFFCURVE",
"178 157 OFFCURVE",
"213 158 CURVE SMOOTH",
"246 159 OFFCURVE",
"271 186 OFFCURVE",
"239 191 CURVE SMOOTH",
"218 194 OFFCURVE",
"172 194 OFFCURVE",
"127 192 CURVE",
"146 244 OFFCURVE",
"171 302 OFFCURVE",
"200 364 CURVE SMOOTH",
"214 394 OFFCURVE",
"236 415 OFFCURVE",
"249 437 CURVE SMOOTH",
"259 452 OFFCURVE",
"267 487 OFFCURVE",
"269 500 CURVE",
"268 499 LINE",
"272 531 OFFCURVE",
"235 541 OFFCURVE",
"220 513 CURVE SMOOTH",
"184 444 OFFCURVE",
"125 308 OFFCURVE",
"84 190 CURVE",
"45 188 OFFCURVE",
"12 185 OFFCURVE",
"2 183 CURVE SMOOTH",
"-30 177 OFFCURVE",
"-25 129 OFFCURVE",
"8 135 CURVE SMOOTH"
);
}
);
width = 545;
}
);
note = Eth;
unicode = 00D0;
},
{
glyphname = E;
layers = (
{
hints = (
{
horizontal = 1;
place = "{215, 82}";
type = Stem;
},
{
horizontal = 1;
place = "{602, -20}";
target = down;
type = TopGhost;
}
);
layerId = "34A4CA4C-C6E5-4C7E-9ECD-8F87FE1EC3A4";
paths = (
{
closed = 1;
nodes = (
"492 552 LINE SMOOTH",
"549 563 OFFCURVE",
"554 614 OFFCURVE",
"483 599 CURVE SMOOTH",
"360 574 OFFCURVE",
"216 473 OFFCURVE",
"130 362 CURVE SMOOTH",
"63 274 OFFCURVE",
"-9 139 OFFCURVE",
"67 27 CURVE SMOOTH",
"109 -36 OFFCURVE",
"215 -70 OFFCURVE",
"326 -48 CURVE SMOOTH",
"459 -22 OFFCURVE",
"494 44 OFFCURVE",
"508 53 CURVE SMOOTH",
"535 70 OFFCURVE",
"533 123 OFFCURVE",
"505 106 CURVE",
"472 79 OFFCURVE",
"439 28 OFFCURVE",
"315 -1 CURVE SMOOTH",
"223 -22 OFFCURVE",
"132 17 OFFCURVE",
"106 54 CURVE SMOOTH",
"54 131 OFFCURVE",
"104 250 OFFCURVE",
"168 333 CURVE SMOOTH",
"245 434 OFFCURVE",
"387 531 OFFCURVE",
"491 552 CURVE SMOOTH"
);
},
{
closed = 1;
nodes = (
"125 215 OFFCURVE",
"138 170 OFFCURVE",
"169 181 CURVE SMOOTH",
"198 191 OFFCURVE",
"215 206 OFFCURVE",
"237 214 CURVE",
"237 215 LINE",
"311 241 OFFCURVE",
"357 234 OFFCURVE",
"441 251 CURVE SMOOTH",
"474 257 OFFCURVE",
"474 296 OFFCURVE",
"442 296 CURVE SMOOTH",
"394 296 OFFCURVE",
"225 254 OFFCURVE",
"225 254 CURVE",
"197 249 OFFCURVE",
"181 235 OFFCURVE",
"156 226 CURVE SMOOTH"
);
}
);
width = 575;
}
);
note = E;
unicode = 0045;
},
{
glyphname = F;
layers = (
{
hints = (
{
horizontal = 1;
place = "{594, -20}";
target = down;
type = TopGhost;
}
);
layerId = "34A4CA4C-C6E5-4C7E-9ECD-8F87FE1EC3A4";
paths = (
{
closed = 1;
nodes = (
"111 263 LINE",
"92 256 OFFCURVE",
"89 236 OFFCURVE",
"97 224 CURVE",
"67 141 OFFCURVE",
"44 65 OFFCURVE",
"40 24 CURVE SMOOTH",
"36 -25 OFFCURVE",
"84 -37 OFFCURVE",
"102 -25 CURVE SMOOTH",
"131 -4 OFFCURVE",
"85 17 OFFCURVE",
"86 37 CURVE SMOOTH",
"89 74 OFFCURVE",
"110 145 OFFCURVE",
"139 224 CURVE",
"159 233 OFFCURVE",
"174 245 OFFCURVE",
"192 251 CURVE",
"192 252 LINE",
"266 278 OFFCURVE",
"312 271 OFFCURVE",
"396 288 CURVE SMOOTH",
"428 294 OFFCURVE",
"428 333 OFFCURVE",
"396 333 CURVE SMOOTH",
"349 333 OFFCURVE",
"180 291 OFFCURVE",
"180 291 CURVE",
"174 290 OFFCURVE",
"168 288 OFFCURVE",
"163 286 CURVE",
"182 335 OFFCURVE",
"203 384 OFFCURVE",
"224 428 CURVE SMOOTH",
"239 458 OFFCURVE",
"261 479 OFFCURVE",
"274 501 CURVE SMOOTH",
"279 509 OFFCURVE",
"284 523 OFFCURVE",
"288 536 CURVE",
"329 547 OFFCURVE",
"370 552 OFFCURVE",
"407 548 CURVE SMOOTH",
"461 542 OFFCURVE",
"506 538 OFFCURVE",
"534 512 CURVE",
"544 505 OFFCURVE",
"547 499 OFFCURVE",
"545 494 CURVE",
"545 493 OFFCURVE",
"516 440 OFFCURVE",
"550 440 CURVE SMOOTH",
"553 440 OFFCURVE",
"568 442 OFFCURVE",
"578 453 CURVE SMOOTH",
"588 463 OFFCURVE",
"589 478 OFFCURVE",
"592 489 CURVE SMOOTH",
"596 503 OFFCURVE",
"599 519 OFFCURVE",
"593 530 CURVE SMOOTH",
"585 543 OFFCURVE",
"566 550 OFFCURVE",
"566 550 CURVE",
"533 574 OFFCURVE",
"488 575 OFFCURVE",
"437 580 CURVE SMOOTH",
"384 585 OFFCURVE",
"347 584 OFFCURVE",
"293 573 CURVE",
"289 597 OFFCURVE",
"259 602 OFFCURVE",
"246 577 CURVE SMOOTH",
"243 572 OFFCURVE",
"240 566 OFFCURVE",
"237 559 CURVE",
"187 543 OFFCURVE",
"149 519 OFFCURVE",
"96 499 CURVE SMOOTH",
"74 491 OFFCURVE",
"84 453 OFFCURVE",
"96 460 CURVE SMOOTH",
"133 480 OFFCURVE",
"174 499 OFFCURVE",
"215 514 CURVE",
"184 447 OFFCURVE",
"145 353 OFFCURVE",
"112 263 CURVE"
);
}
);
width = 488;
}
);
note = F;
unicode = 0046;
},
{
glyphname = G;
layers = (
{
hints = (
{
horizontal = 1;
place = "{189, 48}";
type = Stem;
},
{
horizontal = 1;
place = "{602, -20}";
target = down;
type = TopGhost;
}
);
layerId = "34A4CA4C-C6E5-4C7E-9ECD-8F87FE1EC3A4";
paths = (
{
closed = 1;
nodes = (
"615 181 OFFCURVE",
"605 236 OFFCURVE",
"530 237 CURVE SMOOTH",
"482 237 OFFCURVE",
"268 177 OFFCURVE",
"243 168 CURVE SMOOTH",
"212 156 OFFCURVE",
"225 111 OFFCURVE",
"256 122 CURVE SMOOTH",
"285 133 OFFCURVE",
"286 148 OFFCURVE",
"324 156 CURVE SMOOTH",
"399 172 OFFCURVE",
"480 188 OFFCURVE",
"518 189 CURVE SMOOTH",
"546 190 OFFCURVE",
"552 166 OFFCURVE",
"506 106 CURVE",
"472 79 OFFCURVE",
"442 36 OFFCURVE",
"337 -7 CURVE SMOOTH",
"249 -43 OFFCURVE",
"134 18 OFFCURVE",
"109 55 CURVE SMOOTH",
"56 133 OFFCURVE",
"104 250 OFFCURVE",
"168 333 CURVE SMOOTH",
"245 434 OFFCURVE",
"387 531 OFFCURVE",
"491 552 CURVE SMOOTH",
"503 554 OFFCURVE",
"530 541 OFFCURVE",
"545 552 CURVE SMOOTH",
"594 585 OFFCURVE",
"539 611 OFFCURVE",
"483 599 CURVE SMOOTH",
"360 574 OFFCURVE",
"216 473 OFFCURVE",
"130 362 CURVE SMOOTH",
"63 274 OFFCURVE",
"-9 139 OFFCURVE",
"67 27 CURVE SMOOTH",
"109 -36 OFFCURVE",
"215 -70 OFFCURVE",
"326 -48 CURVE SMOOTH",
"459 -22 OFFCURVE",
"536 83 OFFCURVE",
"546 95 CURVE SMOOTH"
);
}
);
width = 599;
}
);
note = G;
unicode = 0047;
},
{
glyphname = H;
layers = (
{
hints = (
{
horizontal = 1;
place = "{598, -20}";
target = down;
type = TopGhost;
}
);
layerId = "34A4CA4C-C6E5-4C7E-9ECD-8F87FE1EC3A4";
paths = (
{
closed = 1;
nodes = (
"638 609 OFFCURVE",
"601 598 OFFCURVE",
"586 570 CURVE SMOOTH",
"555 509 OFFCURVE",
"512 400 OFFCURVE",
"464 279 CURVE",
"462 282 OFFCURVE",
"457 284 OFFCURVE",
"448 284 CURVE SMOOTH",
"401 284 OFFCURVE",
"192 229 OFFCURVE",
"167 220 CURVE SMOOTH",
"136 208 OFFCURVE",
"151 151 OFFCURVE",
"182 162 CURVE SMOOTH",
"211 173 OFFCURVE",
"224 184 OFFCURVE",
"250 196 CURVE SMOOTH",
"319 227 OFFCURVE",
"352 237 OFFCURVE",
"436 254 CURVE SMOOTH",
"445 256 OFFCURVE",
"453 260 OFFCURVE",
"458 264 CURVE",
"424 173 OFFCURVE",
"396 78 OFFCURVE",
"388 -7 CURVE SMOOTH",
"381 -96 OFFCURVE",
"437 -53 OFFCURVE",
"441 6 CURVE SMOOTH",
"453 166 OFFCURVE",
"517 326 OFFCURVE",
"571 438 CURVE SMOOTH",
"585 468 OFFCURVE",
"635 564 OFFCURVE",
"635 578 CURVE SMOOTH"
);
},
{
closed = 1;
nodes = (
"260 567 OFFCURVE",
"229 546 OFFCURVE",
"215 518 CURVE SMOOTH",
"183 457 OFFCURVE",
"72 256 OFFCURVE",
"53 51 CURVE SMOOTH",
"49 2 OFFCURVE",
"108 -5 OFFCURVE",
"126 7 CURVE SMOOTH",
"155 28 OFFCURVE",
"109 49 OFFCURVE",
"110 69 CURVE SMOOTH",
"122 230 OFFCURVE",
"164 334 OFFCURVE",
"194 398 CURVE SMOOTH",
"208 427 OFFCURVE",
"262 512 OFFCURVE",
"259 525 CURVE"
);
}
);
width = 535;
}
);
note = H;
unicode = 0048;
},
{
glyphname = I;
layers = (
{
hints = (
{
horizontal = 1;
place = "{529, 37}";
type = Stem;
}
);
layerId = "34A4CA4C-C6E5-4C7E-9ECD-8F87FE1EC3A4";
paths = (
{
closed = 1;
nodes = (
"-56 22 OFFCURVE",
"-42 -26 OFFCURVE",
"-11 -17 CURVE SMOOTH",
"27 -7 OFFCURVE",
"50 4 OFFCURVE",
"78 12 CURVE",
"88 5 OFFCURVE",
"104 6 OFFCURVE",
"114 19 CURVE",
"163 26 OFFCURVE",
"198 23 OFFCURVE",
"246 16 CURVE SMOOTH",
"278 12 OFFCURVE",
"284 51 OFFCURVE",
"252 55 CURVE SMOOTH",
"213 60 OFFCURVE",
"178 69 OFFCURVE",
"137 69 CURVE",
"189 187 OFFCURVE",
"252 384 OFFCURVE",
"316 524 CURVE",
"358 527 OFFCURVE",
"384 531 OFFCURVE",
"438 530 CURVE SMOOTH",
"469 530 OFFCURVE",
"478 566 OFFCURVE",
"446 566 CURVE SMOOTH",
"391 566 OFFCURVE",
"356 575 OFFCURVE",
"294 572 CURVE SMOOTH",
"231 569 OFFCURVE",
"184 567 OFFCURVE",
"123 543 CURVE SMOOTH",
"93 531 OFFCURVE",
"111 485 OFFCURVE",
"141 497 CURVE SMOOTH",
"186 514 OFFCURVE",
"219 518 OFFCURVE",
"266 521 CURVE",
"224 426 OFFCURVE",
"201 308 OFFCURVE",
"137 173 CURVE SMOOTH",
"123 143 OFFCURVE",
"107 122 OFFCURVE",
"94 100 CURVE SMOOTH",
"89 92 OFFCURVE",
"82 77 OFFCURVE",
"77 63 CURVE",
"37 54 OFFCURVE",
"12 40 OFFCURVE",
"-25 30 CURVE SMOOTH"
);
}
);
width = 295;
}
);
note = I;
unicode = 0049;
},
{
glyphname = J;
layers = (
{
hints = (
{
horizontal = 1;
place = "{540, 51}";
type = Stem;
}
);
layerId = "34A4CA4C-C6E5-4C7E-9ECD-8F87FE1EC3A4";
paths = (
{
closed = 1;
nodes = (
"252 538 OFFCURVE",
"211 512 OFFCURVE",
"211 512 CURVE",
"190 500 OFFCURVE",
"195 464 OFFCURVE",
"216 473 CURVE",
"216 475 LINE",
"244 489 OFFCURVE",
"274 501 OFFCURVE",
"297 511 CURVE SMOOTH",
"319 520 OFFCURVE",
"424 540 OFFCURVE",
"446 540 CURVE SMOOTH",
"468 540 OFFCURVE",
"498 536 OFFCURVE",
"525 525 CURVE",
"544 520 OFFCURVE",
"562 558 OFFCURVE",
"544 566 CURVE",
"522 572 OFFCURVE",
"510 589 OFFCURVE",
"476 590 CURVE SMOOTH",
"444 590 OFFCURVE",
"303 560 OFFCURVE",
"281 550 CURVE SMOOTH"
);
},
{
closed = 1;
nodes = (
"315 37 OFFCURVE",
"382 376 OFFCURVE",
"412 462 CURVE SMOOTH",
"422 492 OFFCURVE",
"369 512 OFFCURVE",
"359 482 CURVE SMOOTH",
"355 469 OFFCURVE",
"342 457 OFFCURVE",
"337 440 CURVE SMOOTH",
"329 409 OFFCURVE",
"315 334 OFFCURVE",
"305 296 CURVE SMOOTH",
"280 196 OFFCURVE",
"231 17 OFFCURVE",
"126 -72 CURVE SMOOTH",
"107 -89 OFFCURVE",
"96 -100 OFFCURVE",
"73 -92 CURVE SMOOTH",
"60 -87 OFFCURVE",
"31 -61 OFFCURVE",
"18 -26 CURVE SMOOTH",
"8 2 OFFCURVE",
"-9 -17 OFFCURVE",
"-8 -52 CURVE SMOOTH",
"-7 -72 OFFCURVE",
"18 -120 OFFCURVE",
"45 -128 CURVE SMOOTH",
"89 -140 OFFCURVE",
"113 -137 OFFCURVE",
"139 -115 CURVE SMOOTH"
);
}
);
width = 433;
}
);
note = J;
unicode = 004A;
},
{
glyphname = K;
layers = (
{
hints = (
{
horizontal = 1;
place = "{605, -20}";
target = down;
type = TopGhost;
}
);
layerId = "34A4CA4C-C6E5-4C7E-9ECD-8F87FE1EC3A4";
paths = (
{
closed = 1;
nodes = (
"152 105 OFFCURVE",
"298 -4 OFFCURVE",
"343 -20 CURVE SMOOTH",
"374 -31 OFFCURVE",
"411 9 OFFCURVE",
"340 32 CURVE SMOOTH",
"304 44 OFFCURVE",
"173 175 OFFCURVE",
"165 203 CURVE",
"156 199 OFFCURVE",
"187 244 OFFCURVE",
"214 258 CURVE SMOOTH",
"303 305 OFFCURVE",
"391 381 OFFCURVE",
"585 491 CURVE SMOOTH",
"599 499 OFFCURVE",
"632 502 OFFCURVE",
"629 520 CURVE SMOOTH",
"625 544 OFFCURVE",
"600 547 OFFCURVE",
"585 539 CURVE SMOOTH",
"389 432 OFFCURVE",
"303 376 OFFCURVE",
"211 308 CURVE SMOOTH",
"187 291 OFFCURVE",
"161 263 OFFCURVE",
"150 256 CURVE",
"188 369 OFFCURVE",
"259 511 OFFCURVE",
"300 560 CURVE SMOOTH",
"342 612 OFFCURVE",
"271 620 OFFCURVE",
"247 574 CURVE SMOOTH",
"190 466 OFFCURVE",
"85 274 OFFCURVE",
"42 27 CURVE SMOOTH",
"32 -31 OFFCURVE",
"78 -37 OFFCURVE",
"96 -25 CURVE SMOOTH",
"125 -4 OFFCURVE",
"90 11 OFFCURVE",
"90 22 CURVE SMOOTH",
"89 44 OFFCURVE",
"105 118 OFFCURVE",
"120 154 CURVE"
);
}
);
width = 437;
}
);
note = K;
unicode = 004B;
},
{
glyphname = L;
layers = (
{
hints = (
{
horizontal = 1;
place = "{594, -20}";
target = down;
type = TopGhost;
}
);
layerId = "34A4CA4C-C6E5-4C7E-9ECD-8F87FE1EC3A4";
paths = (
{
closed = 1;
nodes = (
"-2 -38 LINE",
"14 -29 OFFCURVE",
"31 -20 OFFCURVE",
"49 -12 CURVE",
"63 -30 OFFCURVE",
"89 -33 OFFCURVE",
"101 -24 CURVE SMOOTH",
"118 -13 OFFCURVE",
"111 -1 OFFCURVE",
"102 11 CURVE",
"172 38 OFFCURVE",
"246 55 OFFCURVE",
"309 49 CURVE SMOOTH",
"362 44 OFFCURVE",
"407 39 OFFCURVE",
"435 14 CURVE SMOOTH",
"445 5 OFFCURVE",
"448 0 OFFCURVE",
"446 -5 CURVE",
"447 -5 OFFCURVE",
"418 -58 OFFCURVE",
"452 -58 CURVE SMOOTH",
"455 -58 OFFCURVE",
"470 -56 OFFCURVE",
"480 -45 CURVE SMOOTH",
"490 -35 OFFCURVE",
"491 -20 OFFCURVE",
"494 -9 CURVE SMOOTH",
"498 5 OFFCURVE",
"501 21 OFFCURVE",
"495 32 CURVE SMOOTH",
"486 45 OFFCURVE",
"467 52 OFFCURVE",
"467 52 CURVE",
"434 75 OFFCURVE",
"389 76 OFFCURVE",
"338 81 CURVE SMOOTH",
"280 87 OFFCURVE",
"241 86 OFFCURVE",
"176 72 CURVE SMOOTH",
"142 64 OFFCURVE",
"114 53 OFFCURVE",
"87 41 CURVE",
"94 112 OFFCURVE",
"161 293 OFFCURVE",
"225 428 CURVE SMOOTH",
"239 458 OFFCURVE",
"261 479 OFFCURVE",
"274 501 CURVE SMOOTH",
"283 516 OFFCURVE",
"291 551 OFFCURVE",
"293 564 CURVE SMOOTH",
"297 595 OFFCURVE",
"260 605 OFFCURVE",
"245 577 CURVE SMOOTH",
"188 469 OFFCURVE",
"47 129 OFFCURVE",
"40 23 CURVE",
"41 20 LINE",
"27 14 OFFCURVE",
"13 8 OFFCURVE",
"-3 2 CURVE SMOOTH",
"-24 -7 OFFCURVE",
"-14 -46 OFFCURVE",
"-2 -39 CURVE"
);
}
);
width = 482;
}
);
note = L;
unicode = 004C;
},
{
glyphname = M;
layers = (
{
hints = (
{
horizontal = 1;
place = "{635, -20}";
target = down;
type = TopGhost;
},
{
place = "{298, 49}";
type = Stem;
},
{
place = "{677, 49}";
type = Stem;
}
);
layerId = "34A4CA4C-C6E5-4C7E-9ECD-8F87FE1EC3A4";
paths = (
{
closed = 1;
nodes = (
"281 539 LINE",
"285 571 OFFCURVE",
"257 565 OFFCURVE",
"242 537 CURVE SMOOTH",
"185 429 OFFCURVE",
"56 188 OFFCURVE",
"37 -17 CURVE SMOOTH",
"33 -66 OFFCURVE",
"92 -73 OFFCURVE",
"110 -61 CURVE SMOOTH",
"139 -40 OFFCURVE",
"93 -19 OFFCURVE",
"94 1 CURVE SMOOTH",
"106 162 OFFCURVE",
"152 266 OFFCURVE",
"218 404 CURVE SMOOTH",
"232 433 OFFCURVE",
"280 526 OFFCURVE",
"282 539 CURVE"
);
},
{
closed = 1;
nodes = (
"355 611 LINE",
"345 642 OFFCURVE",
"300 644 OFFCURVE",
"300 612 CURVE SMOOTH",
"299 522 OFFCURVE",
"288 469 OFFCURVE",
"299 374 CURVE SMOOTH",
"308 302 OFFCURVE",
"305 245 OFFCURVE",
"346 173 CURVE SMOOTH",
"357 155 OFFCURVE",
"368 143 OFFCURVE",
"379 128 CURVE SMOOTH",
"388 116 OFFCURVE",
"397 115 OFFCURVE",
"411 123 CURVE SMOOTH",
"459 150 OFFCURVE",
"478 173 OFFCURVE",
"526 208 CURVE SMOOTH",
"628 284 OFFCURVE",
"656 318 OFFCURVE",
"731 411 CURVE SMOOTH",
"735 415 OFFCURVE",
"763 443 OFFCURVE",
"766 447 CURVE",
"761 426 OFFCURVE",
"756 404 OFFCURVE",
"749 376 CURVE SMOOTH",
"728 284 OFFCURVE",
"688 230 OFFCURVE",
"678 124 CURVE SMOOTH",
"673 69 OFFCURVE",
"663 16 OFFCURVE",
"663 -35 CURVE SMOOTH",
"663 -68 OFFCURVE",
"728 -46 OFFCURVE",
"728 -14 CURVE SMOOTH",
"727 42 OFFCURVE",
"722 70 OFFCURVE",
"727 119 CURVE SMOOTH",
"736 213 OFFCURVE",
"774 290 OFFCURVE",
"798 393 CURVE SMOOTH",
"814 461 OFFCURVE",
"820 473 OFFCURVE",
"834 541 CURVE SMOOTH",
"839 565 OFFCURVE",
"804 580 OFFCURVE",
"790 561 CURVE SMOOTH",
"763 523 OFFCURVE",
"747 502 OFFCURVE",
"718 466 CURVE SMOOTH",
"640 370 OFFCURVE",
"604 309 OFFCURVE",
"510 240 CURVE SMOOTH",
"471 212 OFFCURVE",
"443 199 OFFCURVE",
"404 176 CURVE",
"399 182 OFFCURVE",
"394 189 OFFCURVE",
"389 198 CURVE SMOOTH",
"353 258 OFFCURVE",
"352 301 OFFCURVE",
"348 380 CURVE SMOOTH",
"344 479 OFFCURVE",
"367 572 OFFCURVE",
"355 610 CURVE"
);
}
);
width = 806;
}
);
note = M;
unicode = 004D;
},
{
glyphname = N;
layers = (
{
hints = (
{
horizontal = 1;
place = "{-29, 679}";
type = Stem;
},
{
place = "{28, 56}";
type = Stem;
},
{
place = "{253, 48}";
type = Stem;
}
);
layerId = "34A4CA4C-C6E5-4C7E-9ECD-8F87FE1EC3A4";
paths = (
{
closed = 1;
nodes = (
"237 488 LINE",
"241 520 OFFCURVE",
"213 514 OFFCURVE",
"198 486 CURVE SMOOTH",
"142 378 OFFCURVE",
"53 229 OFFCURVE",
"28 21 CURVE SMOOTH",
"22 -28 OFFCURVE",
"83 -36 OFFCURVE",
"101 -23 CURVE SMOOTH",
"129 -3 OFFCURVE",
"83 19 OFFCURVE",
"84 39 CURVE SMOOTH",
"96 200 OFFCURVE",
"108 214 OFFCURVE",
"174 352 CURVE SMOOTH",
"188 382 OFFCURVE",
"236 475 OFFCURVE",
"238 488 CURVE"
);
},
{
closed = 1;
nodes = (
"310 573 OFFCURVE",
"258 571 OFFCURVE",
"253 539 CURVE SMOOTH",
"245 492 OFFCURVE",
"268 366 OFFCURVE",
"309 239 CURVE SMOOTH",
"327 184 OFFCURVE",
"356 116 OFFCURVE",
"377 64 CURVE SMOOTH",
"385 45 OFFCURVE",
"414 42 OFFCURVE",
"424 58 CURVE SMOOTH",
"485 158 OFFCURVE",
"623 544 OFFCURVE",
"707 608 CURVE SMOOTH",
"719 617 OFFCURVE",
"733 634 OFFCURVE",
"728 643 CURVE SMOOTH",
"721 655 OFFCURVE",
"697 650 OFFCURVE",
"682 642 CURVE SMOOTH",
"624 614 OFFCURVE",
"457 192 OFFCURVE",
"410 119 CURVE",
"399 150 OFFCURVE",
"366 208 OFFCURVE",
"354 245 CURVE SMOOTH",
"318 352 OFFCURVE",
"300 457 OFFCURVE",
"301 495 CURVE",
"300 505 OFFCURVE",
"305 534 OFFCURVE",
"306 541 CURVE SMOOTH"
);
}
);
width = 546;
}
);
note = N;
unicode = 004E;
},
{
glyphname = Eng;
lastChange = "2021-11-22 20:08:29 +0000";
layers = (
{
hints = (
{
horizontal = 1;
place = "{-29, 679}";
type = Stem;
},
{
place = "{28, 56}";
type = Stem;
},
{
place = "{253, 48}";
type = Stem;
},
{
horizontal = 1;
place = "{-256, 41}";
type = Stem;
},
{
horizontal = 1;
place = "{380, 89}";
type = Stem;
},
{
place = "{401, 431}";
type = Stem;
},
{
place = "{765, 67}";
type = Stem;
}
);
layerId = "34A4CA4C-C6E5-4C7E-9ECD-8F87FE1EC3A4";
paths = (
{
closed = 1;
nodes = (
"725 648 OFFCURVE",
"719 650 OFFCURVE",
"712 650 CURVE SMOOTH",
"702 650 OFFCURVE",
"691 647 OFFCURVE",
"682 642 CURVE SMOOTH",
"624 614 OFFCURVE",
"457 192 OFFCURVE",
"410 119 CURVE",
"399 150 OFFCURVE",
"366 208 OFFCURVE",
"354 245 CURVE SMOOTH",
"318 352 OFFCURVE",
"300 457 OFFCURVE",
"301 495 CURVE",
"300 505 OFFCURVE",
"305 534 OFFCURVE",
"306 541 CURVE SMOOTH",
"308 557 OFFCURVE",
"297 564 OFFCURVE",
"284 564 CURVE SMOOTH",
"271 564 OFFCURVE",
"256 555 OFFCURVE",
"253 539 CURVE SMOOTH",
"252 533 OFFCURVE",
"251 525 OFFCURVE",
"251 516 CURVE SMOOTH",
"251 459 OFFCURVE",
"273 349 OFFCURVE",
"309 239 CURVE SMOOTH",
"327 184 OFFCURVE",
"356 116 OFFCURVE",
"377 64 CURVE",
"377 63 OFFCURVE",
"378 62 OFFCURVE",
"378 61 CURVE",
"345 -33 OFFCURVE",
"304 -151 OFFCURVE",
"271 -192 CURVE SMOOTH",
"258 -207 OFFCURVE",
"248 -215 OFFCURVE",
"234 -215 CURVE SMOOTH",
"229 -215 OFFCURVE",
"224 -214 OFFCURVE",
"218 -212 CURVE SMOOTH",
"205 -207 OFFCURVE",
"189 -178 OFFCURVE",
"179 -176 CURVE SMOOTH",
"170 -175 OFFCURVE",
"164 -174 OFFCURVE",
"160 -174 CURVE SMOOTH",
"154 -174 OFFCURVE",
"153 -176 OFFCURVE",
"153 -186 CURVE SMOOTH",
"153 -190 OFFCURVE",
"153 -196 OFFCURVE",
"153 -203 CURVE SMOOTH",
"154 -223 OFFCURVE",
"164 -240 OFFCURVE",
"191 -248 CURVE SMOOTH",
"209 -253 OFFCURVE",
"223 -256 OFFCURVE",
"236 -256 CURVE SMOOTH",
"255 -256 OFFCURVE",
"270 -250 OFFCURVE",
"284 -235 CURVE SMOOTH",
"331 -186 OFFCURVE",
"383 -58 OFFCURVE",
"424 59 CURVE",
"486 159 OFFCURVE",
"623 544 OFFCURVE",
"707 608 CURVE SMOOTH",
"719 617 OFFCURVE",
"733 634 OFFCURVE",
"728 643 CURVE SMOOTH"
);
},
{
closed = 1;
nodes = (
"96 200 OFFCURVE",
"108 214 OFFCURVE",
"174 352 CURVE SMOOTH",
"188 382 OFFCURVE",
"236 475 OFFCURVE",
"238 488 CURVE",
"237 488 LINE",
"239 503 OFFCURVE",
"234 510 OFFCURVE",
"226 510 CURVE SMOOTH",
"218 510 OFFCURVE",
"206 501 OFFCURVE",
"198 486 CURVE SMOOTH",
"142 378 OFFCURVE",
"53 229 OFFCURVE",
"28 21 CURVE SMOOTH",
"24 -15 OFFCURVE",
"55 -29 OFFCURVE",
"79 -29 CURVE SMOOTH",
"88 -29 OFFCURVE",
"96 -27 OFFCURVE",
"101 -23 CURVE SMOOTH",
"108 -18 OFFCURVE",
"110 -14 OFFCURVE",
"110 -9 CURVE SMOOTH",
"110 7 OFFCURVE",
"83 24 OFFCURVE",
"84 39 CURVE SMOOTH"
);
}
);
width = 778;
}
);
unicode = 014A;
},
{
glyphname = O;
layers = (
{
hints = (
{
horizontal = 1;
place = "{468, 43}";
type = Stem;
},
{
horizontal = 1;
place = "{596, -20}";
target = down;
type = TopGhost;
}
);
layerId = "34A4CA4C-C6E5-4C7E-9ECD-8F87FE1EC3A4";
paths = (
{
closed = 1;
nodes = (
"288 557 OFFCURVE",
"332 545 OFFCURVE",
"330 567 CURVE SMOOTH",
"327 612 OFFCURVE",
"276 596 OFFCURVE",
"261 581 CURVE",
"211 547 OFFCURVE",
"84 428 OFFCURVE",
"57 300 CURVE SMOOTH",
"16 110 OFFCURVE",
"53 1 OFFCURVE",
"198 -33 CURVE SMOOTH",
"390 -77 OFFCURVE",
"845 209 OFFCURVE",
"796 400 CURVE",
"740 534 OFFCURVE",
"600 516 OFFCURVE",
"488 511 CURVE SMOOTH",
"400 507 OFFCURVE",
"323 463 OFFCURVE",
"281 444 CURVE SMOOTH",
"252 431 OFFCURVE",
"258 398 OFFCURVE",
"287 412 CURVE SMOOTH",
"331 432 OFFCURVE",
"420 464 OFFCURVE",
"494 468 CURVE SMOOTH",
"614 474 OFFCURVE",
"715 475 OFFCURVE",
"749 381 CURVE",
"775 238 OFFCURVE",
"354 -36 OFFCURVE",
"208 14 CURVE SMOOTH",
"94 53 OFFCURVE",
"79 173 OFFCURVE",
"104 291 CURVE SMOOTH",
"127 401 OFFCURVE",
"255 524 OFFCURVE",
"280 549 CURVE SMOOTH"
);
}
);
width = 777;
}
);
note = O;
unicode = 004F;
},
{
glyphname = Oslash;
layers = (
{
hints = (
{
horizontal = 1;
place = "{468, 43}";
type = Stem;
},
{
horizontal = 1;
place = "{596, -20}";
target = down;
type = TopGhost;
}
);
layerId = "34A4CA4C-C6E5-4C7E-9ECD-8F87FE1EC3A4";
paths = (
{
closed = 1;
nodes = (
"288 557 OFFCURVE",
"332 545 OFFCURVE",
"330 567 CURVE SMOOTH",
"327 612 OFFCURVE",
"276 596 OFFCURVE",
"261 581 CURVE",
"211 547 OFFCURVE",
"84 428 OFFCURVE",
"57 300 CURVE SMOOTH",
"16 110 OFFCURVE",
"53 1 OFFCURVE",
"198 -33 CURVE SMOOTH",
"390 -77 OFFCURVE",
"845 209 OFFCURVE",
"796 400 CURVE",
"740 534 OFFCURVE",
"600 516 OFFCURVE",
"488 511 CURVE SMOOTH",
"400 507 OFFCURVE",
"323 463 OFFCURVE",
"281 444 CURVE SMOOTH",
"252 431 OFFCURVE",
"258 398 OFFCURVE",
"287 412 CURVE SMOOTH",
"331 432 OFFCURVE",
"420 464 OFFCURVE",
"494 468 CURVE SMOOTH",
"614 474 OFFCURVE",
"715 475 OFFCURVE",
"749 381 CURVE",
"775 238 OFFCURVE",
"354 -36 OFFCURVE",
"208 14 CURVE SMOOTH",
"94 53 OFFCURVE",
"79 173 OFFCURVE",
"104 291 CURVE SMOOTH",
"127 401 OFFCURVE",
"255 524 OFFCURVE",
"280 549 CURVE SMOOTH"
);
},
{
closed = 1;
nodes = (
"594 628 OFFCURVE",
"549 600 OFFCURVE",
"549 600 CURVE",
"158 -62 LINE",
"158 -62 OFFCURVE",
"170 -92 OFFCURVE",
"184 -62 CURVE",
"241 -1 OFFCURVE",
"585 601 OFFCURVE",
"585 601 CURVE"
);
}
);
width = 777;
}
);
note = Oslash;
unicode = 00D8;
},
{
glyphname = OE;
layers = (
{
hints = (
{
horizontal = 1;
place = "{468, 43}";
type = Stem;
},
{
horizontal = 1;
place = "{596, -20}";
target = down;
type = TopGhost;
}
);
layerId = "34A4CA4C-C6E5-4C7E-9ECD-8F87FE1EC3A4";
paths = (
{
closed = 1;
nodes = (
"1133 552 LINE SMOOTH",
"1190 563 OFFCURVE",
"1195 614 OFFCURVE",
"1124 599 CURVE SMOOTH",
"1013 576 OFFCURVE",
"884 492 OFFCURVE",
"797 394 CURVE",
"797 396 OFFCURVE",
"797 398 OFFCURVE",
"796 400 CURVE SMOOTH",
"740 534 OFFCURVE",
"600 516 OFFCURVE",
"488 511 CURVE SMOOTH",
"400 507 OFFCURVE",
"323 463 OFFCURVE",
"281 444 CURVE SMOOTH",
"252 431 OFFCURVE",
"258 398 OFFCURVE",
"287 412 CURVE SMOOTH",
"331 432 OFFCURVE",
"420 464 OFFCURVE",
"494 468 CURVE SMOOTH",
"614 474 OFFCURVE",
"715 475 OFFCURVE",
"749 381 CURVE",
"775 238 OFFCURVE",
"354 -36 OFFCURVE",
"208 14 CURVE SMOOTH",
"94 53 OFFCURVE",
"79 173 OFFCURVE",
"104 291 CURVE SMOOTH",
"127 401 OFFCURVE",
"255 524 OFFCURVE",
"280 549 CURVE SMOOTH",
"288 557 OFFCURVE",
"332 545 OFFCURVE",
"330 567 CURVE SMOOTH",
"327 612 OFFCURVE",
"276 596 OFFCURVE",
"261 581 CURVE",
"211 547 OFFCURVE",
"84 428 OFFCURVE",
"57 300 CURVE SMOOTH",
"16 110 OFFCURVE",
"53 1 OFFCURVE",
"198 -33 CURVE SMOOTH",
"318 -61 OFFCURVE",
"539 40 OFFCURVE",
"678 166 CURVE",
"671 119 OFFCURVE",
"678 71 OFFCURVE",
"708 27 CURVE SMOOTH",
"750 -36 OFFCURVE",
"856 -70 OFFCURVE",
"967 -48 CURVE SMOOTH",
"1100 -22 OFFCURVE",
"1135 44 OFFCURVE",
"1149 53 CURVE SMOOTH",
"1176 70 OFFCURVE",
"1174 123 OFFCURVE",
"1146 106 CURVE",
"1113 79 OFFCURVE",
"1080 28 OFFCURVE",
"956 -1 CURVE SMOOTH",
"864 -22 OFFCURVE",
"772 17 OFFCURVE",
"747 54 CURVE SMOOTH",
"694 131 OFFCURVE",
"745 250 OFFCURVE",
"809 333 CURVE SMOOTH",
"886 434 OFFCURVE",
"1028 531 OFFCURVE",
"1132 552 CURVE SMOOTH"
);
},
{
closed = 1;
nodes = (
"766 215 OFFCURVE",
"779 170 OFFCURVE",
"810 181 CURVE SMOOTH",
"839 191 OFFCURVE",
"856 206 OFFCURVE",
"878 214 CURVE",
"878 215 LINE",
"952 241 OFFCURVE",
"998 234 OFFCURVE",
"1082 251 CURVE SMOOTH",
"1115 257 OFFCURVE",
"1115 296 OFFCURVE",
"1083 296 CURVE SMOOTH",
"1035 296 OFFCURVE",
"866 254 OFFCURVE",
"866 254 CURVE",
"838 249 OFFCURVE",
"822 235 OFFCURVE",
"797 226 CURVE SMOOTH"
);
}
);
width = 1188;
}
);
note = OE;
unicode = 0152;
},
{
glyphname = P;
layers = (
{
hints = (
{
horizontal = 1;
place = "{204, 41}";
type = Stem;
},
{
horizontal = 1;
place = "{531, 38}";
type = Stem;
},
{
place = "{511, 49}";
type = Stem;
}
);
layerId = "34A4CA4C-C6E5-4C7E-9ECD-8F87FE1EC3A4";
paths = (
{
closed = 1;
nodes = (
"195 330 OFFCURVE",
"242 429 OFFCURVE",
"275 486 CURVE",
"278 486 OFFCURVE",
"281 487 OFFCURVE",
"284 488 CURVE SMOOTH",
"321 501 OFFCURVE",
"321 528 OFFCURVE",
"343 528 CURVE",
"427 542 OFFCURVE",
"511 507 OFFCURVE",
"511 459 CURVE",
"520 398 OFFCURVE",
"438 334 OFFCURVE",
"314 279 CURVE SMOOTH",
"216 236 OFFCURVE",
"173 244 OFFCURVE",
"159 245 CURVE"
);
},
{
closed = 1;
nodes = (
"312 553 LINE",
"307 575 OFFCURVE",
"261 571 OFFCURVE",
"243 537 CURVE SMOOTH",
"186 428 OFFCURVE",
"81 236 OFFCURVE",
"38 -11 CURVE SMOOTH",
"28 -69 OFFCURVE",
"78 -75 OFFCURVE",
"96 -63 CURVE SMOOTH",
"125 -42 OFFCURVE",
"90 -27 OFFCURVE",
"90 -16 CURVE SMOOTH",
"89 5 OFFCURVE",
"104 103 OFFCURVE",
"117 140 CURVE SMOOTH",
"123 158 OFFCURVE",
"131 180 OFFCURVE",
"141 204 CURVE",
"180 203 OFFCURVE",
"277 215 OFFCURVE",
"334 241 CURVE SMOOTH",
"456 297 OFFCURVE",
"568 352 OFFCURVE",
"560 461 CURVE SMOOTH",
"553 564 OFFCURVE",
"439 579 OFFCURVE",
"350 564 CURVE SMOOTH",
"336 562 OFFCURVE",
"323 558 OFFCURVE",
"311 553 CURVE"
);
}
);
width = 467;
}
);
note = P;
unicode = 0050;
},
{
glyphname = Thorn;
layers = (
{
hints = (
{
horizontal = 1;
place = "{628, 20}";
type = Stem;
}
);
layerId = "34A4CA4C-C6E5-4C7E-9ECD-8F87FE1EC3A4";
paths = (
{
closed = 1;
nodes = (
"-14 467 OFFCURVE",
"2 467 OFFCURVE",
"22 465 CURVE",
"17 386 OFFCURVE",
"12 307 OFFCURVE",
"11 267 CURVE SMOOTH",
"8 210 OFFCURVE",
"1 155 OFFCURVE",
"5 96 CURVE SMOOTH",
"8 55 OFFCURVE",
"2 15 OFFCURVE",
"13 -27 CURVE SMOOTH",
"16 -38 OFFCURVE",
"38 -74 OFFCURVE",
"53 -74 CURVE SMOOTH",
"67 -74 OFFCURVE",
"76 -54 OFFCURVE",
"72 -41 CURVE SMOOTH",
"70 -30 OFFCURVE",
"61 -20 OFFCURVE",
"58 -9 CURVE SMOOTH",
"50 26 OFFCURVE",
"55 66 OFFCURVE",
"54 100 CURVE SMOOTH",
"53 122 OFFCURVE",
"52 144 OFFCURVE",
"53 166 CURVE",
"138 161 OFFCURVE",
"253 188 OFFCURVE",
"290 291 CURVE SMOOTH",
"328 400 OFFCURVE",
"232 444 OFFCURVE",
"126 488 CURVE SMOOTH",
"110 494 OFFCURVE",
"92 499 OFFCURVE",
"71 502 CURVE",
"76 592 LINE SMOOTH",
"77 609 OFFCURVE",
"85 644 OFFCURVE",
"81 659 CURVE SMOOTH",
"79 667 OFFCURVE",
"60 678 OFFCURVE",
"51 678 CURVE SMOOTH",
"38 678 OFFCURVE",
"35 663 OFFCURVE",
"35 653 CURVE SMOOTH",
"32 622 OFFCURVE",
"29 567 OFFCURVE",
"25 506 CURVE",
"8 507 OFFCURVE",
"-8 506 OFFCURVE",
"-23 505 CURVE SMOOTH",
"-55 501 OFFCURVE",
"-60 475 OFFCURVE",
"-26 469 CURVE SMOOTH"
);
},
{
closed = 1;
nodes = (
"57 265 LINE SMOOTH",
"58 298 OFFCURVE",
"64 381 OFFCURVE",
"69 457 CURVE",
"95 448 LINE SMOOTH",
"203 405 OFFCURVE",
"267 350 OFFCURVE",
"241 288 CURVE",
"228 240 OFFCURVE",
"134 196 OFFCURVE",
"54 201 CURVE"
);
}
);
width = 297;
}
);
note = Thorn;
unicode = 00DE;
},
{
glyphname = Q;
layers = (
{
hints = (
{
horizontal = 1;
place = "{533, 42}";
type = Stem;
}
);
layerId = "34A4CA4C-C6E5-4C7E-9ECD-8F87FE1EC3A4";
paths = (
{
closed = 1;
nodes = (
"618 101 OFFCURVE",
"743 227 OFFCURVE",
"740 387 CURVE SMOOTH",
"738 477 OFFCURVE",
"662 518 OFFCURVE",
"570 510 CURVE",
"573 512 OFFCURVE",
"576 514 OFFCURVE",
"579 517 CURVE",
"589 590 OFFCURVE",
"520 575 OFFCURVE",
"495 575 CURVE SMOOTH",
"402 575 OFFCURVE",
"195 512 OFFCURVE",
"84 317 CURVE SMOOTH",
"16 197 OFFCURVE",
"21 -6 OFFCURVE",
"210 -28 CURVE SMOOTH",
"274 -35 OFFCURVE",
"357 -21 OFFCURVE",
"438 13 CURVE",
"495 -43 OFFCURVE",
"547 -113 OFFCURVE",
"561 -169 CURVE SMOOTH",
"569 -200 OFFCURVE",
"605 -184 OFFCURVE",
"596 -153 CURVE SMOOTH",
"578 -90 OFFCURVE",
"531 -24 OFFCURVE",
"476 31 CURVE"
);
},
{
closed = 1;
nodes = (
"138 111 LINE",
"123 83 OFFCURVE",
"166 58 OFFCURVE",
"181 86 CURVE SMOOTH",
"189 101 OFFCURVE",
"186 110 OFFCURVE",
"208 115 CURVE SMOOTH",
"232 120 OFFCURVE",
"270 118 OFFCURVE",
"316 100 CURVE SMOOTH",
"343 89 OFFCURVE",
"374 69 OFFCURVE",
"405 43 CURVE",
"343 18 OFFCURVE",
"281 6 OFFCURVE",
"233 12 CURVE SMOOTH",
"93 30 OFFCURVE",
"59 193 OFFCURVE",
"128 311 CURVE SMOOTH",
"229 486 OFFCURVE",
"416 534 OFFCURVE",
"492 534 CURVE SMOOTH",
"520 534 OFFCURVE",
"538 518 OFFCURVE",
"533 518 CURVE SMOOTH",
"518 518 OFFCURVE",
"520 509 OFFCURVE",
"531 505 CURVE",
"477 493 OFFCURVE",
"433 470 OFFCURVE",
"394 431 CURVE SMOOTH",
"373 410 OFFCURVE",
"389 380 OFFCURVE",
"410 401 CURVE SMOOTH",
"449 440 OFFCURVE",
"502 475 OFFCURVE",
"558 480 CURVE SMOOTH",
"648 489 OFFCURVE",
"681 448 OFFCURVE",
"687 379 CURVE SMOOTH",
"699 245 OFFCURVE",
"577 125 OFFCURVE",
"445 61 CURVE",
"404 96 OFFCURVE",
"361 124 OFFCURVE",
"323 140 CURVE SMOOTH",
"276 160 OFFCURVE",
"239 171 OFFCURVE",
"198 162 CURVE SMOOTH",
"163 155 OFFCURVE",
"154 138 OFFCURVE",
"139 111 CURVE"
);
}
);
width = 759;
}
);
note = Q;
unicode = 0051;
},
{
glyphname = R;
layers = (
{
hints = (
{
horizontal = 1;
place = "{531, 38}";
type = Stem;
},
{
place = "{511, 49}";
type = Stem;
}
);
layerId = "34A4CA4C-C6E5-4C7E-9ECD-8F87FE1EC3A4";
paths = (
{
closed = 1;
nodes = (
"266 222 LINE",
"278 222 OFFCURVE",
"315 237 OFFCURVE",
"334 241 CURVE",
"455 300 OFFCURVE",
"568 353 OFFCURVE",
"560 462 CURVE SMOOTH",
"553 564 OFFCURVE",
"439 579 OFFCURVE",
"350 564 CURVE SMOOTH",
"336 562 OFFCURVE",
"323 558 OFFCURVE",
"311 553 CURVE",
"307 575 OFFCURVE",
"261 571 OFFCURVE",
"243 537 CURVE SMOOTH",
"186 428 OFFCURVE",
"81 236 OFFCURVE",
"38 -11 CURVE SMOOTH",
"28 -69 OFFCURVE",
"78 -75 OFFCURVE",
"96 -63 CURVE SMOOTH",
"125 -42 OFFCURVE",
"90 -27 OFFCURVE",
"90 -16 CURVE SMOOTH",
"89 5 OFFCURVE",
"104 103 OFFCURVE",
"117 140 CURVE SMOOTH",
"149 230 OFFCURVE",
"227 403 OFFCURVE",
"275 486 CURVE",
"278 486 OFFCURVE",
"281 487 OFFCURVE",
"284 488 CURVE SMOOTH",
"321 501 OFFCURVE",
"321 528 OFFCURVE",
"343 528 CURVE",
"427 542 OFFCURVE",
"511 507 OFFCURVE",
"511 459 CURVE",
"520 398 OFFCURVE",
"437 335 OFFCURVE",
"313 278 CURVE SMOOTH",
"281 264 OFFCURVE",
"203 272 OFFCURVE",
"194 224 CURVE SMOOTH",
"186 182 OFFCURVE",
"230 191 OFFCURVE",
"239 170 CURVE",
"270 122 OFFCURVE",
"389 21 OFFCURVE",
"444 9 CURVE SMOOTH",
"475 2 OFFCURVE",
"512 27 OFFCURVE",
"441 50 CURVE SMOOTH",
"406 62 OFFCURVE",
"275 193 OFFCURVE",
"267 221 CURVE"
);
}
);
width = 503;
}
);
note = R;
unicode = 0052;
},
{
glyphname = S;
layers = (
{
hints = (
{
horizontal = 1;
place = "{630, -20}";
target = down;
type = TopGhost;
},
{
place = "{379, 58}";
type = Stem;
}
);
layerId = "34A4CA4C-C6E5-4C7E-9ECD-8F87FE1EC3A4";
paths = (
{
closed = 1;
nodes = (
"438 558 LINE SMOOTH",
"460 542 OFFCURVE",
"493 552 OFFCURVE",
"478 580 CURVE",
"478 581 OFFCURVE",
"475 627 OFFCURVE",
"433 629 CURVE SMOOTH",
"374 632 OFFCURVE",
"310 629 OFFCURVE",
"264 590 CURVE SMOOTH",
"227 559 OFFCURVE",
"196 510 OFFCURVE",
"220 455 CURVE SMOOTH",
"271 339 OFFCURVE",
"389 319 OFFCURVE",
"379 204 CURVE SMOOTH",
"368 88 OFFCURVE",
"239 18 OFFCURVE",
"171 -15 CURVE SMOOTH",
"109 -44 OFFCURVE",
"51 -43 OFFCURVE",
"43 -22 CURVE SMOOTH",
"25 23 OFFCURVE",
"-6 15 OFFCURVE",
"-6 -27 CURVE",
"8 -93 OFFCURVE",
"121 -83 OFFCURVE",
"182 -56 CURVE SMOOTH",
"256 -24 OFFCURVE",
"444 84 OFFCURVE",
"437 235 CURVE SMOOTH",
"432 347 OFFCURVE",
"306 389 OFFCURVE",
"278 474 CURVE",
"267 498 OFFCURVE",
"273 540 OFFCURVE",
"299 563 CURVE SMOOTH",
"323 584 OFFCURVE",
"387 593 OFFCURVE",
"405 583 CURVE"
);
}
);
width = 483;
}
);
note = S;
unicode = 0053;
},
{
glyphname = Germandbls;
lastChange = "2021-11-22 20:08:29 +0000";
layers = (
{
layerId = "34A4CA4C-C6E5-4C7E-9ECD-8F87FE1EC3A4";
paths = (
{
closed = 1;
nodes = (
"380 374 CURVE SMOOTH",
"397 374 OFFCURVE",
"414 371 OFFCURVE",
"430 363 CURVE",
"463 363 OFFCURVE",
"486 386 OFFCURVE",
"530 454 CURVE SMOOTH",
"547 481 OFFCURVE",
"555 506 OFFCURVE",
"555 528 CURVE SMOOTH",
"555 585 OFFCURVE",
"501 624 OFFCURVE",
"409 624 CURVE SMOOTH",
"276 624 OFFCURVE",
"222 563 OFFCURVE",
"155 391 CURVE SMOOTH",
"82 195 OFFCURVE",
"105 255 OFFCURVE",
"33 58 CURVE SMOOTH",
"11 -2 OFFCURVE",
"-9 -54 OFFCURVE",
"-23 -81 CURVE SMOOTH",
"-31 -96 OFFCURVE",
"-34 -108 OFFCURVE",
"-34 -117 CURVE SMOOTH",
"-34 -133 OFFCURVE",
"-24 -140 OFFCURVE",
"-12 -140 CURVE SMOOTH",
"29 -140 OFFCURVE",
"13 -110 OFFCURVE",
"23 -93 CURVE SMOOTH",
"38 -65 OFFCURVE",
"54 -26 OFFCURVE",
"72 21 CURVE SMOOTH",
"132 183 OFFCURVE",
"201 425 OFFCURVE",
"251 498 CURVE SMOOTH",
"279 541 OFFCURVE",
"319 580 OFFCURVE",
"412 580 CURVE SMOOTH",
"464 580 OFFCURVE",
"506 558 OFFCURVE",
"506 520 CURVE SMOOTH",
"506 507 OFFCURVE",
"501 493 OFFCURVE",
"491 477 CURVE SMOOTH",
"477 456 OFFCURVE",
"458 432 OFFCURVE",
"445 410 CURVE",
"430 416 OFFCURVE",
"412 418 OFFCURVE",
"393 418 CURVE SMOOTH",
"369 418 OFFCURVE",
"345 414 OFFCURVE",
"324 408 CURVE SMOOTH",
"291 398 OFFCURVE",
"229 369 OFFCURVE",
"229 321 CURVE SMOOTH",
"229 250 OFFCURVE",
"325 227 OFFCURVE",
"371 187 CURVE SMOOTH",
"398 163 OFFCURVE",
"410 140 OFFCURVE",
"410 120 CURVE SMOOTH",
"410 67 OFFCURVE",
"333 30 OFFCURVE",
"269 30 CURVE SMOOTH",
"258 30 OFFCURVE",
"248 31 OFFCURVE",
"239 33 CURVE SMOOTH",
"212 39 OFFCURVE",
"185 40 OFFCURVE",
"160 55 CURVE SMOOTH",
"155 58 OFFCURVE",
"149 60 OFFCURVE",
"144 60 CURVE SMOOTH",
"130 60 OFFCURVE",
"119 48 OFFCURVE",
"119 37 CURVE SMOOTH",
"119 34 OFFCURVE",
"121 30 OFFCURVE",
"124 27 CURVE SMOOTH",
"156 -4 OFFCURVE",
"194 -18 OFFCURVE",
"234 -18 CURVE SMOOTH",
"361 -18 OFFCURVE",
"469 56 OFFCURVE",
"469 134 CURVE SMOOTH",
"469 168 OFFCURVE",
"448 203 OFFCURVE",
"399 232 CURVE SMOOTH",
"351 261 OFFCURVE",
"278 296 OFFCURVE",
"285 322 CURVE SMOOTH",
"292 348 OFFCURVE",
"334 374 OFFCURVE"
);
}
);
width = 600;
}
);
unicode = 1E9E;
},
{
glyphname = Schwa;
lastChange = "2021-11-22 20:02:08 +0000";
layers = (
{
hints = (
{
horizontal = 1;
place = "{25, 21}";
target = up;
type = BottomGhost;
},
{
place = "{21, -52}";
type = Stem;
}
);
layerId = "34A4CA4C-C6E5-4C7E-9ECD-8F87FE1EC3A4";
paths = (
{
closed = 1;
nodes = (
"183 9 OFFCURVE",
"174 9 CURVE SMOOTH",
"120 9 OFFCURVE",
"93 43 OFFCURVE",
"93 88 CURVE SMOOTH",
"93 154 OFFCURVE",
"152 242 OFFCURVE",
"263 264 CURVE SMOOTH",
"319 276 OFFCURVE",
"392 283 OFFCURVE",
"460 283 CURVE SMOOTH",
"503 283 OFFCURVE",
"544 280 OFFCURVE",
"576 273 CURVE SMOOTH",
"582 272 OFFCURVE",
"586 272 OFFCURVE",
"590 272 CURVE SMOOTH",
"600 272 OFFCURVE",
"603 276 OFFCURVE",
"603 280 CURVE SMOOTH",
"603 283 OFFCURVE",
"601 286 OFFCURVE",
"601 287 CURVE SMOOTH",
"599 290 OFFCURVE",
"608 303 OFFCURVE",
"562 313 CURVE SMOOTH",
"522 321 OFFCURVE",
"480 325 OFFCURVE",
"438 325 CURVE SMOOTH",
"368 325 OFFCURVE",
"300 315 OFFCURVE",
"251 305 CURVE SMOOTH",
"112 276 OFFCURVE",
"38 166 OFFCURVE",
"38 78 CURVE SMOOTH",
"38 12 OFFCURVE",
"78 -41 OFFCURVE",
"162 -41 CURVE SMOOTH",
"177 -41 OFFCURVE",
"194 -39 OFFCURVE",
"213 -35 CURVE SMOOTH",
"335 -10 OFFCURVE",
"479 91 OFFCURVE",
"565 202 CURVE SMOOTH",
"612 263 OFFCURVE",
"661 347 OFFCURVE",
"661 430 CURVE SMOOTH",
"661 467 OFFCURVE",
"651 503 OFFCURVE",
"628 537 CURVE SMOOTH",
"595 587 OFFCURVE",
"521 619 OFFCURVE",
"437 619 CURVE SMOOTH",
"415 619 OFFCURVE",
"392 617 OFFCURVE",
"369 612 CURVE SMOOTH",
"236 586 OFFCURVE",
"201 520 OFFCURVE",
"187 511 CURVE SMOOTH",
"174 503 OFFCURVE",
"168 486 OFFCURVE",
"168 473 CURVE SMOOTH",
"168 463 OFFCURVE",
"172 455 OFFCURVE",
"180 455 CURVE SMOOTH",
"183 455 OFFCURVE",
"186 456 OFFCURVE",
"190 458 CURVE",
"223 485 OFFCURVE",
"256 536 OFFCURVE",
"380 565 CURVE SMOOTH",
"398 569 OFFCURVE",
"416 571 OFFCURVE",
"433 571 CURVE SMOOTH",
"505 571 OFFCURVE",
"568 540 OFFCURVE",
"589 510 CURVE SMOOTH",
"604 488 OFFCURVE",
"611 462 OFFCURVE",
"611 434 CURVE SMOOTH",
"611 367 OFFCURVE",
"572 290 OFFCURVE",
"527 231 CURVE SMOOTH",
"450 130 OFFCURVE",
"308 33 OFFCURVE",
"204 12 CURVE SMOOTH",
"193 10 OFFCURVE"
);
}
);
width = 625;
}
);
unicode = 018F;
},
{
glyphname = T;
layers = (
{
hints = (
{
horizontal = 1;
place = "{531, 35}";
type = Stem;
}
);
layerId = "34A4CA4C-C6E5-4C7E-9ECD-8F87FE1EC3A4";
paths = (
{
closed = 1;
nodes = (
"144 475 OFFCURVE",
"307 532 OFFCURVE",
"402 531 CURVE SMOOTH",
"455 531 OFFCURVE",
"499 530 OFFCURVE",
"530 508 CURVE SMOOTH",
"541 500 OFFCURVE",
"545 495 OFFCURVE",
"544 490 CURVE SMOOTH",
"544 489 OFFCURVE",
"519 434 OFFCURVE",
"553 437 CURVE SMOOTH",
"556 437 OFFCURVE",
"571 440 OFFCURVE",
"579 452 CURVE",
"589 463 OFFCURVE",
"589 478 OFFCURVE",
"591 489 CURVE SMOOTH",
"593 504 OFFCURVE",
"594 519 OFFCURVE",
"586 530 CURVE SMOOTH",
"578 542 OFFCURVE",
"559 547 OFFCURVE",
"559 547 CURVE",
"524 569 OFFCURVE",
"479 567 OFFCURVE",
"427 567 CURVE SMOOTH",
"369 568 OFFCURVE",
"284 559 OFFCURVE",
"220 539 CURVE SMOOTH",
"153 518 OFFCURVE",
"112 485 OFFCURVE",
"49 454 CURVE SMOOTH",
"28 444 OFFCURVE",
"42 406 OFFCURVE",
"53 414 CURVE SMOOTH"
);
},
{
closed = 1;
nodes = (
"380 522 OFFCURVE",
"343 532 OFFCURVE",
"328 504 CURVE SMOOTH",
"272 395 OFFCURVE",
"172 129 OFFCURVE",
"162 24 CURVE SMOOTH",
"157 -25 OFFCURVE",
"204 -37 OFFCURVE",
"222 -25 CURVE SMOOTH",
"251 -4 OFFCURVE",
"205 17 OFFCURVE",
"206 37 CURVE SMOOTH",
"211 105 OFFCURVE",
"243 216 OFFCURVE",
"308 354 CURVE SMOOTH",
"322 385 OFFCURVE",
"344 406 OFFCURVE",
"357 428 CURVE SMOOTH",
"366 442 OFFCURVE",
"374 477 OFFCURVE",
"376 490 CURVE SMOOTH"
);
}
);
width = 488;
}
);
note = T;
unicode = 0054;
},
{
glyphname = U;
layers = (
{
hints = (
{
horizontal = 1;
place = "{581, -20}";
target = down;
type = TopGhost;
}
);
layerId = "34A4CA4C-C6E5-4C7E-9ECD-8F87FE1EC3A4";
paths = (
{
closed = 1;
nodes = (
"245 478 LINE",
"273 494 OFFCURVE",
"268 568 OFFCURVE",
"197 526 CURVE SMOOTH",
"130 487 OFFCURVE",
"155 475 OFFCURVE",
"129 440 CURVE SMOOTH",
"100 401 OFFCURVE",
"71 351 OFFCURVE",
"51 296 CURVE SMOOTH",
"14 196 OFFCURVE",
"-21 58 OFFCURVE",
"87 -5 CURVE SMOOTH",
"237 -93 OFFCURVE",
"388 37 OFFCURVE",
"499 172 CURVE SMOOTH",
"611 310 OFFCURVE",
"663 405 OFFCURVE",
"736 547 CURVE SMOOTH",
"765 605 OFFCURVE",
"714 577 OFFCURVE",
"697 551 CURVE SMOOTH",
"606 411 OFFCURVE",
"590 360 OFFCURVE",
"462 205 CURVE SMOOTH",
"349 69 OFFCURVE",
"211 -34 OFFCURVE",
"107 32 CURVE",
"42 65 OFFCURVE",
"59 180 OFFCURVE",
"97 279 CURVE SMOOTH",
"120 338 OFFCURVE",
"155 395 OFFCURVE",
"186 432 CURVE SMOOTH",
"204 453 OFFCURVE",
"235 471 OFFCURVE",
"246 477 CURVE"
);
}
);
width = 632;
}
);
note = U;
unicode = 0055;
},
{
glyphname = V;
layers = (
{
hints = (
{
place = "{122, 48}";
type = Stem;
}
);
layerId = "34A4CA4C-C6E5-4C7E-9ECD-8F87FE1EC3A4";
paths = (
{
closed = 1;
nodes = (
"585 512 LINE",
"604 541 OFFCURVE",
"579 581 OFFCURVE",
"561 553 CURVE SMOOTH",
"541 522 OFFCURVE",
"510 476 OFFCURVE",
"488 445 CURVE SMOOTH",
"466 413 OFFCURVE",
"452 393 OFFCURVE",
"429 359 CURVE SMOOTH",
"392 305 OFFCURVE",
"369 289 OFFCURVE",
"332 231 CURVE SMOOTH",
"298 179 OFFCURVE",
"284 146 OFFCURVE",
"251 96 CURVE",
"252 96 LINE",
"223 52 OFFCURVE",
"209 17 OFFCURVE",
"185 1 CURVE SMOOTH",
"180 -3 OFFCURVE",
"173 -3 OFFCURVE",
"170 -3 CURVE",
"166 6 OFFCURVE",
"167 33 OFFCURVE",
"171 66 CURVE",
"170 132 OFFCURVE",
"166 160 OFFCURVE",
"168 224 CURVE SMOOTH",
"170 285 OFFCURVE",
"173 366 OFFCURVE",
"188 471 CURVE SMOOTH",
"193 503 OFFCURVE",
"194 514 OFFCURVE",
"195 517 CURVE",
"194 516 OFFCURVE",
"194 515 OFFCURVE",
"194 514 CURVE SMOOTH",
"194 512 LINE",
"194 512 OFFCURVE",
"195 521 OFFCURVE",
"194 517 CURVE",
"194 546 OFFCURVE",
"150 549 OFFCURVE",
"145 518 CURVE SMOOTH",
"129 430 OFFCURVE",
"143 470 OFFCURVE",
"135 391 CURVE SMOOTH",
"128 328 OFFCURVE",
"123 292 OFFCURVE",
"121 230 CURVE SMOOTH",
"119 163 OFFCURVE",
"122 125 OFFCURVE",
"123 61 CURVE SMOOTH",
"123 33 OFFCURVE",
"114 3 OFFCURVE",
"126 -29 CURVE",
"148 -68 OFFCURVE",
"188 -67 OFFCURVE",
"213 -37 CURVE",
"225 -8 OFFCURVE",
"267 35 OFFCURVE",
"291 71 CURVE SMOOTH",
"292 72 LINE SMOOTH",
"327 125 OFFCURVE",
"341 158 OFFCURVE",
"373 208 CURVE SMOOTH",
"408 263 OFFCURVE",
"433 293 OFFCURVE",
"471 348 CURVE SMOOTH",
"493 381 OFFCURVE",
"507 400 OFFCURVE",
"531 434 CURVE SMOOTH",
"551 463 OFFCURVE",
"566 482 OFFCURVE",
"586 512 CURVE"
);
}
);
width = 475;
}
);
note = V;
unicode = 0056;
},
{
glyphname = W;
layers = (
{
hints = (
{
horizontal = 1;
place = "{598, -20}";
target = down;
type = TopGhost;
},
{
place = "{418, 86}";
type = Stem;
}
);
layerId = "34A4CA4C-C6E5-4C7E-9ECD-8F87FE1EC3A4";
paths = (
{
closed = 1;
nodes = (
"178 472 LINE",
"187 502 OFFCURVE",
"150 500 OFFCURVE",
"140 469 CURVE SMOOTH",
"113 382 OFFCURVE",
"89 315 OFFCURVE",
"68 193 CURVE SMOOTH",
"53 102 OFFCURVE",
"33 20 OFFCURVE",
"46 -21 CURVE SMOOTH",
"52 -42 OFFCURVE",
"79 -47 OFFCURVE",
"90 -29 CURVE SMOOTH",
"137 48 OFFCURVE",
"183 126 OFFCURVE",
"228 191 CURVE SMOOTH",
"279 265 OFFCURVE",
"371 389 OFFCURVE",
"442 453 CURVE",
"437 412 OFFCURVE",
"419 317 OFFCURVE",
"419 274 CURVE SMOOTH",
"418 197 OFFCURVE",
"413 49 OFFCURVE",
"516 38 CURVE SMOOTH",
"589 31 OFFCURVE",
"673 76 OFFCURVE",
"729 152 CURVE SMOOTH",
"859 331 OFFCURVE",
"901 547 OFFCURVE",
"883 582 CURVE SMOOTH",
"868 609 OFFCURVE",
"849 598 OFFCURVE",
"846 566 CURVE SMOOTH",
"834 438 OFFCURVE",
"796 342 OFFCURVE",
"705 196 CURVE SMOOTH",
"656 116 OFFCURVE",
"577 69 OFFCURVE",
"529 89 CURVE SMOOTH",
"445 125 OFFCURVE",
"458 303 OFFCURVE",
"479 397 CURVE SMOOTH",
"486 426 OFFCURVE",
"501 431 OFFCURVE",
"504 471 CURVE",
"508 493 OFFCURVE",
"466 509 OFFCURVE",
"449 495 CURVE SMOOTH",
"357 419 OFFCURVE",
"270 328 OFFCURVE",
"203 231 CURVE SMOOTH",
"170 183 OFFCURVE",
"128 121 OFFCURVE",
"89 61 CURVE",
"88 109 OFFCURVE",
"100 167 OFFCURVE",
"113 226 CURVE SMOOTH",
"132 314 OFFCURVE",
"149 379 OFFCURVE",
"177 471 CURVE"
);
}
);
width = 845;
}
);
note = W;
unicode = 0057;
},
{
glyphname = X;
layers = (
{
hints = (
{
horizontal = 1;
place = "{598, -20}";
target = down;
type = TopGhost;
}
);
layerId = "34A4CA4C-C6E5-4C7E-9ECD-8F87FE1EC3A4";
paths = (
{
closed = 1;
nodes = (
"225 307 LINE",
"188 368 OFFCURVE",
"155 431 OFFCURVE",
"127 500 CURVE SMOOTH",
"116 528 OFFCURVE",
"70 510 OFFCURVE",
"82 481 CURVE SMOOTH",
"112 406 OFFCURVE",
"148 338 OFFCURVE",
"188 272 CURVE",
"78 158 OFFCURVE",
"27 73 OFFCURVE",
"-81 -49 CURVE SMOOTH",
"-102 -73 OFFCURVE",
"-74 -99 OFFCURVE",
"-53 -75 CURVE SMOOTH",
"54 46 OFFCURVE",
"113 123 OFFCURVE",
"216 229 CURVE",
"276 139 OFFCURVE",
"346 54 OFFCURVE",
"430 -37 CURVE SMOOTH",
"452 -60 OFFCURVE",
"487 -26 OFFCURVE",
"466 -3 CURVE SMOOTH",
"380 90 OFFCURVE",
"310 176 OFFCURVE",
"252 265 CURVE",
"366 375 OFFCURVE",
"470 437 OFFCURVE",
"568 546 CURVE SMOOTH",
"590 570 OFFCURVE",
"541 615 OFFCURVE",
"519 591 CURVE SMOOTH",
"505 575 OFFCURVE",
"498 564 OFFCURVE",
"484 550 CURVE SMOOTH",
"476 543 OFFCURVE",
"473 520 OFFCURVE",
"465 512 CURVE SMOOTH",
"392 446 OFFCURVE",
"312 391 OFFCURVE",
"224 307 CURVE"
);
}
);
width = 469;
}
);
note = X;
unicode = 0058;
},
{
glyphname = Y;
layers = (
{
hints = (
{
horizontal = 1;
place = "{289, 44}";
type = Stem;
},
{
place = "{63, 55}";
type = Stem;
},
{
place = "{207, 70}";
type = Stem;
}
);
layerId = "34A4CA4C-C6E5-4C7E-9ECD-8F87FE1EC3A4";
paths = (
{
closed = 1;
nodes = (
"268 527 LINE",
"311 538 OFFCURVE",
"296 559 OFFCURVE",
"249 553 CURVE SMOOTH",
"182 545 OFFCURVE",
"96 500 OFFCURVE",
"74 447 CURVE SMOOTH",
"51 394 OFFCURVE",
"56 335 OFFCURVE",
"148 305 CURVE SMOOTH",
"205 286 OFFCURVE",
"258 286 OFFCURVE",
"307 295 CURVE",
"276 237 OFFCURVE",
"215 118 OFFCURVE",
"207 24 CURVE SMOOTH",
"203 -25 OFFCURVE",
"251 -38 OFFCURVE",
"269 -25 CURVE SMOOTH",
"297 -5 OFFCURVE",
"246 18 OFFCURVE",
"252 37 CURVE SMOOTH",
"266 81 OFFCURVE",
"276 111 OFFCURVE",
"295 167 CURVE SMOOTH",
"306 198 OFFCURVE",
"328 221 OFFCURVE",
"341 243 CURVE SMOOTH",
"351 258 OFFCURVE",
"364 296 OFFCURVE",
"364 309 CURVE SMOOTH",
"364 310 LINE",
"417 328 OFFCURVE",
"463 354 OFFCURVE",
"502 374 CURVE SMOOTH",
"591 419 OFFCURVE",
"655 475 OFFCURVE",
"680 506 CURVE SMOOTH",
"698 529 OFFCURVE",
"649 549 OFFCURVE",
"638 524 CURVE SMOOTH",
"628 501 OFFCURVE",
"549 431 OFFCURVE",
"465 395 CURVE SMOOTH",
"398 367 OFFCURVE",
"278 316 OFFCURVE",
"182 338 CURVE SMOOTH",
"132 350 OFFCURVE",
"102 381 OFFCURVE",
"128 436 CURVE SMOOTH",
"154 491 OFFCURVE",
"202 510 OFFCURVE",
"268 528 CURVE"
);
}
);
width = 488;
}
);
note = Y;
unicode = 0059;
},
{
glyphname = Z;
layers = (
{
hints = (
{
horizontal = 1;
place = "{-5, 21}";
target = up;
type = BottomGhost;
},
{
horizontal = 1;
place = "{50, 35}";
type = Stem;
},
{
horizontal = 1;
place = "{521, 37}";
type = Stem;
},
{
place = "{105, 62}";
type = Stem;
},
{
horizontal = 1;
place = "{495, -20}";
target = down;
type = TopGhost;
}
);
layerId = "34A4CA4C-C6E5-4C7E-9ECD-8F87FE1EC3A4";
paths = (
{
closed = 1;
nodes = (
"-8 -38 LINE",
"94 15 OFFCURVE",
"219 60 OFFCURVE",
"313 50 CURVE SMOOTH",
"365 45 OFFCURVE",
"410 40 OFFCURVE",
"435 14 CURVE",
"445 6 OFFCURVE",
"447 0 OFFCURVE",
"445 -5 CURVE",
"445 -5 OFFCURVE",
"410 -58 OFFCURVE",
"444 -58 CURVE SMOOTH",
"447 -58 OFFCURVE",
"462 -56 OFFCURVE",
"474 -45 CURVE SMOOTH",
"484 -35 OFFCURVE",
"487 -20 OFFCURVE",
"491 -9 CURVE SMOOTH",
"497 5 OFFCURVE",
"501 20 OFFCURVE",
"496 32 CURVE SMOOTH",
"489 45 OFFCURVE",
"471 52 OFFCURVE",
"471 52 CURVE",
"441 76 OFFCURVE",
"397 77 OFFCURVE",
"346 82 CURVE SMOOTH",
"288 87 OFFCURVE",
"249 86 OFFCURVE",
"183 72 CURVE SMOOTH",
"139 62 OFFCURVE",
"105 48 OFFCURVE",
"69 32 CURVE",
"119 101 OFFCURVE",
"313 252 OFFCURVE",
"427 354 CURVE SMOOTH",
"452 376 OFFCURVE",
"482 388 OFFCURVE",
"502 404 CURVE SMOOTH",
"517 416 OFFCURVE",
"541 446 OFFCURVE",
"547 457 CURVE SMOOTH",
"564 486 OFFCURVE",
"535 508 OFFCURVE",
"510 487 CURVE SMOOTH",
"411 404 OFFCURVE",
"70 121 OFFCURVE",
"14 25 CURVE SMOOTH",
"10 17 OFFCURVE",
"7 11 OFFCURVE",
"5 6 CURVE",
"-5 2 LINE SMOOTH",
"-27 -7 OFFCURVE",
"-21 -46 OFFCURVE",
"-8 -39 CURVE"
);
},
{
closed = 1;
nodes = (
"392 533 OFFCURVE",
"517 507 OFFCURVE",
"592 484 CURVE SMOOTH",
"604 480 OFFCURVE",
"632 510 OFFCURVE",
"612 516 CURVE SMOOTH",
"543 535 OFFCURVE",
"525 547 OFFCURVE",
"454 555 CURVE SMOOTH",
"390 563 OFFCURVE",
"325 554 OFFCURVE",
"268 544 CURVE SMOOTH",
"215 534 OFFCURVE",
"170 531 OFFCURVE",
"137 504 CURVE",
"137 504 OFFCURVE",
"117 496 OFFCURVE",
"110 482 CURVE SMOOTH",
"102 470 OFFCURVE",
"105 455 OFFCURVE",
"108 440 CURVE",
"112 430 OFFCURVE",
"112 415 OFFCURVE",
"122 406 CURVE SMOOTH",
"133 395 OFFCURVE",
"147 395 OFFCURVE",
"150 395 CURVE SMOOTH",
"185 398 OFFCURVE",
"156 448 OFFCURVE",
"156 448 CURVE",
"154 454 OFFCURVE",
"158 461 OFFCURVE",
"168 469 CURVE",
"197 497 OFFCURVE",
"241 505 OFFCURVE",
"296 515 CURVE SMOOTH"
);
}
);
width = 565;
}
);
note = Z;
unicode = 005A;
},
{
glyphname = a;
layers = (
{
hints = (
{
horizontal = 1;
place = "{22, 46}";
type = Stem;
},
{
horizontal = 1;
place = "{378, 47}";
type = Stem;
}
);
layerId = "34A4CA4C-C6E5-4C7E-9ECD-8F87FE1EC3A4";
paths = (
{
closed = 1;
nodes = (
"334 283 OFFCURVE",
"225 290 OFFCURVE",
"161 268 CURVE SMOOTH",
"93 245 OFFCURVE",
"27 195 OFFCURVE",
"20 125 CURVE SMOOTH",
"14 60 OFFCURVE",
"78 22 OFFCURVE",
"135 22 CURVE SMOOTH",
"177 22 OFFCURVE",
"206 28 OFFCURVE",
"252 65 CURVE SMOOTH",
"276 84 OFFCURVE",
"255 115 OFFCURVE",
"230 96 CURVE SMOOTH",
"190 66 OFFCURVE",
"180 68 OFFCURVE",
"135 68 CURVE SMOOTH",
"99 68 OFFCURVE",
"64 96 OFFCURVE",
"69 120 CURVE",
"72 164 OFFCURVE",
"126 211 OFFCURVE",
"177 225 CURVE SMOOTH",
"245 244 OFFCURVE",
"337 221 OFFCURVE",
"342 152 CURVE",
"327 112 OFFCURVE",
"310 85 OFFCURVE",
"295 73 CURVE SMOOTH",
"271 52 OFFCURVE",
"302 18 OFFCURVE",
"325 38 CURVE SMOOTH",
"370 76 OFFCURVE",
"395 144 OFFCURVE",
"407 188 CURVE SMOOTH",
"428 261 OFFCURVE",
"444 319 OFFCURVE",
"419 379 CURVE SMOOTH",
"401 422 OFFCURVE",
"355 425 OFFCURVE",
"324 425 CURVE SMOOTH",
"269 425 OFFCURVE",
"248 394 OFFCURVE",
"231 377 CURVE SMOOTH",
"212 358 OFFCURVE",
"225 323 OFFCURVE",
"255 335 CURVE",
"276 358 OFFCURVE",
"304 377 OFFCURVE",
"323 377 CURVE SMOOTH",
"355 378 OFFCURVE",
"363 368 OFFCURVE",
"375 353 CURVE SMOOTH",
"388 335 OFFCURVE",
"386 276 OFFCURVE",
"367 215 CURVE"
);
}
);
width = 452;
}
);
note = a;
unicode = 0061;
},
{
glyphname = ae;
layers = (
{
hints = (
{
horizontal = 1;
place = "{22, 46}";
type = Stem;
},
{
horizontal = 1;
place = "{134, 45}";
type = Stem;
},
{
horizontal = 1;
place = "{231, 48}";
type = Stem;
},
{
horizontal = 1;
place = "{315, 48}";
type = Stem;
},
{
horizontal = 1;
place = "{377, 48}";
type = Stem;
},
{
place = "{20, 243}";
type = Stem;
},
{
place = "{384, 328}";
type = Stem;
}
);
layerId = "34A4CA4C-C6E5-4C7E-9ECD-8F87FE1EC3A4";
paths = (
{
closed = 1;
nodes = (
"423 195 LINE",
"479 188 OFFCURVE",
"570 195 OFFCURVE",
"632 220 CURVE SMOOTH",
"678 238 OFFCURVE",
"737 276 OFFCURVE",
"737 331 CURVE SMOOTH",
"737 421 OFFCURVE",
"634 435 OFFCURVE",
"542 409 CURVE SMOOTH",
"508 400 OFFCURVE",
"465 373 OFFCURVE",
"430 332 CURVE",
"429 347 OFFCURVE",
"425 363 OFFCURVE",
"419 379 CURVE SMOOTH",
"401 422 OFFCURVE",
"355 425 OFFCURVE",
"324 425 CURVE SMOOTH",
"269 425 OFFCURVE",
"248 394 OFFCURVE",
"231 377 CURVE SMOOTH",
"212 358 OFFCURVE",
"225 323 OFFCURVE",
"255 335 CURVE",
"276 358 OFFCURVE",
"304 377 OFFCURVE",
"323 377 CURVE SMOOTH",
"355 378 OFFCURVE",
"363 368 OFFCURVE",
"375 353 CURVE SMOOTH",
"388 335 OFFCURVE",
"386 276 OFFCURVE",
"367 215 CURVE",
"334 283 OFFCURVE",
"225 290 OFFCURVE",
"161 268 CURVE SMOOTH",
"93 245 OFFCURVE",
"27 195 OFFCURVE",
"20 125 CURVE SMOOTH",
"14 60 OFFCURVE",
"78 22 OFFCURVE",
"135 22 CURVE SMOOTH",
"177 22 OFFCURVE",
"206 28 OFFCURVE",
"252 65 CURVE SMOOTH",
"276 84 OFFCURVE",
"255 115 OFFCURVE",
"230 96 CURVE SMOOTH",
"190 66 OFFCURVE",
"180 68 OFFCURVE",
"135 68 CURVE SMOOTH",
"99 68 OFFCURVE",
"64 96 OFFCURVE",
"69 120 CURVE",
"72 164 OFFCURVE",
"126 211 OFFCURVE",
"177 225 CURVE SMOOTH",
"245 244 OFFCURVE",
"337 221 OFFCURVE",
"342 152 CURVE",
"327 112 OFFCURVE",
"310 85 OFFCURVE",
"295 73 CURVE SMOOTH",
"271 52 OFFCURVE",
"302 18 OFFCURVE",
"325 38 CURVE SMOOTH",
"346 56 OFFCURVE",
"363 80 OFFCURVE",
"376 106 CURVE",
"391 61 OFFCURVE",
"426 22 OFFCURVE",
"483 4 CURVE SMOOTH",
"520 -8 OFFCURVE",
"547 14 OFFCURVE",
"490 44 CURVE",
"465 64 OFFCURVE",
"413 109 OFFCURVE",
"421 179 CURVE SMOOTH",
"421 184 OFFCURVE",
"422 189 OFFCURVE",
"423 194 CURVE SMOOTH"
);
},
{
closed = 1;
nodes = (
"464 311 OFFCURVE",
"519 353 OFFCURVE",
"547 361 CURVE SMOOTH",
"612 381 OFFCURVE",
"673 377 OFFCURVE",
"679 342 CURVE SMOOTH",
"685 302 OFFCURVE",
"652 274 OFFCURVE",
"620 259 CURVE SMOOTH",
"562 233 OFFCURVE",
"481 235 OFFCURVE",
"436 241 CURVE"
);
}
);
width = 751;
}
);
note = ae;
unicode = 00E6;
},
{
glyphname = b;
layers = (
{
hints = (
{
horizontal = 1;
place = "{645, -20}";
target = down;
type = TopGhost;
}
);
layerId = "34A4CA4C-C6E5-4C7E-9ECD-8F87FE1EC3A4";
paths = (
{
closed = 1;
nodes = (
"310 610 LINE",
"320 640 OFFCURVE",
"268 660 OFFCURVE",
"258 630 CURVE SMOOTH",
"244 591 OFFCURVE",
"233 537 OFFCURVE",
"212 480 CURVE SMOOTH",
"178 390 OFFCURVE",
"129 222 OFFCURVE",
"86 169 CURVE SMOOTH",
"62 140 OFFCURVE",
"108 122 OFFCURVE",
"123 138 CURVE SMOOTH",
"188 205 OFFCURVE",
"233 270 OFFCURVE",
"381 312 CURVE SMOOTH",
"437 328 OFFCURVE",
"435 286 OFFCURVE",
"419 239 CURVE",
"371 142 OFFCURVE",
"293 76 OFFCURVE",
"165 43 CURVE SMOOTH",
"146 38 OFFCURVE",
"101 34 OFFCURVE",
"83 39 CURVE SMOOTH",
"61 45 OFFCURVE",
"52 62 OFFCURVE",
"44 71 CURVE SMOOTH",
"24 95 OFFCURVE",
"-13 43 OFFCURVE",
"9 18 CURVE",
"47 -14 OFFCURVE",
"105 -16 OFFCURVE",
"160 -5 CURVE SMOOTH",
"304 23 OFFCURVE",
"409 107 OFFCURVE",
"463 218 CURVE",
"493 265 OFFCURVE",
"485 392 OFFCURVE",
"367 359 CURVE SMOOTH",
"270 332 OFFCURVE",
"212 289 OFFCURVE",
"167 249 CURVE",
"236 425 OFFCURVE",
"280 523 OFFCURVE",
"310 609 CURVE"
);
}
);
width = 485;
}
);
note = b;
unicode = 0062;
},
{
glyphname = c;
layers = (
{
hints = (
{
horizontal = 1;
place = "{375, -20}";
target = down;
type = TopGhost;
}
);
layerId = "34A4CA4C-C6E5-4C7E-9ECD-8F87FE1EC3A4";
paths = (
{
closed = 1;
nodes = (
"346 268 OFFCURVE",
"368 288 OFFCURVE",
"364 320 CURVE SMOOTH",
"361 342 OFFCURVE",
"352 375 OFFCURVE",
"292 375 CURVE",
"223 362 OFFCURVE",
"189 329 OFFCURVE",
"145 289 CURVE SMOOTH",
"86 236 OFFCURVE",
"63 205 OFFCURVE",
"40 151 CURVE",
"40 151 LINE",
"2 78 OFFCURVE",
"45 -60 OFFCURVE",
"192 -18 CURVE SMOOTH",
"248 -2 OFFCURVE",
"276 16 OFFCURVE",
"341 78 CURVE SMOOTH",
"364 99 OFFCURVE",
"334 126 OFFCURVE",
"312 104 CURVE SMOOTH",
"269 59 OFFCURVE",
"225 40 OFFCURVE",
"180 30 CURVE SMOOTH",
"75 6 OFFCURVE",
"67 74 OFFCURVE",
"85 132 CURVE",
"85 132 LINE",
"107 185 OFFCURVE",
"127 208 OFFCURVE",
"177 253 CURVE SMOOTH",
"222 293 OFFCURVE",
"246 299 OFFCURVE",
"299 311 CURVE",
"302 306 OFFCURVE",
"309 298 OFFCURVE",
"323 286 CURVE SMOOTH"
);
}
);
width = 386;
}
);
note = c;
unicode = 0063;
},
{
glyphname = d;
layers = (
{
hints = (
{
horizontal = 1;
place = "{646, -20}";
target = down;
type = TopGhost;
}
);
layerId = "34A4CA4C-C6E5-4C7E-9ECD-8F87FE1EC3A4";
paths = (
{
closed = 1;
nodes = (
"585 592 LINE",
"615 632 OFFCURVE",
"547 669 OFFCURVE",
"529 630 CURVE",
"529 630 OFFCURVE",
"504 577 OFFCURVE",
"493 551 CURVE SMOOTH",
"475 505 OFFCURVE",
"434 408 OFFCURVE",
"410 332 CURVE",
"397 348 OFFCURVE",
"400 367 OFFCURVE",
"355 371 CURVE SMOOTH",
"213 384 OFFCURVE",
"101 281 OFFCURVE",
"51 216 CURVE SMOOTH",
"-19 127 OFFCURVE",
"54 13 OFFCURVE",
"196 9 CURVE SMOOTH",
"257 7 OFFCURVE",
"339 26 OFFCURVE",
"396 49 CURVE SMOOTH",
"441 68 OFFCURVE",
"474 97 OFFCURVE",
"495 116 CURVE SMOOTH",
"520 137 OFFCURVE",
"490 169 OFFCURVE",
"465 148 CURVE SMOOTH",
"444 129 OFFCURVE",
"416 108 OFFCURVE",
"380 93 CURVE SMOOTH",
"328 72 OFFCURVE",
"253 54 OFFCURVE",
"195 59 CURVE SMOOTH",
"80 69 OFFCURVE",
"69 137 OFFCURVE",
"98 178 CURVE SMOOTH",
"141 237 OFFCURVE",
"258 346 OFFCURVE",
"352 315 CURVE SMOOTH",
"387 304 OFFCURVE",
"396 243 OFFCURVE",
"379 185 CURVE SMOOTH",
"373 163 OFFCURVE",
"425 155 OFFCURVE",
"427 179 CURVE SMOOTH",
"435 306 OFFCURVE",
"509 454 OFFCURVE",
"540 533 CURVE SMOOTH",
"549 557 OFFCURVE",
"584 592 OFFCURVE",
"584 592 CURVE"
);
}
);
width = 523;
}
);
note = d;
unicode = 0064;
},
{
glyphname = eth;
layers = (
{
hints = (
{
horizontal = 1;
place = "{548, 47}";
type = Stem;
},
{
place = "{552, 55}";
type = Stem;
}
);
layerId = "34A4CA4C-C6E5-4C7E-9ECD-8F87FE1EC3A4";
paths = (
{
closed = 1;
nodes = (
"135 457 OFFCURVE",
"164 484 OFFCURVE",
"200 515 CURVE",
"238 472 OFFCURVE",
"262 420 OFFCURVE",
"273 382 CURVE SMOOTH",
"278 366 OFFCURVE",
"281 349 OFFCURVE",
"281 333 CURVE",
"268 341 OFFCURVE",
"246 347 OFFCURVE",
"230 347 CURVE SMOOTH",
"103 345 OFFCURVE",
"16 180 OFFCURVE",
"60 55 CURVE SMOOTH",
"74 17 OFFCURVE",
"107 -10 OFFCURVE",
"146 -10 CURVE",
"229 -1 OFFCURVE",
"298 159 OFFCURVE",
"316 224 CURVE SMOOTH",
"340 308 OFFCURVE",
"312 461 OFFCURVE",
"233 541 CURVE",
"248 554 OFFCURVE",
"264 566 OFFCURVE",
"281 578 CURVE SMOOTH",
"308 597 OFFCURVE",
"313 634 OFFCURVE",
"284 620 CURVE SMOOTH",
"266 612 OFFCURVE",
"235 591 OFFCURVE",
"202 568 CURVE",
"161 598 OFFCURVE",
"135 605 OFFCURVE",
"71 604 CURVE SMOOTH",
"69 604 OFFCURVE",
"41 575 OFFCURVE",
"76 573 CURVE SMOOTH",
"112 571 OFFCURVE",
"144 563 OFFCURVE",
"169 544 CURVE",
"132 516 OFFCURVE",
"100 490 OFFCURVE",
"91 482 CURVE SMOOTH",
"68 459 OFFCURVE",
"99 422 OFFCURVE",
"123 445 CURVE SMOOTH"
);
},
{
closed = 1;
nodes = (
"249 171 OFFCURVE",
"199 35 OFFCURVE",
"139 34 CURVE SMOOTH",
"118 34 OFFCURVE",
"107 40 OFFCURVE",
"99 63 CURVE SMOOTH",
"92 85 OFFCURVE",
"93 110 OFFCURVE",
"93 131 CURVE SMOOTH",
"93 223 OFFCURVE",
"177 348 OFFCURVE",
"281 309 CURVE",
"279 264 OFFCURVE",
"269 226 OFFCURVE",
"268 224 CURVE SMOOTH"
);
}
);
width = 380;
}
);
note = eth;
unicode = 00F0;
},
{
glyphname = e;
layers = (
{
hints = (
{
horizontal = 1;
place = "{364, -20}";
target = down;
type = TopGhost;
}
);
layerId = "34A4CA4C-C6E5-4C7E-9ECD-8F87FE1EC3A4";
paths = (
{
closed = 1;
nodes = (
"90 137 LINE",
"146 130 OFFCURVE",
"237 137 OFFCURVE",
"299 162 CURVE SMOOTH",
"345 180 OFFCURVE",
"404 218 OFFCURVE",
"404 273 CURVE SMOOTH",
"404 363 OFFCURVE",
"301 377 OFFCURVE",
"209 351 CURVE SMOOTH",
"147 334 OFFCURVE",
"52 255 OFFCURVE",
"35 141 CURVE SMOOTH",
"24 62 OFFCURVE",
"56 -24 OFFCURVE",
"150 -54 CURVE SMOOTH",
"187 -66 OFFCURVE",
"214 -44 OFFCURVE",
"157 -14 CURVE",
"132 6 OFFCURVE",
"80 51 OFFCURVE",
"88 121 CURVE SMOOTH",
"88 126 OFFCURVE",
"89 131 OFFCURVE",
"90 136 CURVE SMOOTH"
);
},
{
closed = 1;
nodes = (
"131 253 OFFCURVE",
"186 295 OFFCURVE",
"214 303 CURVE SMOOTH",
"279 323 OFFCURVE",
"340 319 OFFCURVE",
"346 284 CURVE SMOOTH",
"352 244 OFFCURVE",
"319 216 OFFCURVE",
"287 201 CURVE SMOOTH",
"229 175 OFFCURVE",
"148 177 OFFCURVE",
"103 183 CURVE"
);
}
);
width = 418;
}
);
note = e;
unicode = 0065;
},
{
glyphname = schwa;
lastChange = "2021-11-22 20:03:17 +0000";
layers = (
{
hints = (
{
horizontal = 1;
place = "{22, 21}";
target = up;
type = BottomGhost;
}
);
layerId = "34A4CA4C-C6E5-4C7E-9ECD-8F87FE1EC3A4";
paths = (
{
closed = 1;
nodes = (
"328 218 LINE",
"272 225 OFFCURVE",
"181 218 OFFCURVE",
"119 193 CURVE SMOOTH",
"73 175 OFFCURVE",
"14 137 OFFCURVE",
"14 82 CURVE SMOOTH",
"14 -8 OFFCURVE",
"117 -22 OFFCURVE",
"209 4 CURVE SMOOTH",
"271 21 OFFCURVE",
"366 100 OFFCURVE",
"383 214 CURVE SMOOTH",
"394 293 OFFCURVE",
"362 379 OFFCURVE",
"268 409 CURVE SMOOTH",
"233 420 OFFCURVE",
"177 417 OFFCURVE",
"155 412 CURVE SMOOTH",
"131 407 OFFCURVE",
"88 394 OFFCURVE",
"79 384 CURVE SMOOTH",
"74 379 OFFCURVE",
"69 351 OFFCURVE",
"93 351 CURVE SMOOTH",
"116 351 OFFCURVE",
"152 363 OFFCURVE",
"186 369 CURVE SMOOTH",
"216 374 OFFCURVE",
"247 368 OFFCURVE",
"268 359 CURVE SMOOTH",
"313 341 OFFCURVE",
"337 295 OFFCURVE",
"330 234 CURVE SMOOTH",
"330 229 OFFCURVE",
"328 224 OFFCURVE",
"328 219 CURVE SMOOTH"
);
},
{
closed = 1;
nodes = (
"287 102 OFFCURVE",
"232 60 OFFCURVE",
"204 52 CURVE SMOOTH",
"139 32 OFFCURVE",
"78 36 OFFCURVE",
"72 71 CURVE SMOOTH",
"66 111 OFFCURVE",
"99 139 OFFCURVE",
"131 154 CURVE SMOOTH",
"189 180 OFFCURVE",
"270 178 OFFCURVE",
"315 172 CURVE"
);
}
);
width = 418;
}
);
unicode = 0259;
},
{
glyphname = f;
layers = (
{
hints = (
{
horizontal = 1;
place = "{624, -20}";
target = down;
type = TopGhost;
},
{
place = "{47, 45}";
type = Stem;
}
);
layerId = "34A4CA4C-C6E5-4C7E-9ECD-8F87FE1EC3A4";
paths = (
{
closed = 1;
nodes = (
"136 341 LINE",
"88 212 OFFCURVE",
"43 62 OFFCURVE",
"47 -15 CURVE SMOOTH",
"49 -64 OFFCURVE",
"71 -71 OFFCURVE",
"89 -59 CURVE SMOOTH",
"119 -38 OFFCURVE",
"93 -22 OFFCURVE",
"93 -2 CURVE SMOOTH",
"91 72 OFFCURVE",
"144 246 OFFCURVE",
"184 349 CURVE",
"210 351 OFFCURVE",
"269 351 OFFCURVE",
"315 356 CURVE SMOOTH",
"345 359 OFFCURVE",
"330 389 OFFCURVE",
"317 390 CURVE SMOOTH",
"267 396 OFFCURVE",
"236 396 OFFCURVE",
"203 394 CURVE",
"220 433 OFFCURVE",
"249 495 OFFCURVE",
"260 511 CURVE SMOOTH",
"307 583 OFFCURVE",
"347 592 OFFCURVE",
"385 517 CURVE SMOOTH",
"399 490 OFFCURVE",
"400 473 OFFCURVE",
"410 467 CURVE SMOOTH",
"420 461 OFFCURVE",
"439 467 OFFCURVE",
"438 482 CURVE SMOOTH",
"435 527 OFFCURVE",
"430 546 OFFCURVE",
"408 581 CURVE SMOOTH",
"367 649 OFFCURVE",
"277 631 OFFCURVE",
"232 558 CURVE SMOOTH",
"214 530 OFFCURVE",
"185 467 OFFCURVE",
"155 391 CURVE",
"149 391 LINE SMOOTH",
"137 391 OFFCURVE",
"119 371 OFFCURVE",
"124 354 CURVE",
"125 346 OFFCURVE",
"129 342 OFFCURVE",
"135 341 CURVE SMOOTH"
);
}
);
width = 249;
}
);
note = f;
unicode = 0066;
},
{
glyphname = g;
layers = (
{
hints = (
{
horizontal = 1;
place = "{327, 55}";
type = Stem;
}
);
layerId = "34A4CA4C-C6E5-4C7E-9ECD-8F87FE1EC3A4";
paths = (
{
closed = 1;
nodes = (
"268 -259 LINE",
"309 -215 OFFCURVE",
"351 -152 OFFCURVE",
"379 -89 CURVE SMOOTH",
"419 2 OFFCURVE",
"446 116 OFFCURVE",
"461 166 CURVE SMOOTH",
"472 200 OFFCURVE",
"441 215 OFFCURVE",
"426 199 CURVE SMOOTH",
"362 132 OFFCURVE",
"324 60 OFFCURVE",
"196 50 CURVE SMOOTH",
"86 42 OFFCURVE",
"57 143 OFFCURVE",
"98 199 CURVE SMOOTH",
"141 258 OFFCURVE",
"244 334 OFFCURVE",
"360 326 CURVE",
"394 313 OFFCURVE",
"419 291 OFFCURVE",
"423 321 CURVE",
"423 349 OFFCURVE",
"418 380 OFFCURVE",
"363 381 CURVE SMOOTH",
"216 385 OFFCURVE",
"109 291 OFFCURVE",
"59 226 CURVE SMOOTH",
"-11 137 OFFCURVE",
"36 -8 OFFCURVE",
"195 9 CURVE SMOOTH",
"302 20 OFFCURVE",
"341 42 OFFCURVE",
"386 82 CURVE",
"359 4 OFFCURVE",
"343 -95 OFFCURVE",
"257 -192 CURVE SMOOTH",
"240 -211 OFFCURVE",
"201 -242 OFFCURVE",
"178 -234 CURVE SMOOTH",
"165 -228 OFFCURVE",
"151 -198 OFFCURVE",
"142 -194 CURVE SMOOTH",
"125 -187 OFFCURVE",
"106 -198 OFFCURVE",
"107 -223 CURVE SMOOTH",
"107 -245 OFFCURVE",
"120 -268 OFFCURVE",
"147 -276 CURVE SMOOTH",
"191 -288 OFFCURVE",
"245 -285 OFFCURVE",
"269 -259 CURVE"
);
}
);
width = 523;
}
);
note = g;
unicode = 0067;
},
{
glyphname = h;
layers = (
{
hints = (
{
horizontal = 1;
place = "{594, -20}";
target = down;
type = TopGhost;
}
);
layerId = "34A4CA4C-C6E5-4C7E-9ECD-8F87FE1EC3A4";
paths = (
{
closed = 1;
nodes = (
"117 208 LINE",
"106 197 OFFCURVE",
"107 199 OFFCURVE",
"92 176 CURVE",
"110 242 OFFCURVE",
"117 290 OFFCURVE",
"182 428 CURVE SMOOTH",
"196 458 OFFCURVE",
"218 479 OFFCURVE",
"231 501 CURVE SMOOTH",
"241 516 OFFCURVE",
"249 551 OFFCURVE",
"251 564 CURVE SMOOTH",
"255 595 OFFCURVE",
"218 605 OFFCURVE",
"203 577 CURVE SMOOTH",
"146 469 OFFCURVE",
"44 207 OFFCURVE",
"26 98 CURVE SMOOTH",
"21 64 OFFCURVE",
"48 53 OFFCURVE",
"63 74 CURVE",
"62 74 OFFCURVE",
"69 95 OFFCURVE",
"103 132 CURVE SMOOTH",
"151 184 OFFCURVE",
"256 267 OFFCURVE",
"310 284 CURVE SMOOTH",
"341 293 OFFCURVE",
"332 245 OFFCURVE",
"299 169 CURVE SMOOTH",
"274 113 OFFCURVE",
"241 -19 OFFCURVE",
"309 -24 CURVE SMOOTH",
"330 -25 OFFCURVE",
"324 9 OFFCURVE",
"313 26 CURVE",
"317 57 OFFCURVE",
"332 115 OFFCURVE",
"351 160 CURVE SMOOTH",
"429 342 OFFCURVE",
"337 346 OFFCURVE",
"298 328 CURVE SMOOTH",
"228 297 OFFCURVE",
"171 262 OFFCURVE",
"116 208 CURVE"
);
}
);
width = 389;
}
);
note = h;
unicode = 0068;
},
{
glyphname = i;
layers = (
{
hints = (
{
horizontal = 1;
place = "{380, 89}";
type = Stem;
},
{
place = "{53, 44}";
type = Stem;
},
{
place = "{195, 67}";
type = Stem;
}
);
layerId = "34A4CA4C-C6E5-4C7E-9ECD-8F87FE1EC3A4";
paths = (
{
closed = 1;
nodes = (
"195 418 LINE",
"190 398 OFFCURVE",
"213 371 OFFCURVE",
"223 383 CURVE SMOOTH",
"244 409 OFFCURVE",
"255 435 OFFCURVE",
"259 441 CURVE SMOOTH",
"271 462 OFFCURVE",
"238 478 OFFCURVE",
"222 463 CURVE SMOOTH",
"209 450 OFFCURVE",
"201 438 OFFCURVE",
"196 418 CURVE"
);
},
{
closed = 1;
nodes = (
"184 311 OFFCURVE",
"130 325 OFFCURVE",
"121 294 CURVE SMOOTH",
"92 195 OFFCURVE",
"63 172 OFFCURVE",
"53 67 CURVE SMOOTH",
"48 18 OFFCURVE",
"95 6 OFFCURVE",
"113 18 CURVE SMOOTH",
"142 39 OFFCURVE",
"97 63 OFFCURVE",
"97 68 CURVE SMOOTH",
"103 162 OFFCURVE",
"140 169 OFFCURVE",
"175 281 CURVE SMOOTH"
);
}
);
width = 199;
}
);
note = i;
unicode = 0069;
},
{
color = 11;
glyphname = idotless;
lastChange = "2021-11-22 20:37:43 +0000";
layers = (
{
hints = (
{
horizontal = 1;
place = "{14, 297}";
type = Stem;
},
{
place = "{53, 44}";
type = Stem;
}
);
layerId = "34A4CA4C-C6E5-4C7E-9ECD-8F87FE1EC3A4";
paths = (
{
closed = 1;
nodes = (
"184 311 OFFCURVE",
"130 325 OFFCURVE",
"121 294 CURVE SMOOTH",
"92 195 OFFCURVE",
"63 172 OFFCURVE",
"53 67 CURVE SMOOTH",
"48 18 OFFCURVE",
"95 6 OFFCURVE",
"113 18 CURVE SMOOTH",
"142 39 OFFCURVE",
"97 63 OFFCURVE",
"97 68 CURVE SMOOTH",
"103 162 OFFCURVE",
"140 169 OFFCURVE",
"175 281 CURVE SMOOTH"
);
}
);
width = 199;
}
);
note = dotlessi;
unicode = 0131;
},
{
glyphname = j;
layers = (
{
hints = (
{
horizontal = 1;
place = "{-256, 41}";
type = Stem;
},
{
horizontal = 1;
place = "{380, 89}";
type = Stem;
},
{
place = "{-145, 431}";
type = Stem;
},
{
place = "{219, 67}";
type = Stem;
}
);
layerId = "34A4CA4C-C6E5-4C7E-9ECD-8F87FE1EC3A4";
paths = (
{
closed = 1;
nodes = (
"219 418 LINE",
"214 398 OFFCURVE",
"237 371 OFFCURVE",
"247 383 CURVE SMOOTH",
"268 409 OFFCURVE",
"279 435 OFFCURVE",
"283 441 CURVE SMOOTH",
"295 462 OFFCURVE",
"262 478 OFFCURVE",
"246 463 CURVE SMOOTH",
"233 450 OFFCURVE",
"225 438 OFFCURVE",
"220 418 CURVE"
);
},
{
closed = 1;
nodes = (
"69 -148 OFFCURVE",
"167 182 OFFCURVE",
"197 268 CURVE SMOOTH",
"208 298 OFFCURVE",
"155 318 OFFCURVE",
"145 288 CURVE SMOOTH",
"140 275 OFFCURVE",
"126 263 OFFCURVE",
"122 246 CURVE SMOOTH",
"114 215 OFFCURVE",
"121 173 OFFCURVE",
"107 136 CURVE SMOOTH",
"72 45 OFFCURVE",
"16 -139 OFFCURVE",
"-27 -192 CURVE SMOOTH",
"-44 -212 OFFCURVE",
"-57 -220 OFFCURVE",
"-80 -212 CURVE SMOOTH",
"-93 -207 OFFCURVE",
"-109 -178 OFFCURVE",
"-119 -176 CURVE SMOOTH",
"-148 -172 OFFCURVE",
"-146 -168 OFFCURVE",
"-145 -203 CURVE SMOOTH",
"-144 -223 OFFCURVE",
"-134 -240 OFFCURVE",
"-107 -248 CURVE SMOOTH",
"-64 -260 OFFCURVE",
"-38 -260 OFFCURVE",
"-14 -235 CURVE SMOOTH"
);
}
);
width = 232;
}
);
note = j;
unicode = 006A;
},
{
color = 11;
glyphname = jdotless;
lastChange = "2021-11-22 20:37:43 +0000";
layers = (
{
hints = (
{
horizontal = 1;
place = "{-256, 41}";
type = Stem;
},
{
horizontal = 1;
place = "{380, 89}";
type = Stem;
},
{
place = "{-145, 431}";
type = Stem;
},
{
place = "{219, 67}";
type = Stem;
}
);
layerId = "34A4CA4C-C6E5-4C7E-9ECD-8F87FE1EC3A4";
paths = (
{
closed = 1;
nodes = (
"69 -148 OFFCURVE",
"167 182 OFFCURVE",
"197 268 CURVE SMOOTH",
"208 298 OFFCURVE",
"155 318 OFFCURVE",
"145 288 CURVE SMOOTH",
"140 275 OFFCURVE",
"126 263 OFFCURVE",
"122 246 CURVE SMOOTH",
"114 215 OFFCURVE",
"121 173 OFFCURVE",
"107 136 CURVE SMOOTH",
"72 45 OFFCURVE",
"16 -139 OFFCURVE",
"-27 -192 CURVE SMOOTH",
"-44 -212 OFFCURVE",
"-57 -220 OFFCURVE",
"-80 -212 CURVE SMOOTH",
"-93 -207 OFFCURVE",
"-109 -178 OFFCURVE",
"-119 -176 CURVE SMOOTH",
"-148 -172 OFFCURVE",
"-146 -168 OFFCURVE",
"-145 -203 CURVE SMOOTH",
"-144 -223 OFFCURVE",
"-134 -240 OFFCURVE",
"-107 -248 CURVE SMOOTH",
"-64 -260 OFFCURVE",
"-38 -260 OFFCURVE",
"-14 -235 CURVE SMOOTH"
);
}
);
width = 232;
}
);
unicode = 0237;
},
{
glyphname = k;
layers = (
{
hints = (
{
horizontal = 1;
place = "{-30, 579}";
type = Stem;
},
{
place = "{37, 344}";
type = Stem;
}
);
layerId = "34A4CA4C-C6E5-4C7E-9ECD-8F87FE1EC3A4";
paths = (
{
closed = 1;
nodes = (
"105 117 LINE",
"136 68 OFFCURVE",
"227 21 OFFCURVE",
"272 5 CURVE SMOOTH",
"303 -6 OFFCURVE",
"337 34 OFFCURVE",
"266 57 CURVE SMOOTH",
"231 69 OFFCURVE",
"152 126 OFFCURVE",
"144 154 CURVE",
"135 150 OFFCURVE",
"158 182 OFFCURVE",
"186 193 CURVE",
"232 217 OFFCURVE",
"310 251 OFFCURVE",
"348 255 CURVE SMOOTH",
"363 257 OFFCURVE",
"380 262 OFFCURVE",
"381 286 CURVE SMOOTH",
"383 318 OFFCURVE",
"358 307 OFFCURVE",
"341 305 CURVE SMOOTH",
"290 297 OFFCURVE",
"213 261 OFFCURVE",
"165 237 CURVE SMOOTH",
"156 232 OFFCURVE",
"145 226 OFFCURVE",
"134 219 CURVE",
"172 332 OFFCURVE",
"234 456 OFFCURVE",
"275 505 CURVE SMOOTH",
"317 557 OFFCURVE",
"242 565 OFFCURVE",
"218 519 CURVE SMOOTH",
"161 411 OFFCURVE",
"81 274 OFFCURVE",
"38 27 CURVE SMOOTH",
"28 -31 OFFCURVE",
"78 -37 OFFCURVE",
"96 -25 CURVE SMOOTH",
"125 -4 OFFCURVE",
"90 11 OFFCURVE",
"90 22 CURVE SMOOTH",
"89 44 OFFCURVE",
"99 87 OFFCURVE",
"104 117 CURVE"
);
}
);
width = 340;
}
);
note = k;
unicode = 006B;
},
{
glyphname = kgreenlandic;
lastChange = "2021-11-22 19:58:24 +0000";
layers = (
{
hints = (
{
horizontal = 1;
place = "{-30, 579}";
type = Stem;
},
{
place = "{37, 344}";
type = Stem;
}
);
layerId = "34A4CA4C-C6E5-4C7E-9ECD-8F87FE1EC3A4";
paths = (
{
closed = 1;
nodes = (
"136 68 OFFCURVE",
"254 -11 OFFCURVE",
"299 -27 CURVE SMOOTH",
"330 -38 OFFCURVE",
"364 8 OFFCURVE",
"293 31 CURVE SMOOTH",
"258 43 OFFCURVE",
"152 126 OFFCURVE",
"132 172 CURVE",
"152 185 OFFCURVE",
"242 226 OFFCURVE",
"260 236 CURVE SMOOTH",
"299 257 OFFCURVE",
"334 262 OFFCURVE",
"335 286 CURVE SMOOTH",
"337 318 OFFCURVE",
"312 311 OFFCURVE",
"295 305 CURVE SMOOTH",
"262 294 OFFCURVE",
"169 242 OFFCURVE",
"134 219 CURVE",
"148 262 OFFCURVE",
"188 374 OFFCURVE",
"213 404 CURVE SMOOTH",
"255 456 OFFCURVE",
"180 464 OFFCURVE",
"156 418 CURVE SMOOTH",
"125 361 OFFCURVE",
"81 274 OFFCURVE",
"38 27 CURVE SMOOTH",
"28 -31 OFFCURVE",
"78 -37 OFFCURVE",
"96 -25 CURVE SMOOTH",
"125 -4 OFFCURVE",
"90 11 OFFCURVE",
"90 22 CURVE SMOOTH",
"89 44 OFFCURVE",
"99 87 OFFCURVE",
"104 117 CURVE"
);
}
);
width = 340;
}
);
unicode = 0138;
},
{
glyphname = l;
layers = (
{
hints = (
{
horizontal = 1;
place = "{594, -20}";
target = down;
type = TopGhost;
}
);
layerId = "34A4CA4C-C6E5-4C7E-9ECD-8F87FE1EC3A4";
paths = (
{
closed = 1;
nodes = (
"297 595 OFFCURVE",
"260 605 OFFCURVE",
"245 577 CURVE SMOOTH",
"188 469 OFFCURVE",
"51 129 OFFCURVE",
"41 24 CURVE SMOOTH",
"37 -25 OFFCURVE",
"84 -37 OFFCURVE",
"102 -25 CURVE SMOOTH",
"131 -4 OFFCURVE",
"85 17 OFFCURVE",
"86 37 CURVE SMOOTH",
"91 105 OFFCURVE",
"160 290 OFFCURVE",
"225 428 CURVE SMOOTH",
"239 458 OFFCURVE",
"261 479 OFFCURVE",
"274 501 CURVE SMOOTH",
"283 516 OFFCURVE",
"291 551 OFFCURVE",
"293 564 CURVE SMOOTH"
);
}
);
width = 212;
}
);
note = l;
unicode = 006C;
},
{
glyphname = m;
layers = (
{
hints = (
{
place = "{20, 36}";
type = Stem;
}
);
layerId = "34A4CA4C-C6E5-4C7E-9ECD-8F87FE1EC3A4";
paths = (
{
closed = 1;
nodes = (
"318 162 LINE SMOOTH",
"318 157 OFFCURVE",
"318 154 OFFCURVE",
"318 153 CURVE",
"317 153 OFFCURVE",
"314 144 OFFCURVE",
"303 81 CURVE SMOOTH",
"297 46 OFFCURVE",
"333 42 OFFCURVE",
"351 63 CURVE SMOOTH",
"360 73 OFFCURVE",
"377 108 OFFCURVE",
"396 129 CURVE SMOOTH",
"448 186 OFFCURVE",
"539 257 OFFCURVE",
"595 274 CURVE SMOOTH",
"627 284 OFFCURVE",
"633 268 OFFCURVE",
"597 188 CURVE SMOOTH",
"571 130 OFFCURVE",
"535 -9 OFFCURVE",
"606 -14 CURVE SMOOTH",
"629 -16 OFFCURVE",
"622 20 OFFCURVE",
"610 38 CURVE",
"615 72 OFFCURVE",
"630 132 OFFCURVE",
"650 179 CURVE SMOOTH",
"733 371 OFFCURVE",
"623 339 OFFCURVE",
"582 321 CURVE SMOOTH",
"509 288 OFFCURVE",
"479 268 OFFCURVE",
"421 210 CURVE SMOOTH",
"403 192 OFFCURVE",
"392 178 OFFCURVE",
"373 163 CURVE",
"374 321 OFFCURVE",
"315 306 OFFCURVE",
"276 288 CURVE SMOOTH",
"207 257 OFFCURVE",
"182 244 OFFCURVE",
"127 189 CURVE SMOOTH",
"109 172 OFFCURVE",
"101 167 OFFCURVE",
"86 144 CURVE",
"92 199 OFFCURVE",
"137 249 OFFCURVE",
"138 262 CURVE SMOOTH",
"142 294 OFFCURVE",
"104 304 OFFCURVE",
"89 276 CURVE SMOOTH",
"60 220 OFFCURVE",
"20 127 OFFCURVE",
"20 67 CURVE SMOOTH",
"20 33 OFFCURVE",
"39 23 OFFCURVE",
"56 43 CURVE",
"56 43 OFFCURVE",
"60 70 OFFCURVE",
"94 107 CURVE SMOOTH",
"142 159 OFFCURVE",
"229 232 OFFCURVE",
"283 249 CURVE SMOOTH",
"313 259 OFFCURVE",
"318 211 OFFCURVE",
"318 163 CURVE SMOOTH"
);
}
);
width = 699;
}
);
note = m;
unicode = 006D;
},
{
glyphname = n;
layers = (
{
hints = (
{
horizontal = 1;
place = "{-9, 20}";
type = Stem;
},
{
place = "{341, 56}";
type = Stem;
}
);
layerId = "34A4CA4C-C6E5-4C7E-9ECD-8F87FE1EC3A4";
paths = (
{
closed = 1;
nodes = (
"109 172 OFFCURVE",
"101 167 OFFCURVE",
"86 144 CURVE",
"98 192 OFFCURVE",
"105 215 OFFCURVE",
"118 237 CURVE SMOOTH",
"127 252 OFFCURVE",
"135 280 OFFCURVE",
"137 293 CURVE SMOOTH",
"141 325 OFFCURVE",
"104 335 OFFCURVE",
"89 307 CURVE SMOOTH",
"60 251 OFFCURVE",
"38 176 OFFCURVE",
"20 67 CURVE SMOOTH",
"14 33 OFFCURVE",
"41 22 OFFCURVE",
"56 43 CURVE",
"56 43 OFFCURVE",
"63 64 OFFCURVE",
"97 101 CURVE SMOOTH",
"145 153 OFFCURVE",
"290 259 OFFCURVE",
"344 276 CURVE SMOOTH",
"375 285 OFFCURVE",
"401 271 OFFCURVE",
"367 195 CURVE SMOOTH",
"351 158 OFFCURVE",
"342 91 OFFCURVE",
"341 56 CURVE SMOOTH",
"340 16 OFFCURVE",
"365 -12 OFFCURVE",
"386 -8 CURVE SMOOTH",
"403 -4 OFFCURVE",
"396 18 OFFCURVE",
"397 51 CURVE SMOOTH",
"398 88 OFFCURVE",
"402 143 OFFCURVE",
"422 189 CURVE SMOOTH",
"500 372 OFFCURVE",
"371 338 OFFCURVE",
"332 320 CURVE SMOOTH",
"262 289 OFFCURVE",
"181 244 OFFCURVE",
"126 189 CURVE SMOOTH"
);
}
);
width = 460;
}
);
note = n;
unicode = 006E;
},
{
glyphname = eng;
lastChange = "2021-11-22 20:08:29 +0000";
layers = (
{
hints = (
{
horizontal = 1;
place = "{-9, 20}";
type = Stem;
},
{
place = "{341, 56}";
type = Stem;
}
);
layerId = "34A4CA4C-C6E5-4C7E-9ECD-8F87FE1EC3A4";
paths = (
{
closed = 1;
nodes = (
"262 289 OFFCURVE",
"181 244 OFFCURVE",
"126 189 CURVE SMOOTH",
"109 172 OFFCURVE",
"101 167 OFFCURVE",
"86 144 CURVE",
"98 192 OFFCURVE",
"105 215 OFFCURVE",
"118 237 CURVE SMOOTH",
"128 254 OFFCURVE",
"137 287 OFFCURVE",
"137 297 CURVE SMOOTH",
"137 314 OFFCURVE",
"126 323 OFFCURVE",
"114 323 CURVE SMOOTH",
"105 323 OFFCURVE",
"95 318 OFFCURVE",
"89 307 CURVE SMOOTH",
"60 251 OFFCURVE",
"38 176 OFFCURVE",
"20 67 CURVE SMOOTH",
"16 45 OFFCURVE",
"26 32 OFFCURVE",
"38 32 CURVE SMOOTH",
"44 32 OFFCURVE",
"51 36 OFFCURVE",
"56 43 CURVE",
"56 43 OFFCURVE",
"63 64 OFFCURVE",
"97 101 CURVE SMOOTH",
"145 153 OFFCURVE",
"290 259 OFFCURVE",
"344 276 CURVE SMOOTH",
"349 278 OFFCURVE",
"354 278 OFFCURVE",
"359 278 CURVE SMOOTH",
"373 278 OFFCURVE",
"383 271 OFFCURVE",
"383 252 CURVE SMOOTH",
"383 249 OFFCURVE",
"383 245 OFFCURVE",
"382 241 CURVE SMOOTH",
"383 245 OFFCURVE",
"337 96 OFFCURVE",
"321 44 CURVE SMOOTH",
"294 -47 OFFCURVE",
"259 -151 OFFCURVE",
"227 -192 CURVE SMOOTH",
"214 -207 OFFCURVE",
"204 -215 OFFCURVE",
"190 -215 CURVE SMOOTH",
"185 -215 OFFCURVE",
"180 -214 OFFCURVE",
"174 -212 CURVE SMOOTH",
"161 -207 OFFCURVE",
"145 -178 OFFCURVE",
"135 -176 CURVE SMOOTH",
"126 -175 OFFCURVE",
"120 -174 OFFCURVE",
"116 -174 CURVE SMOOTH",
"110 -174 OFFCURVE",
"109 -176 OFFCURVE",
"109 -186 CURVE SMOOTH",
"109 -190 OFFCURVE",
"109 -196 OFFCURVE",
"109 -203 CURVE SMOOTH",
"110 -223 OFFCURVE",
"120 -240 OFFCURVE",
"147 -248 CURVE SMOOTH",
"165 -253 OFFCURVE",
"179 -256 OFFCURVE",
"192 -256 CURVE SMOOTH",
"211 -256 OFFCURVE",
"226 -250 OFFCURVE",
"240 -235 CURVE SMOOTH",
"279 -194 OFFCURVE",
"321 -115 OFFCURVE",
"371 28 CURVE SMOOTH",
"387 75 OFFCURVE",
"405 129 OFFCURVE",
"422 189 CURVE SMOOTH",
"432 223 OFFCURVE",
"436 249 OFFCURVE",
"436 269 CURVE SMOOTH",
"436 319 OFFCURVE",
"411 333 OFFCURVE",
"385 333 CURVE SMOOTH",
"366 333 OFFCURVE",
"345 326 OFFCURVE",
"332 320 CURVE SMOOTH"
);
}
);
width = 460;
}
);
unicode = 014B;
},
{
glyphname = o;
layers = (
{
hints = (
{
horizontal = 1;
place = "{21, 44}";
type = Stem;
},
{
horizontal = 1;
place = "{275, -20}";
target = down;
type = TopGhost;
},
{
place = "{26, 47}";
type = Stem;
},
{
place = "{182, 65}";
type = Stem;
},
{
place = "{305, 55}";
type = Stem;
},
{
horizontal = 1;
place = "{228, 86}";
type = Stem;
},
{
horizontal = 1;
place = "{228, 47}";
type = Stem;
}
);
layerId = "34A4CA4C-C6E5-4C7E-9ECD-8F87FE1EC3A4";
paths = (
{
closed = 1;
nodes = (
"215 274 LINE SMOOTH",
"245 268 OFFCURVE",
"261 303 OFFCURVE",
"231 310 CURVE SMOOTH",
"152 330 OFFCURVE",
"65 271 OFFCURVE",
"37 197 CURVE SMOOTH",
"8 119 OFFCURVE",
"39 31 OFFCURVE",
"112 21 CURVE SMOOTH",
"205 9 OFFCURVE",
"280 69 OFFCURVE",
"321 119 CURVE",
"393 192 OFFCURVE",
"358 286 OFFCURVE",
"269 275 CURVE SMOOTH",
"242 272 OFFCURVE",
"216 267 OFFCURVE",
"197 260 CURVE SMOOTH",
"168 249 OFFCURVE",
"185 205 OFFCURVE",
"214 216 CURVE SMOOTH",
"229 222 OFFCURVE",
"249 225 OFFCURVE",
"271 228 CURVE SMOOTH",
"290 230 OFFCURVE",
"328 212 OFFCURVE",
"286 142 CURVE",
"254 99 OFFCURVE",
"186 56 OFFCURVE",
"121 65 CURVE",
"89 65 OFFCURVE",
"59 121 OFFCURVE",
"80 180 CURVE SMOOTH",
"100 236 OFFCURVE",
"166 283 OFFCURVE",
"216 274 CURVE SMOOTH"
);
}
);
width = 380;
}
);
note = o;
unicode = 006F;
},
{
glyphname = oslash;
layers = (
{
hints = (
{
horizontal = 1;
place = "{-100, 18}";
type = Stem;
},
{
horizontal = 1;
place = "{275, -20}";
target = down;
type = TopGhost;
},
{
horizontal = 1;
place = "{390, 13}";
type = Stem;
},
{
place = "{27, 46}";
type = Stem;
},
{
place = "{305, 55}";
type = Stem;
},
{
horizontal = 1;
place = "{274, 40}";
type = Stem;
},
{
horizontal = 1;
place = "{260, -20}";
target = down;
type = TopGhost;
}
);
layerId = "34A4CA4C-C6E5-4C7E-9ECD-8F87FE1EC3A4";
paths = (
{
closed = 1;
nodes = (
"342 416 OFFCURVE",
"290 395 OFFCURVE",
"290 395 CURVE",
"238 307 LINE",
"231 310 LINE",
"152 330 OFFCURVE",
"65 271 OFFCURVE",
"37 197 CURVE SMOOTH",
"13 133 OFFCURVE",
"30 62 OFFCURVE",
"77 33 CURVE",
"9 -82 LINE",
"9 -82 OFFCURVE",
"30 -118 OFFCURVE",
"43 -88 CURVE",
"58 -72 OFFCURVE",
"85 -31 OFFCURVE",
"117 20 CURVE",
"208 11 OFFCURVE",
"281 70 OFFCURVE",
"321 119 CURVE",
"393 192 OFFCURVE",
"358 286 OFFCURVE",
"269 275 CURVE SMOOTH",
"268 275 LINE",
"306 341 OFFCURVE",
"334 390 OFFCURVE",
"334 390 CURVE"
);
},
{
closed = 1;
nodes = (
"271 228 LINE SMOOTH",
"290 230 OFFCURVE",
"328 212 OFFCURVE",
"286 142 CURVE",
"258 104 OFFCURVE",
"202 66 OFFCURVE",
"144 64 CURVE",
"175 115 OFFCURVE",
"208 171 OFFCURVE",
"238 223 CURVE"
);
},
{
closed = 1;
nodes = (
"215 274 LINE",
"216 274 OFFCURVE",
"217 273 OFFCURVE",
"218 273 CURVE",
"213 265 LINE",
"207 264 OFFCURVE",
"202 262 OFFCURVE",
"197 260 CURVE SMOOTH",
"179 253 OFFCURVE",
"178 233 OFFCURVE",
"188 222 CURVE",
"100 73 LINE",
"78 90 OFFCURVE",
"64 134 OFFCURVE",
"80 180 CURVE SMOOTH",
"100 236 OFFCURVE",
"166 283 OFFCURVE",
"216 274 CURVE SMOOTH"
);
}
);
width = 380;
}
);
note = oslash;
unicode = 00F8;
},
{
glyphname = oe;
layers = (
{
hints = (
{
horizontal = 1;
place = "{21, 44}";
type = Stem;
},
{
horizontal = 1;
place = "{134, 46}";
type = Stem;
},
{
horizontal = 1;
place = "{228, 47}";
type = Stem;
},
{
horizontal = 1;
place = "{315, 47}";
type = Stem;
},
{
place = "{26, 47}";
type = Stem;
},
{
place = "{182, 65}";
type = Stem;
},
{
place = "{289, 54}";
type = Stem;
},
{
place = "{601, 58}";
type = Stem;
},
{
horizontal = 1;
place = "{228, 86}";
type = Stem;
}
);
layerId = "34A4CA4C-C6E5-4C7E-9ECD-8F87FE1EC3A4";
paths = (
{
closed = 1;
nodes = (
"345 137 LINE",
"401 130 OFFCURVE",
"492 137 OFFCURVE",
"554 162 CURVE SMOOTH",
"600 180 OFFCURVE",
"659 218 OFFCURVE",
"659 273 CURVE SMOOTH",
"659 363 OFFCURVE",
"556 377 OFFCURVE",
"464 351 CURVE SMOOTH",
"426 340 OFFCURVE",
"375 307 OFFCURVE",
"338 256 CURVE",
"322 271 OFFCURVE",
"299 279 OFFCURVE",
"269 275 CURVE SMOOTH",
"242 272 OFFCURVE",
"216 267 OFFCURVE",
"197 260 CURVE SMOOTH",
"168 249 OFFCURVE",
"185 205 OFFCURVE",
"214 216 CURVE SMOOTH",
"229 222 OFFCURVE",
"249 225 OFFCURVE",
"271 228 CURVE SMOOTH",
"284 230 OFFCURVE",
"304 222 OFFCURVE",
"305 197 CURVE",
"299 183 OFFCURVE",
"295 168 OFFCURVE",
"292 153 CURVE",
"290 149 OFFCURVE",
"288 146 OFFCURVE",
"286 142 CURVE",
"254 99 OFFCURVE",
"186 56 OFFCURVE",
"121 65 CURVE",
"89 65 OFFCURVE",
"59 121 OFFCURVE",
"80 180 CURVE SMOOTH",
"100 236 OFFCURVE",
"166 283 OFFCURVE",
"216 274 CURVE SMOOTH",
"215 274 LINE SMOOTH",
"245 268 OFFCURVE",
"261 303 OFFCURVE",
"231 310 CURVE SMOOTH",
"152 330 OFFCURVE",
"65 271 OFFCURVE",
"37 197 CURVE SMOOTH",
"8 119 OFFCURVE",
"39 31 OFFCURVE",
"112 21 CURVE SMOOTH",
"185 11 OFFCURVE",
"246 46 OFFCURVE",
"289 86 CURVE",
"297 25 OFFCURVE",
"333 -31 OFFCURVE",
"405 -54 CURVE SMOOTH",
"442 -66 OFFCURVE",
"469 -44 OFFCURVE",
"412 -14 CURVE",
"387 6 OFFCURVE",
"335 51 OFFCURVE",
"343 121 CURVE SMOOTH",
"343 126 OFFCURVE",
"344 131 OFFCURVE",
"345 136 CURVE SMOOTH"
);
},
{
closed = 1;
nodes = (
"386 253 OFFCURVE",
"441 295 OFFCURVE",
"469 303 CURVE SMOOTH",
"534 323 OFFCURVE",
"595 319 OFFCURVE",
"601 284 CURVE SMOOTH",
"607 244 OFFCURVE",
"574 216 OFFCURVE",
"542 201 CURVE SMOOTH",
"484 175 OFFCURVE",
"403 177 OFFCURVE",
"358 183 CURVE"
);
}
);
width = 658;
}
);
note = oe;
unicode = 0153;
},
{
glyphname = p;
layers = (
{
hints = (
{
horizontal = 1;
place = "{366, -20}";
target = down;
type = TopGhost;
}
);
layerId = "34A4CA4C-C6E5-4C7E-9ECD-8F87FE1EC3A4";
paths = (
{
closed = 1;
nodes = (
"276 334 OFFCURVE",
"202 282 OFFCURVE",
"133 185 CURVE",
"152 223 OFFCURVE",
"174 261 OFFCURVE",
"193 285 CURVE SMOOTH",
"204 299 OFFCURVE",
"213 323 OFFCURVE",
"214 336 CURVE SMOOTH",
"218 368 OFFCURVE",
"180 378 OFFCURVE",
"165 350 CURVE SMOOTH",
"108 242 OFFCURVE",
"-30 -98 OFFCURVE",
"-39 -203 CURVE SMOOTH",
"-44 -253 OFFCURVE",
"4 -265 OFFCURVE",
"22 -253 CURVE SMOOTH",
"51 -232 OFFCURVE",
"6 -211 OFFCURVE",
"7 -191 CURVE SMOOTH",
"10 -151 OFFCURVE",
"45 -34 OFFCURVE",
"90 78 CURVE",
"185 212 OFFCURVE",
"310 303 OFFCURVE",
"379 312 CURVE SMOOTH",
"425 318 OFFCURVE",
"431 277 OFFCURVE",
"418 239 CURVE",
"371 142 OFFCURVE",
"299 107 OFFCURVE",
"242 77 CURVE SMOOTH",
"217 64 OFFCURVE",
"178 68 OFFCURVE",
"160 73 CURVE SMOOTH",
"138 79 OFFCURVE",
"96 -31 OFFCURVE",
"236 28 CURVE SMOOTH",
"325 65 OFFCURVE",
"409 107 OFFCURVE",
"463 218 CURVE",
"493 265 OFFCURVE",
"484 392 OFFCURVE",
"366 359 CURVE SMOOTH"
);
}
);
width = 485;
}
);
note = p;
unicode = 0070;
},
{
glyphname = thorn;
lastChange = "2021-12-21 17:30:08 +0000";
layers = (
{
hints = (
{
horizontal = 1;
place = "{596, -20}";
target = down;
type = TopGhost;
},
{
horizontal = 1;
place = "{366, -20}";
target = down;
type = TopGhost;
}
);
layerId = "34A4CA4C-C6E5-4C7E-9ECD-8F87FE1EC3A4";
paths = (
{
closed = 1;
nodes = (
"284 336 OFFCURVE",
"216 291 OFFCURVE",
"152 211 CURVE",
"188 286 OFFCURVE",
"273 511 OFFCURVE",
"307 609 CURVE",
"307 610 LINE",
"317 640 OFFCURVE",
"265 660 OFFCURVE",
"255 630 CURVE SMOOTH",
"241 591 OFFCURVE",
"230 537 OFFCURVE",
"209 480 CURVE SMOOTH",
"190 431 OFFCURVE",
"166 364 OFFCURVE",
"141 302 CURVE SMOOTH",
"131 279 OFFCURVE",
"101 210 OFFCURVE",
"80 160 CURVE SMOOTH",
"28 22 OFFCURVE",
"-33 -137 OFFCURVE",
"-39 -203 CURVE SMOOTH",
"-44 -253 OFFCURVE",
"4 -265 OFFCURVE",
"22 -253 CURVE SMOOTH",
"51 -232 OFFCURVE",
"6 -211 OFFCURVE",
"7 -191 CURVE SMOOTH",
"10 -151 OFFCURVE",
"45 -34 OFFCURVE",
"90 78 CURVE",
"185 212 OFFCURVE",
"310 303 OFFCURVE",
"379 312 CURVE SMOOTH",
"425 318 OFFCURVE",
"431 277 OFFCURVE",
"418 239 CURVE",
"371 142 OFFCURVE",
"299 107 OFFCURVE",
"242 77 CURVE SMOOTH",
"217 64 OFFCURVE",
"178 68 OFFCURVE",
"160 73 CURVE SMOOTH",
"138 79 OFFCURVE",
"96 -31 OFFCURVE",
"236 28 CURVE SMOOTH",
"325 65 OFFCURVE",
"409 107 OFFCURVE",
"463 218 CURVE",
"493 265 OFFCURVE",
"484 392 OFFCURVE",
"366 359 CURVE SMOOTH"
);
}
);
width = 485;
}
);
note = thorn;
unicode = 00FE;
},
{
glyphname = q;
layers = (
{
hints = (
{
horizontal = 1;
place = "{9, 50}";
type = Stem;
},
{
horizontal = 1;
place = "{332, 52}";
type = Stem;
},
{
place = "{41, 49}";
type = Stem;
}
);
layerId = "34A4CA4C-C6E5-4C7E-9ECD-8F87FE1EC3A4";
paths = (
{
closed = 1;
nodes = (
"198 -266 OFFCURVE",
"249 -286 OFFCURVE",
"260 -256 CURVE SMOOTH",
"273 -218 OFFCURVE",
"284 -164 OFFCURVE",
"306 -107 CURVE SMOOTH",
"340 -16 OFFCURVE",
"390 152 OFFCURVE",
"433 205 CURVE SMOOTH",
"456 234 OFFCURVE",
"410 252 OFFCURVE",
"395 236 CURVE SMOOTH",
"331 169 OFFCURVE",
"286 104 OFFCURVE",
"138 62 CURVE SMOOTH",
"82 46 OFFCURVE",
"84 88 OFFCURVE",
"100 135 CURVE",
"148 232 OFFCURVE",
"226 299 OFFCURVE",
"354 331 CURVE SMOOTH",
"372 336 OFFCURVE",
"417 339 OFFCURVE",
"435 334 CURVE SMOOTH",
"457 329 OFFCURVE",
"466 312 OFFCURVE",
"474 303 CURVE SMOOTH",
"495 279 OFFCURVE",
"532 331 OFFCURVE",
"510 356 CURVE",
"472 388 OFFCURVE",
"414 390 OFFCURVE",
"359 379 CURVE SMOOTH",
"215 351 OFFCURVE",
"110 267 OFFCURVE",
"56 156 CURVE",
"25 108 OFFCURVE",
"33 -19 OFFCURVE",
"151 14 CURVE SMOOTH",
"248 42 OFFCURVE",
"306 85 OFFCURVE",
"351 125 CURVE",
"282 -52 OFFCURVE",
"238 -150 OFFCURVE",
"208 -236 CURVE SMOOTH"
);
}
);
width = 523;
}
);
note = q;
unicode = 0071;
},
{
glyphname = r;
layers = (
{
hints = (
{
horizontal = 1;
place = "{351, -20}";
target = down;
type = TopGhost;
}
);
layerId = "34A4CA4C-C6E5-4C7E-9ECD-8F87FE1EC3A4";
paths = (
{
closed = 1;
nodes = (
"158 178 OFFCURVE",
"242 230 OFFCURVE",
"287 245 CURVE SMOOTH",
"337 262 OFFCURVE",
"366 240 OFFCURVE",
"378 201 CURVE SMOOTH",
"389 163 OFFCURVE",
"423 172 OFFCURVE",
"423 191 CURVE SMOOTH",
"423 313 OFFCURVE",
"311 305 OFFCURVE",
"272 287 CURVE SMOOTH",
"211 259 OFFCURVE",
"181 233 OFFCURVE",
"135 188 CURVE",
"147 212 OFFCURVE",
"167 285 OFFCURVE",
"180 307 CURVE SMOOTH",
"205 351 OFFCURVE",
"141 372 OFFCURVE",
"126 321 CURVE SMOOTH",
"111 270 OFFCURVE",
"68 155 OFFCURVE",
"51 67 CURVE SMOOTH",
"40 12 OFFCURVE",
"75 8 OFFCURVE",
"93 23 CURVE SMOOTH",
"107 35 OFFCURVE",
"96 63 OFFCURVE",
"96 68 CURVE SMOOTH",
"96 82 OFFCURVE",
"101 94 OFFCURVE",
"101 104 CURVE"
);
}
);
width = 440;
}
);
note = r;
unicode = 0072;
},
{
glyphname = s;
layers = (
{
hints = (
{
horizontal = 1;
place = "{-39, 45}";
type = Stem;
},
{
horizontal = 1;
place = "{364, 54}";
type = Stem;
},
{
place = "{245, 60}";
type = Stem;
}
);
layerId = "34A4CA4C-C6E5-4C7E-9ECD-8F87FE1EC3A4";
paths = (
{
closed = 1;
nodes = (
"285 348 LINE",
"324 320 OFFCURVE",
"348 374 OFFCURVE",
"313 398 CURVE SMOOTH",
"275 425 OFFCURVE",
"224 422 OFFCURVE",
"179 408 CURVE SMOOTH",
"146 398 OFFCURVE",
"85 369 OFFCURVE",
"84 322 CURVE SMOOTH",
"83 250 OFFCURVE",
"181 228 OFFCURVE",
"226 187 CURVE SMOOTH",
"255 162 OFFCURVE",
"248 131 OFFCURVE",
"226 103 CURVE SMOOTH",
"202 71 OFFCURVE",
"167 48 OFFCURVE",
"108 27 CURVE SMOOTH",
"68 13 OFFCURVE",
"33 4 OFFCURVE",
"18 6 CURVE SMOOTH",
"-14 9 OFFCURVE",
"-15 -30 OFFCURVE",
"4 -35 CURVE SMOOTH",
"43 -44 OFFCURVE",
"65 -38 OFFCURVE",
"117 -21 CURVE SMOOTH",
"182 0 OFFCURVE",
"232 30 OFFCURVE",
"282 90 CURVE SMOOTH",
"326 144 OFFCURVE",
"302 203 OFFCURVE",
"254 232 CURVE SMOOTH",
"206 261 OFFCURVE",
"133 296 OFFCURVE",
"140 322 CURVE SMOOTH",
"146 345 OFFCURVE",
"178 353 OFFCURVE",
"206 360 CURVE SMOOTH",
"238 368 OFFCURVE",
"265 363 OFFCURVE",
"286 348 CURVE"
);
}
);
width = 357;
}
);
note = s;
unicode = 0073;
},
{
glyphname = germandbls;
lastChange = "2021-11-22 20:08:29 +0000";
layers = (
{
hints = (
{
horizontal = 1;
place = "{28, 65}";
type = Stem;
},
{
horizontal = 1;
place = "{336, 64}";
type = Stem;
},
{
horizontal = 1;
place = "{579, 68}";
type = Stem;
},
{
horizontal = 1;
place = "{624, -20}";
target = down;
type = TopGhost;
},
{
place = "{34, 75}";
type = Stem;
},
{
place = "{47, 45}";
type = Stem;
},
{
place = "{322, 77}";
type = Stem;
}
);
layerId = "34A4CA4C-C6E5-4C7E-9ECD-8F87FE1EC3A4";
paths = (
{
closed = 1;
nodes = (
"430 348 LINE",
"438 342 OFFCURVE",
"445 340 OFFCURVE",
"452 340 CURVE SMOOTH",
"466 340 OFFCURVE",
"475 352 OFFCURVE",
"475 367 CURVE SMOOTH",
"475 369 OFFCURVE",
"475 372 OFFCURVE",
"474 375 CURVE",
"478 390 OFFCURVE",
"483 415 OFFCURVE",
"483 445 CURVE SMOOTH",
"483 484 OFFCURVE",
"474 532 OFFCURVE",
"443 581 CURVE SMOOTH",
"425 610 OFFCURVE",
"391 623 OFFCURVE",
"356 623 CURVE SMOOTH",
"309 623 OFFCURVE",
"258 600 OFFCURVE",
"232 558 CURVE SMOOTH",
"214 530 OFFCURVE",
"185 467 OFFCURVE",
"155 391 CURVE",
"96 386 LINE SMOOTH",
"84 385 OFFCURVE",
"66 366 OFFCURVE",
"71 349 CURVE",
"72 341 OFFCURVE",
"129 341 OFFCURVE",
"135 341 CURVE SMOOTH",
"136 341 LINE",
"107 263 OFFCURVE",
"68 150 OFFCURVE",
"33 58 CURVE SMOOTH",
"22 29 OFFCURVE",
"8 -12 OFFCURVE",
"-6 -49 CURVE SMOOTH",
"-20 -88 OFFCURVE",
"-55 -151 OFFCURVE",
"-127 -151 CURVE SMOOTH",
"-151 -151 OFFCURVE",
"-162 -161 OFFCURVE",
"-162 -172 CURVE SMOOTH",
"-162 -183 OFFCURVE",
"-149 -195 OFFCURVE",
"-127 -195 CURVE SMOOTH",
"-49 -195 OFFCURVE",
"1 -168 OFFCURVE",
"39 -67 CURVE SMOOTH",
"51 -35 OFFCURVE",
"63 -2 OFFCURVE",
"72 21 CURVE SMOOTH",
"132 183 OFFCURVE",
"201 425 OFFCURVE",
"260 511 CURVE SMOOTH",
"279 540 OFFCURVE",
"317 580 OFFCURVE",
"343 580 CURVE SMOOTH",
"373 580 OFFCURVE",
"395 566 OFFCURVE",
"412 535 CURVE SMOOTH",
"427 508 OFFCURVE",
"437 475 OFFCURVE",
"437 432 CURVE SMOOTH",
"437 425 OFFCURVE",
"437 418 OFFCURVE",
"436 410 CURVE",
"421 416 OFFCURVE",
"404 418 OFFCURVE",
"388 418 CURVE SMOOTH",
"366 418 OFFCURVE",
"345 414 OFFCURVE",
"324 408 CURVE SMOOTH",
"291 398 OFFCURVE",
"229 369 OFFCURVE",
"229 321 CURVE SMOOTH",
"229 250 OFFCURVE",
"326 228 OFFCURVE",
"371 187 CURVE SMOOTH",
"385 175 OFFCURVE",
"390 162 OFFCURVE",
"390 149 CURVE SMOOTH",
"390 134 OFFCURVE",
"383 118 OFFCURVE",
"371 103 CURVE SMOOTH",
"347 71 OFFCURVE",
"312 48 OFFCURVE",
"253 27 CURVE SMOOTH",
"213 13 OFFCURVE",
"178 4 OFFCURVE",
"163 6 CURVE SMOOTH",
"145 8 OFFCURVE",
"136 -4 OFFCURVE",
"136 -16 CURVE SMOOTH",
"136 -25 OFFCURVE",
"141 -33 OFFCURVE",
"149 -35 CURVE SMOOTH",
"161 -38 OFFCURVE",
"172 -39 OFFCURVE",
"182 -39 CURVE SMOOTH",
"205 -39 OFFCURVE",
"226 -33 OFFCURVE",
"262 -21 CURVE SMOOTH",
"327 0 OFFCURVE",
"377 30 OFFCURVE",
"427 90 CURVE SMOOTH",
"443 110 OFFCURVE",
"450 130 OFFCURVE",
"450 150 CURVE SMOOTH",
"450 183 OFFCURVE",
"429 214 OFFCURVE",
"399 232 CURVE SMOOTH",
"351 261 OFFCURVE",
"278 296 OFFCURVE",
"285 322 CURVE SMOOTH",
"291 345 OFFCURVE",
"323 353 OFFCURVE",
"351 360 CURVE SMOOTH",
"361 363 OFFCURVE",
"371 364 OFFCURVE",
"380 364 CURVE SMOOTH",
"400 364 OFFCURVE",
"417 358 OFFCURVE",
"431 348 CURVE"
);
}
);
width = 511;
}
);
note = germandbls;
unicode = 00DF;
},
{
glyphname = t;
layers = (
{
hints = (
{
horizontal = 1;
place = "{595, -20}";
target = down;
type = TopGhost;
}
);
layerId = "34A4CA4C-C6E5-4C7E-9ECD-8F87FE1EC3A4";
paths = (
{
closed = 1;
nodes = (
"98 314 LINE",
"73 245 OFFCURVE",
"54 178 OFFCURVE",
"47 132 CURVE SMOOTH",
"29 2 OFFCURVE",
"96 -37 OFFCURVE",
"159 -53 CURVE SMOOTH",
"197 -62 OFFCURVE",
"235 -30 OFFCURVE",
"173 -10 CURVE SMOOTH",
"128 4 OFFCURVE",
"84 35 OFFCURVE",
"97 115 CURVE SMOOTH",
"107 174 OFFCURVE",
"124 239 OFFCURVE",
"155 320 CURVE",
"186 321 OFFCURVE",
"228 321 OFFCURVE",
"260 325 CURVE SMOOTH",
"291 328 OFFCURVE",
"276 359 OFFCURVE",
"263 360 CURVE SMOOTH",
"227 364 OFFCURVE",
"199 365 OFFCURVE",
"173 365 CURVE",
"183 387 OFFCURVE",
"193 410 OFFCURVE",
"205 435 CURVE SMOOTH",
"219 465 OFFCURVE",
"241 514 OFFCURVE",
"267 570 CURVE SMOOTH",
"280 598 OFFCURVE",
"225 605 OFFCURVE",
"210 577 CURVE SMOOTH",
"186 532 OFFCURVE",
"149 448 OFFCURVE",
"116 361 CURVE",
"86 360 LINE SMOOTH",
"74 360 OFFCURVE",
"56 340 OFFCURVE",
"61 323 CURVE SMOOTH",
"64 307 OFFCURVE",
"77 309 OFFCURVE",
"97 314 CURVE SMOOTH"
);
}
);
width = 252;
}
);
note = t;
unicode = 0074;
},
{
glyphname = u;
layers = (
{
hints = (
{
horizontal = 1;
place = "{361, -20}";
target = down;
type = TopGhost;
}
);
layerId = "34A4CA4C-C6E5-4C7E-9ECD-8F87FE1EC3A4";
paths = (
{
closed = 1;
nodes = (
"186 310 LINE",
"216 324 OFFCURVE",
"192 361 OFFCURVE",
"160 354 CURVE SMOOTH",
"114 343 OFFCURVE",
"54 289 OFFCURVE",
"39 223 CURVE SMOOTH",
"23 157 OFFCURVE",
"26 84 OFFCURVE",
"90 47 CURVE SMOOTH",
"192 -12 OFFCURVE",
"287 73 OFFCURVE",
"346 138 CURVE SMOOTH",
"399 197 OFFCURVE",
"451 287 OFFCURVE",
"463 330 CURVE SMOOTH",
"472 361 OFFCURVE",
"424 375 OFFCURVE",
"416 344 CURVE SMOOTH",
"409 316 OFFCURVE",
"357 226 OFFCURVE",
"302 170 CURVE SMOOTH",
"252 119 OFFCURVE",
"180 61 OFFCURVE",
"114 89 CURVE SMOOTH",
"79 103 OFFCURVE",
"81 175 OFFCURVE",
"91 208 CURVE SMOOTH",
"112 275 OFFCURVE",
"140 288 OFFCURVE",
"186 309 CURVE"
);
}
);
width = 422;
}
);
note = u;
unicode = 0075;
},
{
glyphname = v;
layers = (
{
hints = (
{
horizontal = 1;
place = "{18, 368}";
type = Stem;
},
{
place = "{59, 51}";
type = Stem;
}
);
layerId = "34A4CA4C-C6E5-4C7E-9ECD-8F87FE1EC3A4";
paths = (
{
closed = 1;
nodes = (
"119 395 OFFCURVE",
"67 393 OFFCURVE",
"62 361 CURVE SMOOTH",
"54 313 OFFCURVE",
"64 245 OFFCURVE",
"78 176 CURVE SMOOTH",
"89 121 OFFCURVE",
"100 86 OFFCURVE",
"121 34 CURVE SMOOTH",
"129 15 OFFCURVE",
"158 12 OFFCURVE",
"168 28 CURVE SMOOTH",
"229 128 OFFCURVE",
"300 231 OFFCURVE",
"384 295 CURVE SMOOTH",
"395 303 OFFCURVE",
"409 320 OFFCURVE",
"404 329 CURVE SMOOTH",
"398 341 OFFCURVE",
"374 336 OFFCURVE",
"359 328 CURVE SMOOTH",
"301 300 OFFCURVE",
"202 161 OFFCURVE",
"155 88 CURVE",
"143 119 OFFCURVE",
"130 145 OFFCURVE",
"122 183 CURVE SMOOTH",
"112 235 OFFCURVE",
"106 279 OFFCURVE",
"110 317 CURVE",
"109 326 OFFCURVE",
"114 355 OFFCURVE",
"115 362 CURVE SMOOTH"
);
}
);
width = 333;
}
);
note = v;
unicode = 0076;
},
{
glyphname = w;
layers = (
{
hints = (
{
horizontal = 1;
place = "{32, 45}";
type = Stem;
}
);
layerId = "34A4CA4C-C6E5-4C7E-9ECD-8F87FE1EC3A4";
paths = (
{
closed = 1;
nodes = (
"285 223 LINE",
"316 138 OFFCURVE",
"328 37 OFFCURVE",
"433 32 CURVE SMOOTH",
"486 30 OFFCURVE",
"558 99 OFFCURVE",
"585 180 CURVE SMOOTH",
"625 301 OFFCURVE",
"538 314 OFFCURVE",
"529 269 CURVE SMOOTH",
"524 243 OFFCURVE",
"547 248 OFFCURVE",
"527 170 CURVE SMOOTH",
"515 126 OFFCURVE",
"475 79 OFFCURVE",
"437 77 CURVE SMOOTH",
"365 73 OFFCURVE",
"334 188 OFFCURVE",
"331 240 CURVE SMOOTH",
"329 284 OFFCURVE",
"301 271 OFFCURVE",
"276 259 CURVE SMOOTH",
"207 228 OFFCURVE",
"138 134 OFFCURVE",
"76 96 CURVE",
"79 158 OFFCURVE",
"104 215 OFFCURVE",
"117 237 CURVE SMOOTH",
"127 252 OFFCURVE",
"135 280 OFFCURVE",
"137 293 CURVE SMOOTH",
"141 325 OFFCURVE",
"104 335 OFFCURVE",
"89 307 CURVE SMOOTH",
"60 251 OFFCURVE",
"47 210 OFFCURVE",
"29 101 CURVE SMOOTH",
"14 6 OFFCURVE",
"94 31 OFFCURVE",
"144 86 CURVE SMOOTH",
"191 138 OFFCURVE",
"229 176 OFFCURVE",
"286 224 CURVE SMOOTH"
);
}
);
width = 622;
}
);
note = w;
unicode = 0077;
},
{
glyphname = x;
layers = (
{
hints = (
{
horizontal = 1;
place = "{347, -20}";
target = down;
type = TopGhost;
}
);
layerId = "34A4CA4C-C6E5-4C7E-9ECD-8F87FE1EC3A4";
paths = (
{
closed = 1;
nodes = (
"95 137 OFFCURVE",
"19 56 OFFCURVE",
"-40 -9 CURVE SMOOTH",
"-62 -33 OFFCURVE",
"-13 -36 OFFCURVE",
"9 -12 CURVE SMOOTH",
"65 49 OFFCURVE",
"125 97 OFFCURVE",
"177 142 CURVE",
"208 91 OFFCURVE",
"240 41 OFFCURVE",
"286 17 CURVE SMOOTH",
"315 1 OFFCURVE",
"342 34 OFFCURVE",
"313 48 CURVE SMOOTH",
"283 63 OFFCURVE",
"248 122 OFFCURVE",
"216 174 CURVE",
"252 205 OFFCURVE",
"293 236 OFFCURVE",
"341 271 CURVE SMOOTH",
"357 282 OFFCURVE",
"367 290 OFFCURVE",
"383 302 CURVE SMOOTH",
"410 321 OFFCURVE",
"383 361 OFFCURVE",
"356 342 CURVE SMOOTH",
"338 330 OFFCURVE",
"328 323 OFFCURVE",
"312 311 CURVE SMOOTH",
"266 278 OFFCURVE",
"227 248 OFFCURVE",
"191 218 CURVE",
"172 260 OFFCURVE",
"157 302 OFFCURVE",
"154 317 CURVE SMOOTH",
"146 350 OFFCURVE",
"98 339 OFFCURVE",
"105 307 CURVE SMOOTH",
"110 285 OFFCURVE",
"127 234 OFFCURVE",
"152 186 CURVE"
);
}
);
width = 337;
}
);
note = x;
unicode = 0078;
},
{
glyphname = y;
layers = (
{
hints = (
{
horizontal = 1;
place = "{-246, 45}";
type = Stem;
},
{
horizontal = 1;
place = "{59, 43}";
type = Stem;
},
{
horizontal = 1;
place = "{294, -20}";
target = down;
type = TopGhost;
},
{
place = "{25, 56}";
type = Stem;
}
);
layerId = "34A4CA4C-C6E5-4C7E-9ECD-8F87FE1EC3A4";
paths = (
{
closed = 1;
nodes = (
"446 297 OFFCURVE",
"393 307 OFFCURVE",
"384 275 CURVE SMOOTH",
"377 252 OFFCURVE",
"368 223 OFFCURVE",
"310 176 CURVE SMOOTH",
"257 132 OFFCURVE",
"180 84 OFFCURVE",
"110 108 CURVE SMOOTH",
"75 120 OFFCURVE",
"77 182 OFFCURVE",
"88 210 CURVE SMOOTH",
"109 267 OFFCURVE",
"138 278 OFFCURVE",
"187 296 CURVE SMOOTH",
"218 308 OFFCURVE",
"194 341 OFFCURVE",
"159 334 CURVE SMOOTH",
"111 324 OFFCURVE",
"49 278 OFFCURVE",
"33 222 CURVE SMOOTH",
"16 166 OFFCURVE",
"20 103 OFFCURVE",
"86 72 CURVE SMOOTH",
"177 30 OFFCURVE",
"280 95 OFFCURVE",
"341 150 CURVE",
"349 156 OFFCURVE",
"356 163 OFFCURVE",
"363 169 CURVE",
"364 151 OFFCURVE",
"348 94 OFFCURVE",
"335 62 CURVE SMOOTH",
"290 -49 OFFCURVE",
"251 -111 OFFCURVE",
"180 -173 CURVE SMOOTH",
"161 -190 OFFCURVE",
"130 -210 OFFCURVE",
"98 -196 CURVE SMOOTH",
"85 -190 OFFCURVE",
"74 -164 OFFCURVE",
"64 -164 CURVE",
"35 -159 OFFCURVE",
"32 -155 OFFCURVE",
"32 -190 CURVE SMOOTH",
"32 -211 OFFCURVE",
"49 -234 OFFCURVE",
"76 -242 CURVE SMOOTH",
"119 -254 OFFCURVE",
"165 -239 OFFCURVE",
"193 -219 CURVE SMOOTH",
"363 -99 OFFCURVE",
"398 120 OFFCURVE",
"438 268 CURVE SMOOTH"
);
}
);
width = 428;
}
);
note = y;
unicode = 0079;
},
{
glyphname = z;
layers = (
{
hints = (
{
horizontal = 1;
place = "{-33, 45}";
type = Stem;
},
{
place = "{332, 50}";
type = Stem;
}
);
layerId = "34A4CA4C-C6E5-4C7E-9ECD-8F87FE1EC3A4";
paths = (
{
closed = 1;
nodes = (
"402 315 LINE",
"338 319 OFFCURVE",
"208 320 OFFCURVE",
"168 305 CURVE",
"135 297 OFFCURVE",
"149 251 OFFCURVE",
"180 264 CURVE SMOOTH",
"211 277 OFFCURVE",
"285 273 OFFCURVE",
"340 273 CURVE",
"334 267 OFFCURVE",
"327 261 OFFCURVE",
"319 255 CURVE",
"318 255 LINE",
"291 232 OFFCURVE",
"255 204 OFFCURVE",
"207 167 CURVE",
"207 168 LINE",
"135 113 OFFCURVE",
"61 54 OFFCURVE",
"18 8 CURVE SMOOTH",
"6 -4 OFFCURVE",
"14 -26 OFFCURVE",
"33 -26 CURVE",
"33 -26 LINE",
"33 -26 OFFCURVE",
"148 -33 OFFCURVE",
"183 -33 CURVE SMOOTH",
"235 -33 OFFCURVE",
"286 -29 OFFCURVE",
"325 -18 CURVE SMOOTH",
"351 -11 OFFCURVE",
"374 7 OFFCURVE",
"381 31 CURVE",
"382 65 OFFCURVE",
"341 60 OFFCURVE",
"332 35 CURVE",
"332 33 LINE",
"330 31 OFFCURVE",
"323 25 OFFCURVE",
"316 25 CURVE",
"288 16 OFFCURVE",
"239 10 OFFCURVE",
"191 11 CURVE SMOOTH",
"168 11 OFFCURVE",
"117 15 OFFCURVE",
"88 15 CURVE",
"127 52 OFFCURVE",
"182 96 OFFCURVE",
"237 136 CURVE",
"237 136 LINE",
"285 173 OFFCURVE",
"321 201 OFFCURVE",
"349 223 CURVE",
"348 224 LINE",
"378 247 OFFCURVE",
"401 265 OFFCURVE",
"415 278 CURVE",
"415 278 LINE",
"428 288 OFFCURVE",
"423 313 OFFCURVE",
"402 314 CURVE"
);
}
);
width = 402;
}
);
note = z;
unicode = 007A;
},
{
glyphname = f_f;
lastChange = "2021-12-22 06:54:30 +0000";
layers = (
{
hints = (
{
horizontal = 1;
place = "{624, -20}";
target = down;
type = TopGhost;
},
{
place = "{47, 45}";
type = Stem;
},
{
horizontal = 1;
place = "{624, -20}";
target = down;
type = TopGhost;
},
{
place = "{296, 45}";
type = Stem;
}
);
layerId = "34A4CA4C-C6E5-4C7E-9ECD-8F87FE1EC3A4";
paths = (
{
closed = 1;
nodes = (
"656 527 OFFCURVE",
"651 546 OFFCURVE",
"629 581 CURVE SMOOTH",
"588 649 OFFCURVE",
"498 631 OFFCURVE",
"453 558 CURVE SMOOTH",
"435 530 OFFCURVE",
"399 485 OFFCURVE",
"376 395 CURVE",
"315 395 OFFCURVE",
"232 396 OFFCURVE",
"203 394 CURVE",
"220 433 OFFCURVE",
"249 495 OFFCURVE",
"260 511 CURVE SMOOTH",
"307 583 OFFCURVE",
"356 589 OFFCURVE",
"376 539 CURVE SMOOTH",
"394 495 OFFCURVE",
"434 537 OFFCURVE",
"408 581 CURVE SMOOTH",
"367 649 OFFCURVE",
"277 631 OFFCURVE",
"232 558 CURVE SMOOTH",
"214 530 OFFCURVE",
"185 467 OFFCURVE",
"155 391 CURVE",
"149 391 LINE SMOOTH",
"137 391 OFFCURVE",
"119 371 OFFCURVE",
"124 354 CURVE",
"125 346 OFFCURVE",
"129 341 OFFCURVE",
"135 341 CURVE SMOOTH",
"136 341 LINE",
"88 212 OFFCURVE",
"43 62 OFFCURVE",
"47 -15 CURVE SMOOTH",
"49 -64 OFFCURVE",
"71 -71 OFFCURVE",
"89 -59 CURVE SMOOTH",
"119 -38 OFFCURVE",
"93 -22 OFFCURVE",
"93 -2 CURVE SMOOTH",
"91 72 OFFCURVE",
"144 246 OFFCURVE",
"184 349 CURVE",
"205 351 OFFCURVE",
"292 351 OFFCURVE",
"360 354 CURVE",
"308 208 OFFCURVE",
"264 61 OFFCURVE",
"268 -15 CURVE SMOOTH",
"270 -64 OFFCURVE",
"292 -71 OFFCURVE",
"310 -59 CURVE SMOOTH",
"340 -38 OFFCURVE",
"314 -22 OFFCURVE",
"314 -2 CURVE SMOOTH",
"312 72 OFFCURVE",
"365 246 OFFCURVE",
"405 349 CURVE",
"431 351 OFFCURVE",
"490 351 OFFCURVE",
"536 356 CURVE SMOOTH",
"566 359 OFFCURVE",
"551 389 OFFCURVE",
"538 390 CURVE SMOOTH",
"488 396 OFFCURVE",
"448 394 OFFCURVE",
"424 394 CURVE",
"441 433 OFFCURVE",
"470 495 OFFCURVE",
"481 511 CURVE SMOOTH",
"528 583 OFFCURVE",
"568 592 OFFCURVE",
"606 517 CURVE SMOOTH",
"620 490 OFFCURVE",
"621 473 OFFCURVE",
"631 467 CURVE SMOOTH",
"641 461 OFFCURVE",
"660 467 OFFCURVE",
"659 482 CURVE SMOOTH"
);
}
);
width = 470;
}
);
leftMetricsKey = f;
},
{
glyphname = f_f_i;
lastChange = "2021-12-22 06:50:49 +0000";
layers = (
{
hints = (
{
horizontal = 1;
place = "{624, -20}";
target = down;
type = TopGhost;
},
{
place = "{47, 45}";
type = Stem;
},
{
horizontal = 1;
place = "{624, -20}";
target = down;
type = TopGhost;
},
{
place = "{296, 45}";
type = Stem;
},
{
horizontal = 1;
place = "{380, 89}";
type = Stem;
},
{
place = "{551, 44}";
type = Stem;
},
{
place = "{693, 67}";
type = Stem;
}
);
layerId = "34A4CA4C-C6E5-4C7E-9ECD-8F87FE1EC3A4";
paths = (
{
closed = 1;
nodes = (
"637 352 OFFCURVE",
"582 378 OFFCURVE",
"570 336 CURVE SMOOTH",
"530 195 OFFCURVE",
"500 172 OFFCURVE",
"490 67 CURVE SMOOTH",
"485 18 OFFCURVE",
"532 6 OFFCURVE",
"550 18 CURVE SMOOTH",
"579 39 OFFCURVE",
"534 63 OFFCURVE",
"534 68 CURVE SMOOTH",
"540 162 OFFCURVE",
"577 169 OFFCURVE",
"627 322 CURVE SMOOTH"
);
},
{
closed = 1;
nodes = (
"656 527 OFFCURVE",
"651 546 OFFCURVE",
"629 581 CURVE SMOOTH",
"588 649 OFFCURVE",
"498 631 OFFCURVE",
"453 558 CURVE SMOOTH",
"435 530 OFFCURVE",
"399 485 OFFCURVE",
"376 395 CURVE",
"315 395 OFFCURVE",
"232 396 OFFCURVE",
"203 394 CURVE",
"220 433 OFFCURVE",
"249 495 OFFCURVE",
"260 511 CURVE SMOOTH",
"307 583 OFFCURVE",
"356 589 OFFCURVE",
"376 539 CURVE SMOOTH",
"394 495 OFFCURVE",
"434 537 OFFCURVE",
"408 581 CURVE SMOOTH",
"367 649 OFFCURVE",
"277 631 OFFCURVE",
"232 558 CURVE SMOOTH",
"214 530 OFFCURVE",
"185 467 OFFCURVE",
"155 391 CURVE",
"149 391 LINE SMOOTH",
"137 391 OFFCURVE",
"119 371 OFFCURVE",
"124 354 CURVE",
"125 346 OFFCURVE",
"129 341 OFFCURVE",
"135 341 CURVE SMOOTH",
"136 341 LINE",
"88 212 OFFCURVE",
"43 62 OFFCURVE",
"47 -15 CURVE SMOOTH",
"49 -64 OFFCURVE",
"71 -71 OFFCURVE",
"89 -59 CURVE SMOOTH",
"119 -38 OFFCURVE",
"93 -22 OFFCURVE",
"93 -2 CURVE SMOOTH",
"91 72 OFFCURVE",
"144 246 OFFCURVE",
"184 349 CURVE",
"205 351 OFFCURVE",
"292 351 OFFCURVE",
"360 354 CURVE",
"308 208 OFFCURVE",
"264 61 OFFCURVE",
"268 -15 CURVE SMOOTH",
"270 -64 OFFCURVE",
"292 -71 OFFCURVE",
"310 -59 CURVE SMOOTH",
"340 -38 OFFCURVE",
"314 -22 OFFCURVE",
"314 -2 CURVE SMOOTH",
"312 72 OFFCURVE",
"365 246 OFFCURVE",
"405 349 CURVE",
"431 351 OFFCURVE",
"490 351 OFFCURVE",
"536 356 CURVE SMOOTH",
"566 359 OFFCURVE",
"551 389 OFFCURVE",
"538 390 CURVE SMOOTH",
"488 396 OFFCURVE",
"448 394 OFFCURVE",
"424 394 CURVE",
"441 433 OFFCURVE",
"470 495 OFFCURVE",
"481 511 CURVE SMOOTH",
"528 583 OFFCURVE",
"568 592 OFFCURVE",
"606 517 CURVE SMOOTH",
"620 490 OFFCURVE",
"621 473 OFFCURVE",
"631 467 CURVE SMOOTH",
"641 461 OFFCURVE",
"660 467 OFFCURVE",
"659 482 CURVE SMOOTH"
);
}
);
width = 692;
}
);
leftMetricsKey = f;
},
{
glyphname = f_f_l;
lastChange = "2021-12-22 06:52:27 +0000";
layers = (
{
hints = (
{
horizontal = 1;
place = "{624, -20}";
target = down;
type = TopGhost;
},
{
place = "{47, 45}";
type = Stem;
},
{
horizontal = 1;
place = "{624, -20}";
target = down;
type = TopGhost;
},
{
place = "{296, 45}";
type = Stem;
},
{
horizontal = 1;
place = "{594, -20}";
target = down;
type = TopGhost;
}
);
layerId = "34A4CA4C-C6E5-4C7E-9ECD-8F87FE1EC3A4";
paths = (
{
closed = 1;
nodes = (
"733 595 OFFCURVE",
"696 605 OFFCURVE",
"681 577 CURVE SMOOTH",
"624 469 OFFCURVE",
"487 129 OFFCURVE",
"477 24 CURVE SMOOTH",
"473 -25 OFFCURVE",
"520 -37 OFFCURVE",
"538 -25 CURVE SMOOTH",
"567 -4 OFFCURVE",
"521 17 OFFCURVE",
"522 37 CURVE SMOOTH",
"527 105 OFFCURVE",
"596 290 OFFCURVE",
"661 428 CURVE SMOOTH",
"675 458 OFFCURVE",
"697 479 OFFCURVE",
"710 501 CURVE SMOOTH",
"719 516 OFFCURVE",
"727 551 OFFCURVE",
"729 564 CURVE SMOOTH"
);
},
{
closed = 1;
nodes = (
"665 524 OFFCURVE",
"629 581 CURVE SMOOTH",
"587 648 OFFCURVE",
"498 631 OFFCURVE",
"453 558 CURVE SMOOTH",
"435 530 OFFCURVE",
"399 485 OFFCURVE",
"376 395 CURVE",
"315 395 OFFCURVE",
"232 396 OFFCURVE",
"203 394 CURVE",
"220 433 OFFCURVE",
"249 495 OFFCURVE",
"260 511 CURVE SMOOTH",
"307 583 OFFCURVE",
"356 589 OFFCURVE",
"376 539 CURVE SMOOTH",
"394 495 OFFCURVE",
"434 537 OFFCURVE",
"408 581 CURVE SMOOTH",
"367 649 OFFCURVE",
"277 631 OFFCURVE",
"232 558 CURVE SMOOTH",
"214 530 OFFCURVE",
"185 467 OFFCURVE",
"155 391 CURVE",
"149 391 LINE SMOOTH",
"137 391 OFFCURVE",
"119 371 OFFCURVE",
"124 354 CURVE",
"125 346 OFFCURVE",
"129 341 OFFCURVE",
"135 341 CURVE SMOOTH",
"136 341 LINE",
"88 212 OFFCURVE",
"43 62 OFFCURVE",
"47 -15 CURVE SMOOTH",
"49 -64 OFFCURVE",
"71 -71 OFFCURVE",
"89 -59 CURVE SMOOTH",
"119 -38 OFFCURVE",
"93 -22 OFFCURVE",
"93 -2 CURVE SMOOTH",
"91 72 OFFCURVE",
"144 246 OFFCURVE",
"184 349 CURVE",
"205 351 OFFCURVE",
"292 351 OFFCURVE",
"360 354 CURVE",
"308 208 OFFCURVE",
"264 61 OFFCURVE",
"268 -15 CURVE SMOOTH",
"270 -64 OFFCURVE",
"292 -71 OFFCURVE",
"310 -59 CURVE SMOOTH",
"340 -38 OFFCURVE",
"314 -22 OFFCURVE",
"314 -2 CURVE SMOOTH",
"312 72 OFFCURVE",
"365 246 OFFCURVE",
"405 349 CURVE",
"431 351 OFFCURVE",
"490 351 OFFCURVE",
"536 356 CURVE SMOOTH",
"566 359 OFFCURVE",
"551 389 OFFCURVE",
"538 390 CURVE SMOOTH",
"488 396 OFFCURVE",
"448 394 OFFCURVE",
"424 394 CURVE",
"441 433 OFFCURVE",
"470 495 OFFCURVE",
"481 511 CURVE SMOOTH",
"528 583 OFFCURVE",
"579 592 OFFCURVE",
"606 517 CURVE SMOOTH",
"617 487 OFFCURVE"
);
}
);
width = 648;
}
);
leftMetricsKey = f;
},
{
glyphname = fi;
lastChange = "2021-12-22 06:52:40 +0000";
layers = (
{
hints = (
{
horizontal = 1;
place = "{624, -20}";
target = down;
type = TopGhost;
},
{
place = "{47, 45}";
type = Stem;
}
);
layerId = "34A4CA4C-C6E5-4C7E-9ECD-8F87FE1EC3A4";
paths = (
{
closed = 1;
nodes = (
"136 341 LINE",
"88 212 OFFCURVE",
"43 62 OFFCURVE",
"47 -15 CURVE SMOOTH",
"49 -64 OFFCURVE",
"71 -71 OFFCURVE",
"89 -59 CURVE SMOOTH",
"119 -38 OFFCURVE",
"93 -22 OFFCURVE",
"93 -2 CURVE SMOOTH",
"91 72 OFFCURVE",
"144 246 OFFCURVE",
"184 349 CURVE",
"210 351 OFFCURVE",
"309 351 OFFCURVE",
"355 356 CURVE SMOOTH",
"385 359 OFFCURVE",
"370 389 OFFCURVE",
"357 390 CURVE SMOOTH",
"307 396 OFFCURVE",
"236 396 OFFCURVE",
"203 394 CURVE",
"220 433 OFFCURVE",
"249 495 OFFCURVE",
"260 511 CURVE SMOOTH",
"288 554 OFFCURVE",
"318 578 OFFCURVE",
"345 573 CURVE SMOOTH",
"417 561 OFFCURVE",
"412 464 OFFCURVE",
"414 448 CURVE SMOOTH",
"415 439 OFFCURVE",
"445 452 OFFCURVE",
"446 463 CURVE SMOOTH",
"454 522 OFFCURVE",
"444 612 OFFCURVE",
"364 627 CURVE SMOOTH",
"318 636 OFFCURVE",
"263 608 OFFCURVE",
"232 558 CURVE SMOOTH",
"214 530 OFFCURVE",
"185 467 OFFCURVE",
"155 391 CURVE",
"149 391 LINE SMOOTH",
"137 391 OFFCURVE",
"119 371 OFFCURVE",
"124 354 CURVE",
"125 346 OFFCURVE",
"129 341 OFFCURVE",
"135 341 CURVE SMOOTH"
);
},
{
closed = 1;
nodes = (
"380 311 OFFCURVE",
"326 325 OFFCURVE",
"317 294 CURVE SMOOTH",
"288 195 OFFCURVE",
"259 172 OFFCURVE",
"249 67 CURVE SMOOTH",
"244 18 OFFCURVE",
"291 6 OFFCURVE",
"309 18 CURVE SMOOTH",
"338 39 OFFCURVE",
"293 63 OFFCURVE",
"293 68 CURVE SMOOTH",
"299 162 OFFCURVE",
"336 169 OFFCURVE",
"371 281 CURVE SMOOTH"
);
}
);
width = 448;
}
);
note = fi;
unicode = FB01;
},
{
glyphname = fl;
lastChange = "2021-12-22 06:53:12 +0000";
layers = (
{
hints = (
{
horizontal = 1;
place = "{594, -20}";
target = down;
type = TopGhost;
},
{
horizontal = 1;
place = "{624, -20}";
target = down;
type = TopGhost;
},
{
place = "{47, 45}";
type = Stem;
}
);
layerId = "34A4CA4C-C6E5-4C7E-9ECD-8F87FE1EC3A4";
paths = (
{
closed = 1;
nodes = (
"136 341 LINE",
"88 212 OFFCURVE",
"43 62 OFFCURVE",
"47 -15 CURVE SMOOTH",
"49 -64 OFFCURVE",
"71 -71 OFFCURVE",
"89 -59 CURVE SMOOTH",
"119 -38 OFFCURVE",
"93 -22 OFFCURVE",
"93 -2 CURVE SMOOTH",
"91 72 OFFCURVE",
"144 246 OFFCURVE",
"184 349 CURVE",
"210 351 OFFCURVE",
"253 350 OFFCURVE",
"299 355 CURVE SMOOTH",
"329 358 OFFCURVE",
"314 388 OFFCURVE",
"301 389 CURVE SMOOTH",
"251 395 OFFCURVE",
"236 396 OFFCURVE",
"203 394 CURVE",
"220 433 OFFCURVE",
"249 495 OFFCURVE",
"260 511 CURVE SMOOTH",
"307 583 OFFCURVE",
"347 592 OFFCURVE",
"385 517 CURVE SMOOTH",
"410 467 OFFCURVE",
"435 539 OFFCURVE",
"408 581 CURVE SMOOTH",
"367 649 OFFCURVE",
"277 631 OFFCURVE",
"232 558 CURVE SMOOTH",
"214 530 OFFCURVE",
"185 467 OFFCURVE",
"155 391 CURVE",
"149 391 LINE SMOOTH",
"137 391 OFFCURVE",
"119 371 OFFCURVE",
"124 354 CURVE",
"125 346 OFFCURVE",
"129 341 OFFCURVE",
"135 341 CURVE SMOOTH"
);
},
{
closed = 1;
nodes = (
"516 595 OFFCURVE",
"479 605 OFFCURVE",
"464 577 CURVE SMOOTH",
"407 469 OFFCURVE",
"270 129 OFFCURVE",
"260 24 CURVE SMOOTH",
"256 -25 OFFCURVE",
"303 -37 OFFCURVE",
"321 -25 CURVE SMOOTH",
"350 -4 OFFCURVE",
"304 17 OFFCURVE",
"305 37 CURVE SMOOTH",
"310 105 OFFCURVE",
"379 290 OFFCURVE",
"444 428 CURVE SMOOTH",
"458 458 OFFCURVE",
"480 479 OFFCURVE",
"493 501 CURVE SMOOTH",
"502 516 OFFCURVE",
"510 551 OFFCURVE",
"512 564 CURVE SMOOTH"
);
}
);
width = 431;
}
);
note = fl;
unicode = FB02;
},
{
glyphname = ordfeminine;
lastChange = "2021-11-22 20:08:29 +0000";
layers = (
{
hints = (
{
horizontal = 1;
place = "{364, 32}";
type = Stem;
},
{
horizontal = 1;
place = "{613, 33}";
type = Stem;
}
);
layerId = "34A4CA4C-C6E5-4C7E-9ECD-8F87FE1EC3A4";
paths = (
{
closed = 1;
nodes = (
"259 531 OFFCURVE",
"219 544 OFFCURVE",
"181 544 CURVE SMOOTH",
"163 544 OFFCURVE",
"145 541 OFFCURVE",
"131 536 CURVE SMOOTH",
"82 519 OFFCURVE",
"33 482 OFFCURVE",
"33 430 CURVE SMOOTH",
"33 389 OFFCURVE",
"75 364 OFFCURVE",
"113 364 CURVE SMOOTH",
"142 364 OFFCURVE",
"163 369 OFFCURVE",
"195 394 CURVE SMOOTH",
"200 398 OFFCURVE",
"202 403 OFFCURVE",
"202 408 CURVE SMOOTH",
"202 415 OFFCURVE",
"197 420 OFFCURVE",
"190 420 CURVE SMOOTH",
"187 420 OFFCURVE",
"183 419 OFFCURVE",
"179 416 CURVE SMOOTH",
"152 395 OFFCURVE",
"145 396 OFFCURVE",
"113 396 CURVE SMOOTH",
"88 396 OFFCURVE",
"64 416 OFFCURVE",
"67 433 CURVE",
"69 463 OFFCURVE",
"107 496 OFFCURVE",
"142 506 CURVE SMOOTH",
"153 509 OFFCURVE",
"164 510 OFFCURVE",
"175 510 CURVE SMOOTH",
"215 510 OFFCURVE",
"255 492 OFFCURVE",
"258 455 CURVE",
"247 427 OFFCURVE",
"235 408 OFFCURVE",
"225 400 CURVE SMOOTH",
"221 396 OFFCURVE",
"219 392 OFFCURVE",
"219 388 CURVE SMOOTH",
"219 379 OFFCURVE",
"226 372 OFFCURVE",
"235 372 CURVE SMOOTH",
"239 372 OFFCURVE",
"243 373 OFFCURVE",
"246 376 CURVE SMOOTH",
"277 402 OFFCURVE",
"295 449 OFFCURVE",
"303 480 CURVE SMOOTH",
"312 512 OFFCURVE",
"320 540 OFFCURVE",
"320 567 CURVE SMOOTH",
"320 583 OFFCURVE",
"318 598 OFFCURVE",
"311 613 CURVE SMOOTH",
"299 643 OFFCURVE",
"267 646 OFFCURVE",
"245 646 CURVE SMOOTH",
"207 646 OFFCURVE",
"192 624 OFFCURVE",
"180 612 CURVE SMOOTH",
"176 608 OFFCURVE",
"174 603 OFFCURVE",
"174 598 CURVE SMOOTH",
"174 589 OFFCURVE",
"180 581 OFFCURVE",
"189 581 CURVE SMOOTH",
"191 581 OFFCURVE",
"194 582 OFFCURVE",
"197 583 CURVE",
"212 599 OFFCURVE",
"231 612 OFFCURVE",
"244 612 CURVE SMOOTH",
"267 613 OFFCURVE",
"272 606 OFFCURVE",
"281 595 CURVE SMOOTH",
"285 590 OFFCURVE",
"287 580 OFFCURVE",
"287 568 CURVE SMOOTH",
"287 549 OFFCURVE",
"283 524 OFFCURVE",
"275 499 CURVE"
);
}
);
width = 379;
}
);
note = ordfeminine;
unicode = 00AA;
},
{
glyphname = ordmasculine;
lastChange = "2021-11-22 20:08:29 +0000";
layers = (
{
hints = (
{
horizontal = 1;
place = "{393, 36}";
type = Stem;
},
{
horizontal = 1;
place = "{562, 70}";
type = Stem;
},
{
place = "{48, 37}";
type = Stem;
},
{
place = "{175, 52}";
type = Stem;
},
{
place = "{275, 45}";
type = Stem;
}
);
layerId = "34A4CA4C-C6E5-4C7E-9ECD-8F87FE1EC3A4";
paths = (
{
closed = 1;
nodes = (
"201 600 LINE SMOOTH",
"217 597 OFFCURVE",
"227 607 OFFCURVE",
"227 616 CURVE SMOOTH",
"227 621 OFFCURVE",
"223 627 OFFCURVE",
"214 629 CURVE SMOOTH",
"206 631 OFFCURVE",
"197 632 OFFCURVE",
"188 632 CURVE SMOOTH",
"132 632 OFFCURVE",
"76 589 OFFCURVE",
"56 537 CURVE SMOOTH",
"50 521 OFFCURVE",
"48 505 OFFCURVE",
"48 489 CURVE SMOOTH",
"48 441 OFFCURVE",
"73 399 OFFCURVE",
"117 393 CURVE SMOOTH",
"124 392 OFFCURVE",
"130 392 OFFCURVE",
"137 392 CURVE SMOOTH",
"204 392 OFFCURVE",
"257 436 OFFCURVE",
"288 473 CURVE",
"310 495 OFFCURVE",
"320 520 OFFCURVE",
"320 541 CURVE SMOOTH",
"320 575 OFFCURVE",
"296 601 OFFCURVE",
"257 601 CURVE SMOOTH",
"230 601 OFFCURVE",
"205 595 OFFCURVE",
"187 588 CURVE SMOOTH",
"178 585 OFFCURVE",
"175 578 OFFCURVE",
"175 571 CURVE SMOOTH",
"175 559 OFFCURVE",
"186 546 OFFCURVE",
"201 552 CURVE SMOOTH",
"213 557 OFFCURVE",
"229 560 OFFCURVE",
"247 562 CURVE SMOOTH",
"258 563 OFFCURVE",
"275 557 OFFCURVE",
"275 536 CURVE SMOOTH",
"275 525 OFFCURVE",
"271 511 OFFCURVE",
"259 492 CURVE",
"235 460 OFFCURVE",
"187 428 OFFCURVE",
"139 428 CURVE SMOOTH",
"134 428 OFFCURVE",
"130 428 OFFCURVE",
"125 429 CURVE",
"105 429 OFFCURVE",
"85 456 OFFCURVE",
"85 491 CURVE SMOOTH",
"85 501 OFFCURVE",
"87 512 OFFCURVE",
"91 523 CURVE SMOOTH",
"107 565 OFFCURVE",
"153 601 OFFCURVE",
"192 601 CURVE SMOOTH",
"195 601 OFFCURVE",
"199 601 OFFCURVE",
"202 600 CURVE SMOOTH"
);
}
);
width = 380;
}
);
note = ordmasculine;
unicode = 00BA;
},
{
glyphname = pi;
layers = (
{
hints = (
{
horizontal = 1;
place = "{-21, 304}";
type = Stem;
},
{
horizontal = 1;
place = "{404, 28}";
type = Stem;
},
{
place = "{-17, 32}";
type = Stem;
},
{
place = "{24, 189}";
type = Stem;
},
{
place = "{23, 32}";
type = Stem;
}
);
layerId = "34A4CA4C-C6E5-4C7E-9ECD-8F87FE1EC3A4";
paths = (
{
closed = 1;
nodes = (
"217 -21 OFFCURVE",
"259 12 OFFCURVE",
"293 42 CURVE SMOOTH",
"299 47 OFFCURVE",
"303 54 OFFCURVE",
"303 61 CURVE SMOOTH",
"303 68 OFFCURVE",
"299 76 OFFCURVE",
"292 76 CURVE SMOOTH",
"282 76 OFFCURVE",
"225 16 OFFCURVE",
"180 16 CURVE SMOOTH",
"159 16 OFFCURVE",
"146 29 OFFCURVE",
"146 51 CURVE SMOOTH",
"146 103 OFFCURVE",
"168 153 OFFCURVE",
"189 200 CURVE SMOOTH",
"199 222 OFFCURVE",
"228 236 OFFCURVE",
"228 263 CURVE SMOOTH",
"228 273 OFFCURVE",
"221 283 OFFCURVE",
"210 283 CURVE SMOOTH",
"198 283 OFFCURVE",
"190 274 OFFCURVE",
"185 264 CURVE SMOOTH",
"159 212 OFFCURVE",
"113 108 OFFCURVE",
"113 53 CURVE SMOOTH",
"113 13 OFFCURVE",
"123 -21 OFFCURVE",
"169 -21 CURVE SMOOTH"
);
},
{
closed = 1;
nodes = (
"279 298 OFFCURVE",
"239 297 OFFCURVE",
"229 297 CURVE SMOOTH",
"200 297 OFFCURVE",
"153 294 OFFCURVE",
"125 294 CURVE SMOOTH",
"86 294 OFFCURVE",
"70 298 OFFCURVE",
"31 298 CURVE SMOOTH",
"6 298 OFFCURVE",
"10 283 OFFCURVE",
"10 278 CURVE SMOOTH",
"10 272 OFFCURVE",
"17 257 OFFCURVE",
"67 259 CURVE SMOOTH",
"100 260 OFFCURVE",
"238 266 OFFCURVE",
"280 264 CURVE SMOOTH",
"315 262 OFFCURVE",
"314 292 OFFCURVE",
"297 295 CURVE SMOOTH"
);
},
{
closed = 1;
nodes = (
"57 -24 OFFCURVE",
"73 12 OFFCURVE",
"50 16 CURVE SMOOTH",
"29 20 OFFCURVE",
"16 29 OFFCURVE",
"16 51 CURVE SMOOTH",
"16 103 OFFCURVE",
"38 153 OFFCURVE",
"59 200 CURVE SMOOTH",
"69 222 OFFCURVE",
"98 236 OFFCURVE",
"98 263 CURVE SMOOTH",
"98 273 OFFCURVE",
"91 283 OFFCURVE",
"80 283 CURVE SMOOTH",
"68 283 OFFCURVE",
"60 274 OFFCURVE",
"55 264 CURVE SMOOTH",
"29 212 OFFCURVE",
"-17 108 OFFCURVE",
"-17 53 CURVE SMOOTH",
"-17 13 OFFCURVE",
"-6 -13 OFFCURVE",
"39 -21 CURVE SMOOTH"
);
}
);
width = 310;
}
);
note = pi;
unicode = 03C0;
},
{
glyphname = zero;
layers = (
{
hints = (
{
horizontal = 1;
place = "{-37, 46}";
type = Stem;
},
{
horizontal = 1;
place = "{615, -20}";
target = down;
type = TopGhost;
}
);
layerId = "34A4CA4C-C6E5-4C7E-9ECD-8F87FE1EC3A4";
paths = (
{
closed = 1;
nodes = (
"582 262 LINE",
"634 400 OFFCURVE",
"650 588 OFFCURVE",
"518 614 CURVE",
"406 624 OFFCURVE",
"218 484 OFFCURVE",
"116 276 CURVE",
"116 275 LINE",
"60 146 OFFCURVE",
"69 -37 OFFCURVE",
"219 -37 CURVE SMOOTH",
"220 -37 LINE SMOOTH",
"418 -37 OFFCURVE",
"536 138 OFFCURVE",
"582 261 CURVE"
);
},
{
closed = 1;
nodes = (
"126 -2 OFFCURVE",
"111 145 OFFCURVE",
"166 263 CURVE SMOOTH",
"242 423 OFFCURVE",
"442 592 OFFCURVE",
"507 578 CURVE",
"595 573 OFFCURVE",
"576 396 OFFCURVE",
"528 271 CURVE SMOOTH",
"484 157 OFFCURVE",
"373 -5 OFFCURVE",
"219 -3 CURVE SMOOTH"
);
}
);
width = 552;
}
);
note = zero;
unicode = 0030;
},
{
glyphname = one;
layers = (
{
hints = (
{
horizontal = 1;
place = "{596, -20}";
target = down;
type = TopGhost;
}
);
layerId = "34A4CA4C-C6E5-4C7E-9ECD-8F87FE1EC3A4";
paths = (
{
closed = 1;
nodes = (
"390 574 LINE",
"397 601 OFFCURVE",
"347 606 OFFCURVE",
"340 579 CURVE SMOOTH",
"307 451 OFFCURVE",
"175 210 OFFCURVE",
"102 -14 CURVE SMOOTH",
"94 -40 OFFCURVE",
"145 -49 OFFCURVE",
"151 -22 CURVE",
"226 202 OFFCURVE",
"356 443 OFFCURVE",
"391 574 CURVE"
);
}
);
width = 322;
}
);
note = one;
unicode = 0031;
},
{
glyphname = two;
lastChange = "2021-11-22 19:51:17 +0000";
layers = (
{
hints = (
{
horizontal = 1;
place = "{596, -20}";
target = down;
type = TopGhost;
}
);
layerId = "34A4CA4C-C6E5-4C7E-9ECD-8F87FE1EC3A4";
paths = (
{
closed = 1;
nodes = (
"508 601 OFFCURVE",
"429 602 OFFCURVE",
"354 582 CURVE SMOOTH",
"295 567 OFFCURVE",
"237 535 OFFCURVE",
"195 495 CURVE SMOOTH",
"172 472 OFFCURVE",
"213 441 OFFCURVE",
"236 463 CURVE SMOOTH",
"273 499 OFFCURVE",
"318 523 OFFCURVE",
"363 536 CURVE SMOOTH",
"425 555 OFFCURVE",
"493 552 OFFCURVE",
"536 536 CURVE SMOOTH",
"635 501 OFFCURVE",
"572 413 OFFCURVE",
"527 373 CURVE",
"463 322 OFFCURVE",
"376 280 OFFCURVE",
"292 235 CURVE SMOOTH",
"205 188 OFFCURVE",
"121 136 OFFCURVE",
"75 68 CURVE SMOOTH",
"62 50 OFFCURVE",
"48 32 OFFCURVE",
"43 9 CURVE SMOOTH",
"41 2 OFFCURVE",
"41 -34 OFFCURVE",
"77 -29 CURVE",
"146 -28 OFFCURVE",
"357 -2 OFFCURVE",
"438 -27 CURVE SMOOTH",
"469 -37 OFFCURVE",
"493 8 OFFCURVE",
"462 17 CURVE SMOOTH",
"371 45 OFFCURVE",
"181 22 OFFCURVE",
"104 18 CURVE",
"108 28 OFFCURVE",
"114 38 OFFCURVE",
"121 48 CURVE SMOOTH",
"163 108 OFFCURVE",
"236 155 OFFCURVE",
"316 199 CURVE SMOOTH",
"414 253 OFFCURVE",
"515 299 OFFCURVE",
"576 354 CURVE SMOOTH",
"653 425 OFFCURVE",
"686 540 OFFCURVE",
"565 582 CURVE SMOOTH"
);
}
);
width = 595;
}
);
note = two;
unicode = 0032;
},
{
glyphname = three;
layers = (
{
hints = (
{
horizontal = 1;
place = "{345, 32}";
type = Stem;
},
{
horizontal = 1;
place = "{603, -20}";
target = down;
type = TopGhost;
}
);
layerId = "34A4CA4C-C6E5-4C7E-9ECD-8F87FE1EC3A4";
paths = (
{
closed = 1;
nodes = (
"644 518 OFFCURVE",
"635 555 OFFCURVE",
"607 577 CURVE SMOOTH",
"568 609 OFFCURVE",
"499 613 OFFCURVE",
"425 589 CURVE SMOOTH",
"375 575 OFFCURVE",
"337 543 OFFCURVE",
"296 517 CURVE SMOOTH",
"265 498 OFFCURVE",
"296 461 OFFCURVE",
"327 482 CURVE SMOOTH",
"369 509 OFFCURVE",
"393 530 OFFCURVE",
"428 542 CURVE SMOOTH",
"489 564 OFFCURVE",
"544 562 OFFCURVE",
"569 541 CURVE SMOOTH",
"619 501 OFFCURVE",
"550 420 OFFCURVE",
"478 414 CURVE",
"456 400 OFFCURVE",
"380 388 OFFCURVE",
"358 381 CURVE SMOOTH",
"342 376 OFFCURVE",
"314 345 OFFCURVE",
"362 335 CURVE SMOOTH",
"384 330 OFFCURVE",
"428 332 OFFCURVE",
"460 318 CURVE SMOOTH",
"491 305 OFFCURVE",
"510 295 OFFCURVE",
"519 259 CURVE SMOOTH",
"549 116 OFFCURVE",
"407 -20 OFFCURVE",
"268 -6 CURVE SMOOTH",
"225 -1 OFFCURVE",
"192 14 OFFCURVE",
"172 37 CURVE SMOOTH",
"150 63 OFFCURVE",
"142 94 OFFCURVE",
"151 128 CURVE SMOOTH",
"158 152 OFFCURVE",
"105 159 OFFCURVE",
"97 134 CURVE SMOOTH",
"84 90 OFFCURVE",
"94 43 OFFCURVE",
"125 10 CURVE SMOOTH",
"155 -23 OFFCURVE",
"198 -47 OFFCURVE",
"257 -52 CURVE SMOOTH",
"419 -68 OFFCURVE",
"622 107 OFFCURVE",
"573 272 CURVE SMOOTH",
"561 315 OFFCURVE",
"521 358 OFFCURVE",
"479 366 CURVE",
"529 376 OFFCURVE",
"618 418 OFFCURVE",
"632 472 CURVE SMOOTH"
);
}
);
width = 615;
}
);
note = three;
unicode = 0033;
},
{
glyphname = four;
layers = (
{
hints = (
{
horizontal = 1;
place = "{160, 47}";
type = Stem;
},
{
horizontal = 1;
place = "{599, -20}";
target = down;
type = TopGhost;
}
);
layerId = "34A4CA4C-C6E5-4C7E-9ECD-8F87FE1EC3A4";
paths = (
{
closed = 1;
nodes = (
"651 526 OFFCURVE",
"602 541 OFFCURVE",
"588 515 CURVE SMOOTH",
"555 456 OFFCURVE",
"493 340 OFFCURVE",
"434 210 CURVE",
"330 213 OFFCURVE",
"221 213 OFFCURVE",
"168 213 CURVE",
"194 247 OFFCURVE",
"324 448 OFFCURVE",
"401 566 CURVE SMOOTH",
"419 594 OFFCURVE",
"374 612 OFFCURVE",
"357 586 CURVE SMOOTH",
"294 490 OFFCURVE",
"209 376 OFFCURVE",
"119 231 CURVE",
"87 189 OFFCURVE",
"129 164 OFFCURVE",
"160 165 CURVE SMOOTH",
"210 167 OFFCURVE",
"313 167 OFFCURVE",
"413 165 CURVE",
"381 89 OFFCURVE",
"351 12 OFFCURVE",
"329 -60 CURVE SMOOTH",
"321 -86 OFFCURVE",
"375 -91 OFFCURVE",
"383 -65 CURVE SMOOTH",
"406 6 OFFCURVE",
"437 85 OFFCURVE",
"470 162 CURVE",
"490 162 OFFCURVE",
"509 161 OFFCURVE",
"527 160 CURVE SMOOTH",
"565 158 OFFCURVE",
"573 205 OFFCURVE",
"535 207 CURVE SMOOTH",
"521 208 OFFCURVE",
"507 209 OFFCURVE",
"492 210 CURVE",
"547 333 OFFCURVE",
"605 444 OFFCURVE",
"637 501 CURVE SMOOTH"
);
}
);
width = 609;
}
);
note = four;
unicode = 0034;
},
{
glyphname = five;
layers = (
{
hints = (
{
horizontal = 1;
place = "{365, 23}";
type = Stem;
},
{
horizontal = 1;
place = "{552, 47}";
type = Stem;
}
);
layerId = "34A4CA4C-C6E5-4C7E-9ECD-8F87FE1EC3A4";
paths = (
{
closed = 1;
nodes = (
"669 597 OFFCURVE",
"634 600 OFFCURVE",
"589 600 CURVE SMOOTH",
"541 600 OFFCURVE",
"475 599 OFFCURVE",
"386 599 CURVE",
"351 586 OFFCURVE",
"325 545 OFFCURVE",
"303 517 CURVE",
"303 520 LINE",
"254 453 OFFCURVE",
"227 408 OFFCURVE",
"215 385 CURVE",
"215 383 LINE",
"208 360 OFFCURVE",
"218 341 OFFCURVE",
"246 341 CURVE SMOOTH",
"302 341 OFFCURVE",
"352 341 OFFCURVE",
"390 335 CURVE SMOOTH",
"501 319 OFFCURVE",
"545 283 OFFCURVE",
"524 205 CURVE SMOOTH",
"489 71 OFFCURVE",
"399 20 OFFCURVE",
"317 8 CURVE SMOOTH",
"252 -1 OFFCURVE",
"188 17 OFFCURVE",
"150 66 CURVE SMOOTH",
"133 87 OFFCURVE",
"87 59 OFFCURVE",
"103 38 CURVE SMOOTH",
"150 -22 OFFCURVE",
"233 -49 OFFCURVE",
"322 -38 CURVE SMOOTH",
"425 -25 OFFCURVE",
"538 47 OFFCURVE",
"579 200 CURVE SMOOTH",
"606 303 OFFCURVE",
"543 364 OFFCURVE",
"406 382 CURVE SMOOTH",
"372 387 OFFCURVE",
"327 387 OFFCURVE",
"276 387 CURVE",
"287 411 OFFCURVE",
"305 444 OFFCURVE",
"327 474 CURVE SMOOTH",
"328 475 LINE",
"346 505 OFFCURVE",
"374 536 OFFCURVE",
"386 553 CURVE",
"472 552 OFFCURVE",
"534 553 OFFCURVE",
"582 553 CURVE SMOOTH",
"621 553 OFFCURVE",
"645 550 OFFCURVE",
"666 540 CURVE SMOOTH",
"692 528 OFFCURVE",
"722 568 OFFCURVE",
"695 583 CURVE SMOOTH"
);
}
);
width = 590;
}
);
note = five;
unicode = 0035;
},
{
glyphname = six;
layers = (
{
hints = (
{
horizontal = 1;
place = "{-52, 46}";
type = Stem;
},
{
horizontal = 1;
place = "{348, 47}";
type = Stem;
},
{
horizontal = 1;
place = "{596, 47}";
type = Stem;
}
);
layerId = "34A4CA4C-C6E5-4C7E-9ECD-8F87FE1EC3A4";
paths = (
{
closed = 1;
nodes = (
"592 303 LINE",
"570 362 OFFCURVE",
"513 395 OFFCURVE",
"445 395 CURVE SMOOTH",
"386 395 OFFCURVE",
"317 374 OFFCURVE",
"253 310 CURVE SMOOTH",
"230 287 OFFCURVE",
"271 258 OFFCURVE",
"294 280 CURVE SMOOTH",
"348 333 OFFCURVE",
"394 348 OFFCURVE",
"439 348 CURVE SMOOTH",
"484 348 OFFCURVE",
"523 326 OFFCURVE",
"538 284 CURVE SMOOTH",
"547 257 OFFCURVE",
"548 221 OFFCURVE",
"536 176 CURVE SMOOTH",
"523 130 OFFCURVE",
"490 82 OFFCURVE",
"446 48 CURVE SMOOTH",
"404 15 OFFCURVE",
"354 -6 OFFCURVE",
"295 -6 CURVE SMOOTH",
"234 -5 OFFCURVE",
"201 15 OFFCURVE",
"184 48 CURVE SMOOTH",
"162 88 OFFCURVE",
"173 156 OFFCURVE",
"199 233 CURVE SMOOTH",
"220 296 OFFCURVE",
"253 370 OFFCURVE",
"295 433 CURVE SMOOTH",
"322 474 OFFCURVE",
"352 512 OFFCURVE",
"380 541 CURVE SMOOTH",
"412 575 OFFCURVE",
"447 596 OFFCURVE",
"467 596 CURVE SMOOTH",
"505 596 OFFCURVE",
"511 643 OFFCURVE",
"473 643 CURVE SMOOTH",
"425 643 OFFCURVE",
"379 611 OFFCURVE",
"337 568 CURVE SMOOTH",
"306 536 OFFCURVE",
"276 495 OFFCURVE",
"249 453 CURVE SMOOTH",
"204 383 OFFCURVE",
"165 308 OFFCURVE",
"144 243 CURVE SMOOTH",
"116 156 OFFCURVE",
"107 80 OFFCURVE",
"132 27 CURVE SMOOTH",
"154 -21 OFFCURVE",
"204 -50 OFFCURVE",
"289 -51 CURVE SMOOTH",
"362 -51 OFFCURVE",
"430 -27 OFFCURVE",
"482 15 CURVE SMOOTH",
"535 58 OFFCURVE",
"576 115 OFFCURVE",
"590 171 CURVE SMOOTH",
"603 224 OFFCURVE",
"604 268 OFFCURVE",
"591 303 CURVE"
);
}
);
width = 595;
}
);
note = six;
unicode = 0036;
},
{
glyphname = seven;
layers = (
{
hints = (
{
horizontal = 1;
place = "{511, 79}";
type = Stem;
}
);
layerId = "34A4CA4C-C6E5-4C7E-9ECD-8F87FE1EC3A4";
paths = (
{
closed = 1;
nodes = (
"550 593 OFFCURVE",
"519 595 OFFCURVE",
"450 590 CURVE SMOOTH",
"402 587 OFFCURVE",
"298 562 OFFCURVE",
"255 546 CURVE",
"254 559 LINE",
"206 545 OFFCURVE",
"174 531 OFFCURVE",
"155 510 CURVE SMOOTH",
"135 488 OFFCURVE",
"180 464 OFFCURVE",
"202 489 CURVE",
"203 497 OFFCURVE",
"225 504 OFFCURVE",
"253 511 CURVE SMOOTH",
"254 511 LINE",
"305 525 OFFCURVE",
"383 538 OFFCURVE",
"447 544 CURVE SMOOTH",
"496 548 OFFCURVE",
"541 547 OFFCURVE",
"565 543 CURVE",
"560 533 OFFCURVE",
"550 519 OFFCURVE",
"538 502 CURVE SMOOTH",
"501 450 OFFCURVE",
"442 372 OFFCURVE",
"388 297 CURVE SMOOTH",
"336 225 OFFCURVE",
"290 159 OFFCURVE",
"253 95 CURVE SMOOTH",
"230 56 OFFCURVE",
"209 18 OFFCURVE",
"194 -17 CURVE",
"188 -45 OFFCURVE",
"242 -54 OFFCURVE",
"248 -27 CURVE",
"262 7 OFFCURVE",
"279 41 OFFCURVE",
"301 78 CURVE SMOOTH",
"337 141 OFFCURVE",
"382 205 OFFCURVE",
"427 266 CURVE",
"427 266 OFFCURVE",
"547 427 OFFCURVE",
"583 481 CURVE SMOOTH",
"614 529 OFFCURVE",
"657 586 OFFCURVE",
"609 589 CURVE SMOOTH"
);
}
);
width = 522;
}
);
note = seven;
unicode = 0037;
},
{
glyphname = eight;
layers = (
{
hints = (
{
horizontal = 1;
place = "{-46, 46}";
type = Stem;
},
{
horizontal = 1;
place = "{548, 47}";
type = Stem;
},
{
place = "{507, 56}";
type = Stem;
}
);
layerId = "34A4CA4C-C6E5-4C7E-9ECD-8F87FE1EC3A4";
paths = (
{
closed = 1;
nodes = (
"321 595 OFFCURVE",
"256 527 OFFCURVE",
"239 451 CURVE SMOOTH",
"227 397 OFFCURVE",
"254 359 OFFCURVE",
"295 329 CURVE",
"200 282 OFFCURVE",
"107 223 OFFCURVE",
"81 129 CURVE SMOOTH",
"55 32 OFFCURVE",
"134 -49 OFFCURVE",
"268 -47 CURVE SMOOTH",
"462 -45 OFFCURVE",
"657 149 OFFCURVE",
"469 273 CURVE SMOOTH",
"441 291 OFFCURVE",
"409 308 OFFCURVE",
"379 324 CURVE",
"419 343 OFFCURVE",
"457 362 OFFCURVE",
"488 382 CURVE SMOOTH",
"603 456 OFFCURVE",
"590 596 OFFCURVE",
"442 596 CURVE SMOOTH"
);
},
{
closed = 1;
nodes = (
"423 388 OFFCURVE",
"382 370 OFFCURVE",
"339 351 CURVE",
"302 376 OFFCURVE",
"278 405 OFFCURVE",
"293 447 CURVE",
"308 512 OFFCURVE",
"346 549 OFFCURVE",
"436 549 CURVE SMOOTH",
"540 549 OFFCURVE",
"523 444 OFFCURVE",
"454 405 CURVE SMOOTH"
);
},
{
closed = 1;
nodes = (
"175 -3 OFFCURVE",
"117 55 OFFCURVE",
"135 125 CURVE SMOOTH",
"156 207 OFFCURVE",
"243 258 OFFCURVE",
"334 304 CURVE",
"368 285 OFFCURVE",
"404 269 OFFCURVE",
"433 250 CURVE SMOOTH",
"587 152 OFFCURVE",
"417 4 OFFCURVE",
"272 0 CURVE SMOOTH"
);
}
);
width = 576;
}
);
note = eight;
unicode = 0038;
},
{
glyphname = nine;
layers = (
{
hints = (
{
horizontal = 1;
place = "{548, 47}";
type = Stem;
},
{
place = "{552, 55}";
type = Stem;
}
);
layerId = "34A4CA4C-C6E5-4C7E-9ECD-8F87FE1EC3A4";
paths = (
{
closed = 1;
nodes = (
"496 234 LINE",
"397 176 OFFCURVE",
"324 162 OFFCURVE",
"275 169 CURVE SMOOTH",
"183 182 OFFCURVE",
"159 289 OFFCURVE",
"190 364 CURVE",
"190 365 LINE",
"209 417 OFFCURVE",
"244 463 OFFCURVE",
"286 495 CURVE SMOOTH",
"332 531 OFFCURVE",
"388 553 OFFCURVE",
"454 549 CURVE SMOOTH",
"518 546 OFFCURVE",
"549 503 OFFCURVE",
"552 437 CURVE SMOOTH",
"554 386 OFFCURVE",
"538 326 OFFCURVE",
"509 261 CURVE SMOOTH",
"504 252 OFFCURVE",
"500 243 OFFCURVE",
"495 234 CURVE"
);
},
{
closed = 1;
nodes = (
"606 443 LINE SMOOTH",
"606 528 OFFCURVE",
"558 591 OFFCURVE",
"460 596 CURVE SMOOTH",
"381 600 OFFCURVE",
"307 573 OFFCURVE",
"250 528 CURVE SMOOTH",
"198 487 OFFCURVE",
"160 434 OFFCURVE",
"134 369 CURVE",
"135 367 LINE",
"102 264 OFFCURVE",
"131 143 OFFCURVE",
"258 122 CURVE SMOOTH",
"309 113 OFFCURVE",
"374 125 OFFCURVE",
"453 161 CURVE",
"434 130 OFFCURVE",
"412 101 OFFCURVE",
"388 72 CURVE SMOOTH",
"350 28 OFFCURVE",
"308 -13 OFFCURVE",
"260 -51 CURVE SMOOTH",
"230 -75 OFFCURVE",
"266 -106 OFFCURVE",
"293 -84 CURVE SMOOTH",
"343 -42 OFFCURVE",
"393 1 OFFCURVE",
"434 50 CURVE SMOOTH",
"476 100 OFFCURVE",
"512 154 OFFCURVE",
"540 208 CURVE",
"544 209 LINE",
"557 217 OFFCURVE",
"559 228 OFFCURVE",
"555 237 CURVE",
"558 240 OFFCURVE",
"560 244 OFFCURVE",
"562 248 CURVE SMOOTH",
"593 318 OFFCURVE",
"606 387 OFFCURVE",
"606 442 CURVE SMOOTH"
);
}
);
width = 589;
}
);
note = nine;
unicode = 0039;
},
{
glyphname = zero.lf;
lastChange = "2021-11-22 20:19:17 +0000";
layers = (
{
hints = (
{
horizontal = 1;
place = "{-37, 46}";
type = Stem;
},
{
horizontal = 1;
place = "{615, -20}";
target = down;
type = TopGhost;
}
);
layerId = "34A4CA4C-C6E5-4C7E-9ECD-8F87FE1EC3A4";
paths = (
{
closed = 1;
nodes = (
"582 262 LINE",
"634 400 OFFCURVE",
"650 588 OFFCURVE",
"518 614 CURVE",
"406 624 OFFCURVE",
"218 484 OFFCURVE",
"116 276 CURVE",
"116 275 LINE",
"60 146 OFFCURVE",
"69 -37 OFFCURVE",
"219 -37 CURVE SMOOTH",
"220 -37 LINE SMOOTH",
"418 -37 OFFCURVE",
"536 138 OFFCURVE",
"582 261 CURVE"
);
},
{
closed = 1;
nodes = (
"126 -2 OFFCURVE",
"111 145 OFFCURVE",
"166 263 CURVE SMOOTH",
"242 423 OFFCURVE",
"442 592 OFFCURVE",
"507 578 CURVE",
"595 573 OFFCURVE",
"576 396 OFFCURVE",
"528 271 CURVE SMOOTH",
"484 157 OFFCURVE",
"373 -5 OFFCURVE",
"219 -3 CURVE SMOOTH"
);
}
);
width = 552;
}
);
note = zero;
},
{
glyphname = one.lf;
lastChange = "2021-11-22 20:19:17 +0000";
layers = (
{
hints = (
{
horizontal = 1;
place = "{596, -20}";
target = down;
type = TopGhost;
}
);
layerId = "34A4CA4C-C6E5-4C7E-9ECD-8F87FE1EC3A4";
paths = (
{
closed = 1;
nodes = (
"390 574 LINE",
"397 601 OFFCURVE",
"347 606 OFFCURVE",
"340 579 CURVE SMOOTH",
"307 451 OFFCURVE",
"175 210 OFFCURVE",
"102 -14 CURVE SMOOTH",
"94 -40 OFFCURVE",
"145 -49 OFFCURVE",
"151 -22 CURVE",
"226 202 OFFCURVE",
"356 443 OFFCURVE",
"391 574 CURVE"
);
}
);
width = 322;
}
);
note = one;
},
{
glyphname = two.lf;
lastChange = "2021-11-22 20:19:17 +0000";
layers = (
{
hints = (
{
horizontal = 1;
place = "{596, -20}";
target = down;
type = TopGhost;
}
);
layerId = "34A4CA4C-C6E5-4C7E-9ECD-8F87FE1EC3A4";
paths = (
{
closed = 1;
nodes = (
"508 601 OFFCURVE",
"429 602 OFFCURVE",
"354 582 CURVE SMOOTH",
"295 567 OFFCURVE",
"237 535 OFFCURVE",
"195 495 CURVE SMOOTH",
"172 472 OFFCURVE",
"213 441 OFFCURVE",
"236 463 CURVE SMOOTH",
"273 499 OFFCURVE",
"318 523 OFFCURVE",
"363 536 CURVE SMOOTH",
"425 555 OFFCURVE",
"493 552 OFFCURVE",
"536 536 CURVE SMOOTH",
"635 501 OFFCURVE",
"572 413 OFFCURVE",
"527 373 CURVE",
"463 322 OFFCURVE",
"376 280 OFFCURVE",
"292 235 CURVE SMOOTH",
"205 188 OFFCURVE",
"121 136 OFFCURVE",
"75 68 CURVE SMOOTH",
"62 50 OFFCURVE",
"48 32 OFFCURVE",
"43 9 CURVE SMOOTH",
"41 2 OFFCURVE",
"41 -34 OFFCURVE",
"77 -29 CURVE",
"146 -28 OFFCURVE",
"357 -2 OFFCURVE",
"438 -27 CURVE SMOOTH",
"469 -37 OFFCURVE",
"493 8 OFFCURVE",
"462 17 CURVE SMOOTH",
"371 45 OFFCURVE",
"181 22 OFFCURVE",
"104 18 CURVE",
"108 28 OFFCURVE",
"114 38 OFFCURVE",
"121 48 CURVE SMOOTH",
"163 108 OFFCURVE",
"236 155 OFFCURVE",
"316 199 CURVE SMOOTH",
"414 253 OFFCURVE",
"515 299 OFFCURVE",
"576 354 CURVE SMOOTH",
"653 425 OFFCURVE",
"686 540 OFFCURVE",
"565 582 CURVE SMOOTH"
);
}
);
width = 595;
}
);
note = two;
},
{
glyphname = three.lf;
lastChange = "2021-11-22 20:19:17 +0000";
layers = (
{
hints = (
{
horizontal = 1;
place = "{345, 32}";
type = Stem;
},
{
horizontal = 1;
place = "{603, -20}";
target = down;
type = TopGhost;
}
);
layerId = "34A4CA4C-C6E5-4C7E-9ECD-8F87FE1EC3A4";
paths = (
{
closed = 1;
nodes = (
"644 518 OFFCURVE",
"635 555 OFFCURVE",
"607 577 CURVE SMOOTH",
"568 609 OFFCURVE",
"499 613 OFFCURVE",
"425 589 CURVE SMOOTH",
"375 575 OFFCURVE",
"337 543 OFFCURVE",
"296 517 CURVE SMOOTH",
"265 498 OFFCURVE",
"296 461 OFFCURVE",
"327 482 CURVE SMOOTH",
"369 509 OFFCURVE",
"393 530 OFFCURVE",
"428 542 CURVE SMOOTH",
"489 564 OFFCURVE",
"544 562 OFFCURVE",
"569 541 CURVE SMOOTH",
"619 501 OFFCURVE",
"550 420 OFFCURVE",
"478 414 CURVE",
"456 400 OFFCURVE",
"380 388 OFFCURVE",
"358 381 CURVE SMOOTH",
"342 376 OFFCURVE",
"314 345 OFFCURVE",
"362 335 CURVE SMOOTH",
"384 330 OFFCURVE",
"428 332 OFFCURVE",
"460 318 CURVE SMOOTH",
"491 305 OFFCURVE",
"510 295 OFFCURVE",
"519 259 CURVE SMOOTH",
"549 116 OFFCURVE",
"407 -20 OFFCURVE",
"268 -6 CURVE SMOOTH",
"225 -1 OFFCURVE",
"192 14 OFFCURVE",
"172 37 CURVE SMOOTH",
"150 63 OFFCURVE",
"142 94 OFFCURVE",
"151 128 CURVE SMOOTH",
"158 152 OFFCURVE",
"105 159 OFFCURVE",
"97 134 CURVE SMOOTH",
"84 90 OFFCURVE",
"94 43 OFFCURVE",
"125 10 CURVE SMOOTH",
"155 -23 OFFCURVE",
"198 -47 OFFCURVE",
"257 -52 CURVE SMOOTH",
"419 -68 OFFCURVE",
"622 107 OFFCURVE",
"573 272 CURVE SMOOTH",
"561 315 OFFCURVE",
"521 358 OFFCURVE",
"479 366 CURVE",
"529 376 OFFCURVE",
"618 418 OFFCURVE",
"632 472 CURVE SMOOTH"
);
}
);
width = 615;
}
);
note = three;
},
{
glyphname = four.lf;
lastChange = "2021-11-22 20:19:17 +0000";
layers = (
{
hints = (
{
horizontal = 1;
place = "{160, 47}";
type = Stem;
},
{
horizontal = 1;
place = "{599, -20}";
target = down;
type = TopGhost;
}
);
layerId = "34A4CA4C-C6E5-4C7E-9ECD-8F87FE1EC3A4";
paths = (
{
closed = 1;
nodes = (
"651 526 OFFCURVE",
"602 541 OFFCURVE",
"588 515 CURVE SMOOTH",
"555 456 OFFCURVE",
"493 340 OFFCURVE",
"434 210 CURVE",
"330 213 OFFCURVE",
"221 213 OFFCURVE",
"168 213 CURVE",
"194 247 OFFCURVE",
"324 448 OFFCURVE",
"401 566 CURVE SMOOTH",
"419 594 OFFCURVE",
"374 612 OFFCURVE",
"357 586 CURVE SMOOTH",
"294 490 OFFCURVE",
"209 376 OFFCURVE",
"119 231 CURVE",
"87 189 OFFCURVE",
"129 164 OFFCURVE",
"160 165 CURVE SMOOTH",
"210 167 OFFCURVE",
"313 167 OFFCURVE",
"413 165 CURVE",
"381 89 OFFCURVE",
"351 12 OFFCURVE",
"329 -60 CURVE SMOOTH",
"321 -86 OFFCURVE",
"375 -91 OFFCURVE",
"383 -65 CURVE SMOOTH",
"406 6 OFFCURVE",
"437 85 OFFCURVE",
"470 162 CURVE",
"490 162 OFFCURVE",
"509 161 OFFCURVE",
"527 160 CURVE SMOOTH",
"565 158 OFFCURVE",
"573 205 OFFCURVE",
"535 207 CURVE SMOOTH",
"521 208 OFFCURVE",
"507 209 OFFCURVE",
"492 210 CURVE",
"547 333 OFFCURVE",
"605 444 OFFCURVE",
"637 501 CURVE SMOOTH"
);
}
);
width = 609;
}
);
note = four;
},
{
glyphname = five.lf;
lastChange = "2021-11-22 20:19:17 +0000";
layers = (
{
hints = (
{
horizontal = 1;
place = "{365, 23}";
type = Stem;
},
{
horizontal = 1;
place = "{552, 47}";
type = Stem;
}
);
layerId = "34A4CA4C-C6E5-4C7E-9ECD-8F87FE1EC3A4";
paths = (
{
closed = 1;
nodes = (
"669 597 OFFCURVE",
"634 600 OFFCURVE",
"589 600 CURVE SMOOTH",
"541 600 OFFCURVE",
"475 599 OFFCURVE",
"386 599 CURVE",
"351 586 OFFCURVE",
"325 545 OFFCURVE",
"303 517 CURVE",
"303 520 LINE",
"254 453 OFFCURVE",
"227 408 OFFCURVE",
"215 385 CURVE",
"215 383 LINE",
"208 360 OFFCURVE",
"218 341 OFFCURVE",
"246 341 CURVE SMOOTH",
"302 341 OFFCURVE",
"352 341 OFFCURVE",
"390 335 CURVE SMOOTH",
"501 319 OFFCURVE",
"545 283 OFFCURVE",
"524 205 CURVE SMOOTH",
"489 71 OFFCURVE",
"399 20 OFFCURVE",
"317 8 CURVE SMOOTH",
"252 -1 OFFCURVE",
"188 17 OFFCURVE",
"150 66 CURVE SMOOTH",
"133 87 OFFCURVE",
"87 59 OFFCURVE",
"103 38 CURVE SMOOTH",
"150 -22 OFFCURVE",
"233 -49 OFFCURVE",
"322 -38 CURVE SMOOTH",
"425 -25 OFFCURVE",
"538 47 OFFCURVE",
"579 200 CURVE SMOOTH",
"606 303 OFFCURVE",
"543 364 OFFCURVE",
"406 382 CURVE SMOOTH",
"372 387 OFFCURVE",
"327 387 OFFCURVE",
"276 387 CURVE",
"287 411 OFFCURVE",
"305 444 OFFCURVE",
"327 474 CURVE SMOOTH",
"328 475 LINE",
"346 505 OFFCURVE",
"374 536 OFFCURVE",
"386 553 CURVE",
"472 552 OFFCURVE",
"534 553 OFFCURVE",
"582 553 CURVE SMOOTH",
"621 553 OFFCURVE",
"645 550 OFFCURVE",
"666 540 CURVE SMOOTH",
"692 528 OFFCURVE",
"722 568 OFFCURVE",
"695 583 CURVE SMOOTH"
);
}
);
width = 590;
}
);
note = five;
},
{
glyphname = six.lf;
lastChange = "2021-11-22 20:19:17 +0000";
layers = (
{
hints = (
{
horizontal = 1;
place = "{-52, 46}";
type = Stem;
},
{
horizontal = 1;
place = "{348, 47}";
type = Stem;
},
{
horizontal = 1;
place = "{596, 47}";
type = Stem;
}
);
layerId = "34A4CA4C-C6E5-4C7E-9ECD-8F87FE1EC3A4";
paths = (
{
closed = 1;
nodes = (
"592 303 LINE",
"570 362 OFFCURVE",
"513 395 OFFCURVE",
"445 395 CURVE SMOOTH",
"386 395 OFFCURVE",
"317 374 OFFCURVE",
"253 310 CURVE SMOOTH",
"230 287 OFFCURVE",
"271 258 OFFCURVE",
"294 280 CURVE SMOOTH",
"348 333 OFFCURVE",
"394 348 OFFCURVE",
"439 348 CURVE SMOOTH",
"484 348 OFFCURVE",
"523 326 OFFCURVE",
"538 284 CURVE SMOOTH",
"547 257 OFFCURVE",
"548 221 OFFCURVE",
"536 176 CURVE SMOOTH",
"523 130 OFFCURVE",
"490 82 OFFCURVE",
"446 48 CURVE SMOOTH",
"404 15 OFFCURVE",
"354 -6 OFFCURVE",
"295 -6 CURVE SMOOTH",
"234 -5 OFFCURVE",
"201 15 OFFCURVE",
"184 48 CURVE SMOOTH",
"162 88 OFFCURVE",
"173 156 OFFCURVE",
"199 233 CURVE SMOOTH",
"220 296 OFFCURVE",
"253 370 OFFCURVE",
"295 433 CURVE SMOOTH",
"322 474 OFFCURVE",
"352 512 OFFCURVE",
"380 541 CURVE SMOOTH",
"412 575 OFFCURVE",
"447 596 OFFCURVE",
"467 596 CURVE SMOOTH",
"505 596 OFFCURVE",
"511 643 OFFCURVE",
"473 643 CURVE SMOOTH",
"425 643 OFFCURVE",
"379 611 OFFCURVE",
"337 568 CURVE SMOOTH",
"306 536 OFFCURVE",
"276 495 OFFCURVE",
"249 453 CURVE SMOOTH",
"204 383 OFFCURVE",
"165 308 OFFCURVE",
"144 243 CURVE SMOOTH",
"116 156 OFFCURVE",
"107 80 OFFCURVE",
"132 27 CURVE SMOOTH",
"154 -21 OFFCURVE",
"204 -50 OFFCURVE",
"289 -51 CURVE SMOOTH",
"362 -51 OFFCURVE",
"430 -27 OFFCURVE",
"482 15 CURVE SMOOTH",
"535 58 OFFCURVE",
"576 115 OFFCURVE",
"590 171 CURVE SMOOTH",
"603 224 OFFCURVE",
"604 268 OFFCURVE",
"591 303 CURVE"
);
}
);
width = 595;
}
);
note = six;
},
{
glyphname = seven.lf;
lastChange = "2021-11-22 20:19:17 +0000";
layers = (
{
hints = (
{
horizontal = 1;
place = "{511, 79}";
type = Stem;
}
);
layerId = "34A4CA4C-C6E5-4C7E-9ECD-8F87FE1EC3A4";
paths = (
{
closed = 1;
nodes = (
"550 593 OFFCURVE",
"519 595 OFFCURVE",
"450 590 CURVE SMOOTH",
"402 587 OFFCURVE",
"298 562 OFFCURVE",
"255 546 CURVE",
"254 559 LINE",
"206 545 OFFCURVE",
"174 531 OFFCURVE",
"155 510 CURVE SMOOTH",
"135 488 OFFCURVE",
"180 464 OFFCURVE",
"202 489 CURVE",
"203 497 OFFCURVE",
"225 504 OFFCURVE",
"253 511 CURVE SMOOTH",
"254 511 LINE",
"305 525 OFFCURVE",
"383 538 OFFCURVE",
"447 544 CURVE SMOOTH",
"496 548 OFFCURVE",
"541 547 OFFCURVE",
"565 543 CURVE",
"560 533 OFFCURVE",
"550 519 OFFCURVE",
"538 502 CURVE SMOOTH",
"501 450 OFFCURVE",
"442 372 OFFCURVE",
"388 297 CURVE SMOOTH",
"336 225 OFFCURVE",
"290 159 OFFCURVE",
"253 95 CURVE SMOOTH",
"230 56 OFFCURVE",
"209 18 OFFCURVE",
"194 -17 CURVE",
"188 -45 OFFCURVE",
"242 -54 OFFCURVE",
"248 -27 CURVE",
"262 7 OFFCURVE",
"279 41 OFFCURVE",
"301 78 CURVE SMOOTH",
"337 141 OFFCURVE",
"382 205 OFFCURVE",
"427 266 CURVE",
"427 266 OFFCURVE",
"547 427 OFFCURVE",
"583 481 CURVE SMOOTH",
"614 529 OFFCURVE",
"657 586 OFFCURVE",
"609 589 CURVE SMOOTH"
);
}
);
width = 522;
}
);
note = seven;
},
{
glyphname = eight.lf;
lastChange = "2021-11-22 20:19:17 +0000";
layers = (
{
hints = (
{
horizontal = 1;
place = "{-46, 46}";
type = Stem;
},
{
horizontal = 1;
place = "{548, 47}";
type = Stem;
},
{
place = "{507, 56}";
type = Stem;
}
);
layerId = "34A4CA4C-C6E5-4C7E-9ECD-8F87FE1EC3A4";
paths = (
{
closed = 1;
nodes = (
"321 595 OFFCURVE",
"256 527 OFFCURVE",
"239 451 CURVE SMOOTH",
"227 397 OFFCURVE",
"254 359 OFFCURVE",
"295 329 CURVE",
"200 282 OFFCURVE",
"107 223 OFFCURVE",
"81 129 CURVE SMOOTH",
"55 32 OFFCURVE",
"134 -49 OFFCURVE",
"268 -47 CURVE SMOOTH",
"462 -45 OFFCURVE",
"657 149 OFFCURVE",
"469 273 CURVE SMOOTH",
"441 291 OFFCURVE",
"409 308 OFFCURVE",
"379 324 CURVE",
"419 343 OFFCURVE",
"457 362 OFFCURVE",
"488 382 CURVE SMOOTH",
"603 456 OFFCURVE",
"590 596 OFFCURVE",
"442 596 CURVE SMOOTH"
);
},
{
closed = 1;
nodes = (
"423 388 OFFCURVE",
"382 370 OFFCURVE",
"339 351 CURVE",
"302 376 OFFCURVE",
"278 405 OFFCURVE",
"293 447 CURVE",
"308 512 OFFCURVE",
"346 549 OFFCURVE",
"436 549 CURVE SMOOTH",
"540 549 OFFCURVE",
"523 444 OFFCURVE",
"454 405 CURVE SMOOTH"
);
},
{
closed = 1;
nodes = (
"175 -3 OFFCURVE",
"117 55 OFFCURVE",
"135 125 CURVE SMOOTH",
"156 207 OFFCURVE",
"243 258 OFFCURVE",
"334 304 CURVE",
"368 285 OFFCURVE",
"404 269 OFFCURVE",
"433 250 CURVE SMOOTH",
"587 152 OFFCURVE",
"417 4 OFFCURVE",
"272 0 CURVE SMOOTH"
);
}
);
width = 576;
}
);
note = eight;
},
{
glyphname = nine.lf;
lastChange = "2021-11-22 20:19:17 +0000";
layers = (
{
hints = (
{
horizontal = 1;
place = "{548, 47}";
type = Stem;
},
{
place = "{552, 55}";
type = Stem;
}
);
layerId = "34A4CA4C-C6E5-4C7E-9ECD-8F87FE1EC3A4";
paths = (
{
closed = 1;
nodes = (
"496 234 LINE",
"397 176 OFFCURVE",
"324 162 OFFCURVE",
"275 169 CURVE SMOOTH",
"183 182 OFFCURVE",
"159 289 OFFCURVE",
"190 364 CURVE",
"190 365 LINE",
"209 417 OFFCURVE",
"244 463 OFFCURVE",
"286 495 CURVE SMOOTH",
"332 531 OFFCURVE",
"388 553 OFFCURVE",
"454 549 CURVE SMOOTH",
"518 546 OFFCURVE",
"549 503 OFFCURVE",
"552 437 CURVE SMOOTH",
"554 386 OFFCURVE",
"538 326 OFFCURVE",
"509 261 CURVE SMOOTH",
"504 252 OFFCURVE",
"500 243 OFFCURVE",
"495 234 CURVE"
);
},
{
closed = 1;
nodes = (
"606 443 LINE SMOOTH",
"606 528 OFFCURVE",
"558 591 OFFCURVE",
"460 596 CURVE SMOOTH",
"381 600 OFFCURVE",
"307 573 OFFCURVE",
"250 528 CURVE SMOOTH",
"198 487 OFFCURVE",
"160 434 OFFCURVE",
"134 369 CURVE",
"135 367 LINE",
"102 264 OFFCURVE",
"131 143 OFFCURVE",
"258 122 CURVE SMOOTH",
"309 113 OFFCURVE",
"374 125 OFFCURVE",
"453 161 CURVE",
"434 130 OFFCURVE",
"412 101 OFFCURVE",
"388 72 CURVE SMOOTH",
"350 28 OFFCURVE",
"308 -13 OFFCURVE",
"260 -51 CURVE SMOOTH",
"230 -75 OFFCURVE",
"266 -106 OFFCURVE",
"293 -84 CURVE SMOOTH",
"343 -42 OFFCURVE",
"393 1 OFFCURVE",
"434 50 CURVE SMOOTH",
"476 100 OFFCURVE",
"512 154 OFFCURVE",
"540 208 CURVE",
"544 209 LINE",
"557 217 OFFCURVE",
"559 228 OFFCURVE",
"555 237 CURVE",
"558 240 OFFCURVE",
"560 244 OFFCURVE",
"562 248 CURVE SMOOTH",
"593 318 OFFCURVE",
"606 387 OFFCURVE",
"606 442 CURVE SMOOTH"
);
}
);
width = 589;
}
);
note = nine;
},
{
glyphname = onesuperior;
lastChange = "2021-12-22 06:54:07 +0000";
layers = (
{
hints = (
{
horizontal = 1;
place = "{208, 420}";
type = Stem;
},
{
place = "{63, 192}";
type = Stem;
},
{
place = "{222, 33}";
type = Stem;
},
{
horizontal = 1;
place = "{634.6, -20}";
target = down;
type = TopGhost;
}
);
layerId = "34A4CA4C-C6E5-4C7E-9ECD-8F87FE1EC3A4";
paths = (
{
closed = 1;
nodes = (
"221 621 LINE",
"220 621 LINE",
"226 620 LINE",
"229 633 OFFCURVE",
"218 639 OFFCURVE",
"207 639 CURVE SMOOTH",
"197 639 OFFCURVE",
"187 635 OFFCURVE",
"184 625 CURVE SMOOTH",
"174 588 OFFCURVE",
"151 535 OFFCURVE",
"124 475 CURVE SMOOTH",
"96 411 OFFCURVE",
"64 338 OFFCURVE",
"41 270 CURVE SMOOTH",
"38 258 OFFCURVE",
"51 250 OFFCURVE",
"63 250 CURVE SMOOTH",
"72 250 OFFCURVE",
"80 254 OFFCURVE",
"82 263 CURVE",
"105 331 OFFCURVE",
"136 401 OFFCURVE",
"164 464 CURVE SMOOTH",
"191 526 OFFCURVE",
"216 582 OFFCURVE",
"226 620 CURVE"
);
}
);
width = 267;
}
);
note = onesuperior;
unicode = 00B9;
},
{
glyphname = twosuperior;
lastChange = "2021-11-22 20:08:29 +0000";
layers = (
{
hints = (
{
horizontal = 1;
place = "{245, 23}";
type = Stem;
},
{
horizontal = 1;
place = "{619, 31}";
type = Stem;
},
{
place = "{25, 41}";
type = Stem;
},
{
place = "{386, 37}";
type = Stem;
},
{
horizontal = 1;
place = "{640.6, -20}";
target = down;
type = TopGhost;
}
);
layerId = "34A4CA4C-C6E5-4C7E-9ECD-8F87FE1EC3A4";
paths = (
{
closed = 1;
nodes = (
"323 642 OFFCURVE",
"302 645 OFFCURVE",
"279 645 CURVE SMOOTH",
"257 645 OFFCURVE",
"233 642 OFFCURVE",
"211 636 CURVE SMOOTH",
"174 627 OFFCURVE",
"138 607 OFFCURVE",
"113 583 CURVE SMOOTH",
"109 579 OFFCURVE",
"107 575 OFFCURVE",
"107 571 CURVE SMOOTH",
"107 561 OFFCURVE",
"119 552 OFFCURVE",
"131 552 CURVE SMOOTH",
"136 552 OFFCURVE",
"142 554 OFFCURVE",
"146 558 CURVE SMOOTH",
"167 579 OFFCURVE",
"192 593 OFFCURVE",
"220 601 CURVE SMOOTH",
"237 606 OFFCURVE",
"255 609 OFFCURVE",
"273 609 CURVE SMOOTH",
"290 609 OFFCURVE",
"307 606 OFFCURVE",
"320 601 CURVE SMOOTH",
"340 594 OFFCURVE",
"348 582 OFFCURVE",
"348 569 CURVE SMOOTH",
"348 548 OFFCURVE",
"328 524 OFFCURVE",
"312 510 CURVE SMOOTH",
"281 485 OFFCURVE",
"241 464 OFFCURVE",
"199 442 CURVE SMOOTH",
"191 437 OFFCURVE",
"181 432 OFFCURVE",
"172 428 CURVE SMOOTH",
"119 399 OFFCURVE",
"68 367 OFFCURVE",
"40 326 CURVE SMOOTH",
"32 315 OFFCURVE",
"23 303 OFFCURVE",
"20 289 CURVE SMOOTH",
"19 284 OFFCURVE",
"19 258 OFFCURVE",
"47 262 CURVE",
"57 262 OFFCURVE",
"74 263 OFFCURVE",
"94 264 CURVE SMOOTH",
"126 266 OFFCURVE",
"165 269 OFFCURVE",
"199 269 CURVE SMOOTH",
"224 269 OFFCURVE",
"246 268 OFFCURVE",
"261 263 CURVE SMOOTH",
"278 258 OFFCURVE",
"292 271 OFFCURVE",
"292 283 CURVE SMOOTH",
"292 289 OFFCURVE",
"288 294 OFFCURVE",
"279 297 CURVE SMOOTH",
"259 303 OFFCURVE",
"231 305 OFFCURVE",
"201 305 CURVE SMOOTH",
"165 305 OFFCURVE",
"125 302 OFFCURVE",
"95 300 CURVE SMOOTH",
"86 299 OFFCURVE",
"78 299 OFFCURVE",
"71 298 CURVE",
"73 302 OFFCURVE",
"75 306 OFFCURVE",
"78 310 CURVE SMOOTH",
"99 340 OFFCURVE",
"132 366 OFFCURVE",
"192 399 CURVE SMOOTH",
"207 407 OFFCURVE",
"221 414 OFFCURVE",
"235 422 CURVE SMOOTH",
"279 445 OFFCURVE",
"322 468 OFFCURVE",
"350 492 CURVE SMOOTH",
"379 519 OFFCURVE",
"393 548 OFFCURVE",
"393 573 CURVE SMOOTH",
"393 601 OFFCURVE",
"376 624 OFFCURVE",
"341 636 CURVE SMOOTH"
);
}
);
width = 433;
}
);
note = twosuperior;
unicode = 00B2;
},
{
glyphname = threesuperior;
lastChange = "2021-11-22 20:08:29 +0000";
layers = (
{
hints = (
{
horizontal = 1;
place = "{196, 31}";
type = Stem;
},
{
horizontal = 1;
place = "{490, -20}";
target = down;
type = TopGhost;
},
{
horizontal = 1;
place = "{610, 32}";
type = Stem;
},
{
place = "{3, 41}";
type = Stem;
},
{
place = "{297, 39}";
type = Stem;
},
{
place = "{340, 34}";
type = Stem;
},
{
horizontal = 1;
place = "{480, -20}";
target = down;
type = TopGhost;
},
{
horizontal = 1;
place = "{475, 19.2}";
type = Stem;
},
{
horizontal = 1;
place = "{629.8, -20}";
target = down;
type = TopGhost;
}
);
layerId = "34A4CA4C-C6E5-4C7E-9ECD-8F87FE1EC3A4";
paths = (
{
closed = 1;
nodes = (
"353 567 OFFCURVE",
"354 575 OFFCURVE",
"354 582 CURVE SMOOTH",
"354 600 OFFCURVE",
"348 614 OFFCURVE",
"334 625 CURVE SMOOTH",
"320 637 OFFCURVE",
"300 642 OFFCURVE",
"276 642 CURVE SMOOTH",
"258 642 OFFCURVE",
"239 639 OFFCURVE",
"219 633 CURVE SMOOTH",
"195 626 OFFCURVE",
"176 614 OFFCURVE",
"157 601 CURVE SMOOTH",
"152 597 OFFCURVE",
"145 593 OFFCURVE",
"140 590 CURVE SMOOTH",
"133 585 OFFCURVE",
"130 580 OFFCURVE",
"130 575 CURVE SMOOTH",
"130 565 OFFCURVE",
"139 557 OFFCURVE",
"151 557 CURVE SMOOTH",
"156 557 OFFCURVE",
"161 559 OFFCURVE",
"166 562 CURVE SMOOTH",
"171 566 OFFCURVE",
"175 568 OFFCURVE",
"184 574 CURVE SMOOTH",
"199 585 OFFCURVE",
"211 593 OFFCURVE",
"225 597 CURVE SMOOTH",
"242 604 OFFCURVE",
"259 607 OFFCURVE",
"272 607 CURVE SMOOTH",
"286 607 OFFCURVE",
"297 604 OFFCURVE",
"304 598 CURVE SMOOTH",
"309 593 OFFCURVE",
"312 588 OFFCURVE",
"312 581 CURVE SMOOTH",
"312 559 OFFCURVE",
"284 531 OFFCURVE",
"252 528 CURVE SMOOTH",
"250 528 LINE",
"243 523 OFFCURVE",
"230 520 OFFCURVE",
"201 514 CURVE SMOOTH",
"192 512 OFFCURVE",
"183 510 OFFCURVE",
"179 508 CURVE",
"172 506 OFFCURVE",
"161 497 OFFCURVE",
"161 489 CURVE SMOOTH",
"161 482 OFFCURVE",
"167 476 OFFCURVE",
"182 473 CURVE SMOOTH",
"187 472 OFFCURVE",
"193 471 OFFCURVE",
"200 471 CURVE SMOOTH",
"221 469 OFFCURVE",
"230 467 OFFCURVE",
"240 463 CURVE SMOOTH",
"257 456 OFFCURVE",
"266 451 OFFCURVE",
"272 431 CURVE",
"273 424 OFFCURVE",
"274 417 OFFCURVE",
"274 410 CURVE SMOOTH",
"274 341 OFFCURVE",
"210 275 OFFCURVE",
"138 275 CURVE SMOOTH",
"107 275 OFFCURVE",
"87 286 OFFCURVE",
"74 301 CURVE SMOOTH",
"65 312 OFFCURVE",
"61 325 OFFCURVE",
"61 338 CURVE SMOOTH",
"61 343 OFFCURVE",
"61 348 OFFCURVE",
"62 352 CURVE SMOOTH",
"65 363 OFFCURVE",
"53 370 OFFCURVE",
"40 370 CURVE SMOOTH",
"31 370 OFFCURVE",
"21 366 OFFCURVE",
"18 358 CURVE SMOOTH",
"16 350 OFFCURVE",
"15 342 OFFCURVE",
"15 335 CURVE SMOOTH",
"15 314 OFFCURVE",
"22 295 OFFCURVE",
"37 279 CURVE SMOOTH",
"59 254 OFFCURVE",
"92 240 OFFCURVE",
"133 240 CURVE SMOOTH",
"221 240 OFFCURVE",
"321 322 OFFCURVE",
"321 409 CURVE SMOOTH",
"321 419 OFFCURVE",
"319 430 OFFCURVE",
"316 440 CURVE SMOOTH",
"309 464 OFFCURVE",
"290 486 OFFCURVE",
"268 495 CURVE",
"300 505 OFFCURVE",
"343 529 OFFCURVE",
"351 558 CURVE SMOOTH"
);
}
);
width = 394;
}
);
note = threesuperior;
unicode = 00B3;
},
{
glyphname = foursuperior;
lastChange = "2021-11-22 20:08:29 +0000";
layers = (
{
hints = (
{
horizontal = 1;
place = "{394, 28.2}";
type = Stem;
},
{
horizontal = 1;
place = "{657.4, -20}";
target = down;
type = TopGhost;
}
);
layerId = "34A4CA4C-C6E5-4C7E-9ECD-8F87FE1EC3A4";
paths = (
{
closed = 1;
nodes = (
"356 610 OFFCURVE",
"342 619 OFFCURVE",
"328 619 CURVE SMOOTH",
"320 619 OFFCURVE",
"313 616 OFFCURVE",
"309 609 CURVE SMOOTH",
"289 573 OFFCURVE",
"252 505 OFFCURVE",
"217 428 CURVE",
"162 430 OFFCURVE",
"105 430 OFFCURVE",
"71 430 CURVE",
"90 456 OFFCURVE",
"139 531 OFFCURVE",
"179 593 CURVE SMOOTH",
"189 608 OFFCURVE",
"199 623 OFFCURVE",
"207 635 CURVE SMOOTH",
"209 638 OFFCURVE",
"210 642 OFFCURVE",
"210 645 CURVE SMOOTH",
"210 654 OFFCURVE",
"200 661 OFFCURVE",
"189 661 CURVE SMOOTH",
"182 661 OFFCURVE",
"174 658 OFFCURVE",
"170 652 CURVE SMOOTH",
"156 630 OFFCURVE",
"141 608 OFFCURVE",
"124 584 CURVE SMOOTH",
"95 542 OFFCURVE",
"61 493 OFFCURVE",
"27 439 CURVE SMOOTH",
"22 432 OFFCURVE",
"20 426 OFFCURVE",
"20 420 CURVE SMOOTH",
"20 405 OFFCURVE",
"34 393 OFFCURVE",
"55 393 CURVE SMOOTH",
"70 393 OFFCURVE",
"92 394 OFFCURVE",
"119 394 CURVE SMOOTH",
"144 394 OFFCURVE",
"173 394 OFFCURVE",
"201 393 CURVE",
"182 349 OFFCURVE",
"165 304 OFFCURVE",
"153 263 CURVE SMOOTH",
"149 251 OFFCURVE",
"161 245 OFFCURVE",
"173 245 CURVE SMOOTH",
"183 245 OFFCURVE",
"194 249 OFFCURVE",
"197 258 CURVE SMOOTH",
"210 300 OFFCURVE",
"228 346 OFFCURVE",
"247 391 CURVE",
"259 391 OFFCURVE",
"268 390 OFFCURVE",
"279 390 CURVE SMOOTH",
"294 390 OFFCURVE",
"303 399 OFFCURVE",
"303 409 CURVE SMOOTH",
"303 418 OFFCURVE",
"296 426 OFFCURVE",
"282 426 CURVE",
"276 427 OFFCURVE",
"270 427 OFFCURVE",
"264 427 CURVE",
"297 500 OFFCURVE",
"330 564 OFFCURVE",
"348 597 CURVE SMOOTH"
);
}
);
width = 390;
}
);
unicode = 2074;
},
{
glyphname = period;
layers = (
{
hints = (
{
horizontal = 1;
place = "{-32, 87}";
type = Stem;
},
{
place = "{76, 78}";
type = Stem;
}
);
layerId = "34A4CA4C-C6E5-4C7E-9ECD-8F87FE1EC3A4";
paths = (
{
closed = 1;
nodes = (
"71 -17 OFFCURVE",
"101 -39 OFFCURVE",
"114 -30 CURVE SMOOTH",
"146 -8 OFFCURVE",
"153 23 OFFCURVE",
"154 30 CURVE SMOOTH",
"159 55 OFFCURVE",
"118 62 OFFCURVE",
"102 47 CURVE SMOOTH",
"89 34 OFFCURVE",
"82 22 OFFCURVE",
"76 2 CURVE SMOOTH"
);
}
);
width = 192;
}
);
note = period;
unicode = 002E;
},
{
glyphname = comma;
lastChange = "2021-11-22 19:37:15 +0000";
layers = (
{
hints = (
{
horizontal = 1;
place = "{-164, 226}";
type = Stem;
},
{
place = "{85, 51}";
type = Stem;
}
);
layerId = "34A4CA4C-C6E5-4C7E-9ECD-8F87FE1EC3A4";
paths = (
{
closed = 1;
nodes = (
"124 75 OFFCURVE",
"76 61 OFFCURVE",
"85 30 CURVE SMOOTH",
"87 22 OFFCURVE",
"86 2 OFFCURVE",
"78 -17 CURVE SMOOTH",
"64 -49 OFFCURVE",
"39 -85 OFFCURVE",
"2 -123 CURVE SMOOTH",
"-19 -146 OFFCURVE",
"7 -171 OFFCURVE",
"30 -150 CURVE SMOOTH",
"62 -120 OFFCURVE",
"104 -82 OFFCURVE",
"123 -37 CURVE SMOOTH",
"135 -10 OFFCURVE",
"140 18 OFFCURVE",
"132 45 CURVE SMOOTH"
);
}
);
width = 206;
}
);
note = comma;
unicode = 002C;
},
{
glyphname = colon;
layers = (
{
hints = (
{
horizontal = 1;
place = "{-32, 88}";
type = Stem;
},
{
horizontal = 1;
place = "{187, 88}";
type = Stem;
},
{
place = "{84, 162}";
type = Stem;
},
{
place = "{85, 66}";
type = Stem;
}
);
layerId = "34A4CA4C-C6E5-4C7E-9ECD-8F87FE1EC3A4";
paths = (
{
closed = 1;
nodes = (
"80 -14 OFFCURVE",
"102 -41 OFFCURVE",
"112 -29 CURVE SMOOTH",
"133 -3 OFFCURVE",
"144 23 OFFCURVE",
"148 29 CURVE SMOOTH",
"160 49 OFFCURVE",
"127 65 OFFCURVE",
"111 50 CURVE SMOOTH",
"98 37 OFFCURVE",
"91 25 OFFCURVE",
"85 5 CURVE SMOOTH"
);
},
{
closed = 1;
nodes = (
"180 224 LINE",
"175 205 OFFCURVE",
"198 178 OFFCURVE",
"208 190 CURVE SMOOTH",
"228 215 OFFCURVE",
"239 241 OFFCURVE",
"243 247 CURVE SMOOTH",
"255 268 OFFCURVE",
"222 285 OFFCURVE",
"206 269 CURVE SMOOTH",
"193 256 OFFCURVE",
"186 244 OFFCURVE",
"181 224 CURVE"
);
}
);
width = 192;
}
);
note = colon;
unicode = 003A;
},
{
glyphname = semicolon;
layers = (
{
hints = (
{
horizontal = 1;
place = "{188, 88}";
type = Stem;
},
{
place = "{128, 51}";
type = Stem;
}
);
layerId = "34A4CA4C-C6E5-4C7E-9ECD-8F87FE1EC3A4";
paths = (
{
closed = 1;
nodes = (
"175 38 LINE",
"167 69 OFFCURVE",
"119 55 OFFCURVE",
"128 24 CURVE SMOOTH",
"130 16 OFFCURVE",
"129 -4 OFFCURVE",
"121 -23 CURVE SMOOTH",
"107 -55 OFFCURVE",
"73 -90 OFFCURVE",
"37 -129 CURVE SMOOTH",
"15 -152 OFFCURVE",
"52 -186 OFFCURVE",
"73 -163 CURVE SMOOTH",
"109 -124 OFFCURVE",
"147 -88 OFFCURVE",
"166 -43 CURVE SMOOTH",
"178 -16 OFFCURVE",
"183 12 OFFCURVE",
"175 39 CURVE"
);
},
{
closed = 1;
nodes = (
"180 225 LINE",
"175 206 OFFCURVE",
"198 179 OFFCURVE",
"208 191 CURVE SMOOTH",
"228 216 OFFCURVE",
"239 242 OFFCURVE",
"243 248 CURVE SMOOTH",
"255 269 OFFCURVE",
"222 286 OFFCURVE",
"206 270 CURVE SMOOTH",
"193 257 OFFCURVE",
"186 245 OFFCURVE",
"181 225 CURVE"
);
}
);
width = 274;
}
);
note = semicolon;
unicode = 003B;
},
{
glyphname = ellipsis;
layers = (
{
hints = (
{
horizontal = 1;
place = "{-35, 88}";
type = Stem;
},
{
place = "{85, 488}";
type = Stem;
},
{
place = "{506, 67}";
type = Stem;
}
);
layerId = "34A4CA4C-C6E5-4C7E-9ECD-8F87FE1EC3A4";
paths = (
{
closed = 1;
nodes = (
"506 2 LINE",
"501 -17 OFFCURVE",
"524 -44 OFFCURVE",
"534 -32 CURVE SMOOTH",
"555 -6 OFFCURVE",
"566 20 OFFCURVE",
"570 26 CURVE SMOOTH",
"582 46 OFFCURVE",
"549 62 OFFCURVE",
"533 47 CURVE SMOOTH",
"520 34 OFFCURVE",
"512 22 OFFCURVE",
"507 2 CURVE"
);
},
{
closed = 1;
nodes = (
"293 -17 OFFCURVE",
"316 -44 OFFCURVE",
"326 -32 CURVE SMOOTH",
"346 -6 OFFCURVE",
"357 20 OFFCURVE",
"361 26 CURVE SMOOTH",
"373 46 OFFCURVE",
"340 62 OFFCURVE",
"324 47 CURVE SMOOTH",
"311 34 OFFCURVE",
"303 22 OFFCURVE",
"298 2 CURVE SMOOTH"
);
},
{
closed = 1;
nodes = (
"81 -17 OFFCURVE",
"103 -44 OFFCURVE",
"113 -32 CURVE SMOOTH",
"134 -6 OFFCURVE",
"145 20 OFFCURVE",
"149 26 CURVE SMOOTH",
"161 46 OFFCURVE",
"128 62 OFFCURVE",
"112 47 CURVE SMOOTH",
"99 34 OFFCURVE",
"92 22 OFFCURVE",
"86 2 CURVE SMOOTH"
);
}
);
width = 631;
}
);
note = ellipsis;
unicode = 2026;
},
{
glyphname = exclam;
layers = (
{
hints = (
{
horizontal = 1;
place = "{588, -20}";
target = down;
type = TopGhost;
}
);
layerId = "34A4CA4C-C6E5-4C7E-9ECD-8F87FE1EC3A4";
paths = (
{
closed = 1;
nodes = (
"425 552 LINE",
"440 580 OFFCURVE",
"397 603 OFFCURVE",
"382 575 CURVE SMOOTH",
"351 517 OFFCURVE",
"335 484 OFFCURVE",
"302 428 CURVE SMOOTH",
"273 380 OFFCURVE",
"260 363 OFFCURVE",
"231 308 CURVE SMOOTH",
"206 260 OFFCURVE",
"188 220 OFFCURVE",
"168 173 CURVE SMOOTH",
"156 144 OFFCURVE",
"188 133 OFFCURVE",
"201 162 CURVE SMOOTH",
"222 211 OFFCURVE",
"237 231 OFFCURVE",
"261 275 CURVE SMOOTH",
"287 324 OFFCURVE",
"313 348 OFFCURVE",
"345 403 CURVE SMOOTH",
"378 460 OFFCURVE",
"395 495 OFFCURVE",
"425 551 CURVE"
);
},
{
closed = 1;
nodes = (
"80 -18 OFFCURVE",
"102 -45 OFFCURVE",
"112 -33 CURVE SMOOTH",
"133 -7 OFFCURVE",
"144 19 OFFCURVE",
"148 25 CURVE SMOOTH",
"160 45 OFFCURVE",
"127 61 OFFCURVE",
"111 46 CURVE SMOOTH",
"98 33 OFFCURVE",
"91 21 OFFCURVE",
"85 1 CURVE SMOOTH"
);
}
);
width = 282;
}
);
note = exclam;
unicode = 0021;
},
{
glyphname = exclamdown;
layers = (
{
hints = (
{
horizontal = 1;
place = "{133, 88}";
type = Stem;
},
{
place = "{-137, 344}";
type = Stem;
}
);
layerId = "34A4CA4C-C6E5-4C7E-9ECD-8F87FE1EC3A4";
paths = (
{
closed = 1;
nodes = (
"-149 -394 OFFCURVE",
"-106 -417 OFFCURVE",
"-91 -389 CURVE SMOOTH",
"-60 -331 OFFCURVE",
"-44 -298 OFFCURVE",
"-11 -242 CURVE SMOOTH",
"17 -193 OFFCURVE",
"29 -176 OFFCURVE",
"59 -121 CURVE SMOOTH",
"84 -74 OFFCURVE",
"103 -34 OFFCURVE",
"123 13 CURVE SMOOTH",
"135 42 OFFCURVE",
"103 53 OFFCURVE",
"90 24 CURVE SMOOTH",
"69 -25 OFFCURVE",
"54 -45 OFFCURVE",
"30 -89 CURVE SMOOTH",
"4 -138 OFFCURVE",
"-22 -162 OFFCURVE",
"-54 -217 CURVE SMOOTH",
"-87 -274 OFFCURVE",
"-104 -309 OFFCURVE",
"-134 -365 CURVE SMOOTH"
);
},
{
closed = 1;
nodes = (
"211 203 OFFCURVE",
"188 230 OFFCURVE",
"178 218 CURVE SMOOTH",
"158 192 OFFCURVE",
"147 166 OFFCURVE",
"143 160 CURVE SMOOTH",
"131 140 OFFCURVE",
"164 124 OFFCURVE",
"180 139 CURVE SMOOTH",
"193 152 OFFCURVE",
"201 164 OFFCURVE",
"206 184 CURVE SMOOTH"
);
}
);
width = 282;
}
);
note = exclamdown;
unicode = 00A1;
},
{
glyphname = question;
layers = (
{
hints = (
{
horizontal = 1;
place = "{592, -20}";
target = down;
type = TopGhost;
},
{
place = "{493, 58}";
type = Stem;
}
);
layerId = "34A4CA4C-C6E5-4C7E-9ECD-8F87FE1EC3A4";
paths = (
{
closed = 1;
nodes = (
"80 -17 OFFCURVE",
"102 -44 OFFCURVE",
"112 -32 CURVE SMOOTH",
"133 -6 OFFCURVE",
"144 20 OFFCURVE",
"148 26 CURVE SMOOTH",
"160 46 OFFCURVE",
"127 62 OFFCURVE",
"111 47 CURVE SMOOTH",
"98 34 OFFCURVE",
"91 22 OFFCURVE",
"85 2 CURVE SMOOTH"
);
},
{
closed = 1;
nodes = (
"166 462 LINE",
"150 433 OFFCURVE",
"193 408 OFFCURVE",
"208 436 CURVE SMOOTH",
"228 471 OFFCURVE",
"244 510 OFFCURVE",
"280 530 CURVE SMOOTH",
"341 563 OFFCURVE",
"396 562 OFFCURVE",
"444 522 CURVE SMOOTH",
"476 495 OFFCURVE",
"492 468 OFFCURVE",
"492 422 CURVE SMOOTH",
"492 374 OFFCURVE",
"468 337 OFFCURVE",
"418 317 CURVE SMOOTH",
"258 253 OFFCURVE",
"192 212 OFFCURVE",
"176 151 CURVE SMOOTH",
"168 121 OFFCURVE",
"197 101 OFFCURVE",
"206 132 CURVE SMOOTH",
"218 176 OFFCURVE",
"299 221 OFFCURVE",
"444 274 CURVE SMOOTH",
"500 295 OFFCURVE",
"551 357 OFFCURVE",
"551 428 CURVE SMOOTH",
"551 485 OFFCURVE",
"515 539 OFFCURVE",
"477 562 CURVE SMOOTH",
"405 606 OFFCURVE",
"325 597 OFFCURVE",
"258 559 CURVE SMOOTH",
"212 534 OFFCURVE",
"186 497 OFFCURVE",
"166 461 CURVE"
);
}
);
width = 595;
}
);
note = question;
unicode = 003F;
},
{
glyphname = questiondown;
layers = (
{
hints = (
{
place = "{-12, 58}";
type = Stem;
}
);
layerId = "34A4CA4C-C6E5-4C7E-9ECD-8F87FE1EC3A4";
paths = (
{
closed = 1;
nodes = (
"454 270 LINE",
"459 289 OFFCURVE",
"436 316 OFFCURVE",
"426 304 CURVE SMOOTH",
"405 278 OFFCURVE",
"394 252 OFFCURVE",
"390 246 CURVE SMOOTH",
"378 226 OFFCURVE",
"411 210 OFFCURVE",
"427 225 CURVE SMOOTH",
"440 238 OFFCURVE",
"448 250 OFFCURVE",
"453 270 CURVE"
);
},
{
closed = 1;
nodes = (
"371 -189 LINE",
"387 -161 OFFCURVE",
"344 -136 OFFCURVE",
"329 -164 CURVE SMOOTH",
"310 -199 OFFCURVE",
"294 -239 OFFCURVE",
"258 -258 CURVE SMOOTH",
"197 -291 OFFCURVE",
"142 -289 OFFCURVE",
"94 -249 CURVE SMOOTH",
"61 -222 OFFCURVE",
"45 -195 OFFCURVE",
"45 -149 CURVE SMOOTH",
"45 -102 OFFCURVE",
"69 -65 OFFCURVE",
"119 -45 CURVE SMOOTH",
"279 19 OFFCURVE",
"345 60 OFFCURVE",
"361 121 CURVE SMOOTH",
"369 151 OFFCURVE",
"339 171 OFFCURVE",
"331 140 CURVE SMOOTH",
"319 97 OFFCURVE",
"239 52 OFFCURVE",
"94 -1 CURVE SMOOTH",
"37 -22 OFFCURVE",
"-15 -84 OFFCURVE",
"-14 -155 CURVE SMOOTH",
"-14 -212 OFFCURVE",
"23 -265 OFFCURVE",
"61 -289 CURVE SMOOTH",
"132 -333 OFFCURVE",
"212 -325 OFFCURVE",
"279 -287 CURVE SMOOTH",
"326 -261 OFFCURVE",
"352 -224 OFFCURVE",
"372 -188 CURVE"
);
}
);
width = 595;
}
);
note = questiondown;
unicode = 00BF;
},
{
glyphname = periodcentered;
layers = (
{
hints = (
{
horizontal = 1;
place = "{484, -20}";
target = down;
type = TopGhost;
},
{
place = "{110, 94}";
type = Stem;
}
);
layerId = "34A4CA4C-C6E5-4C7E-9ECD-8F87FE1EC3A4";
paths = (
{
closed = 1;
nodes = (
"104 417 OFFCURVE",
"140 396 OFFCURVE",
"156 405 CURVE SMOOTH",
"194 425 OFFCURVE",
"203 455 OFFCURVE",
"204 461 CURVE SMOOTH",
"210 485 OFFCURVE",
"161 491 OFFCURVE",
"141 477 CURVE SMOOTH",
"126 465 OFFCURVE",
"117 454 OFFCURVE",
"110 435 CURVE SMOOTH"
);
}
);
width = 297;
}
);
note = periodcentered;
unicode = 00B7;
},
{
glyphname = bullet;
lastChange = "2021-11-22 20:24:06 +0000";
layers = (
{
hints = (
{
horizontal = 1;
place = "{190, 192}";
type = Stem;
},
{
place = "{198, 194}";
type = Stem;
}
);
layerId = "34A4CA4C-C6E5-4C7E-9ECD-8F87FE1EC3A4";
paths = (
{
closed = 1;
nodes = (
"379 333 OFFCURVE",
"315 396 OFFCURVE",
"239 396 CURVE SMOOTH",
"162 396 OFFCURVE",
"100 333 OFFCURVE",
"100 257 CURVE SMOOTH",
"100 182 OFFCURVE",
"162 119 OFFCURVE",
"239 119 CURVE SMOOTH",
"315 119 OFFCURVE",
"379 182 OFFCURVE",
"379 257 CURVE SMOOTH"
);
}
);
width = 479;
}
);
note = bullet;
unicode = 2022;
},
{
glyphname = asterisk;
layers = (
{
hints = (
{
horizontal = 1;
place = "{261, 258}";
type = Stem;
},
{
place = "{241, 48}";
type = Stem;
}
);
layerId = "34A4CA4C-C6E5-4C7E-9ECD-8F87FE1EC3A4";
paths = (
{
closed = 1;
nodes = (
"371 450 OFFCURVE",
"333 453 OFFCURVE",
"286 454 CURVE",
"320 479 OFFCURVE",
"354 498 OFFCURVE",
"380 502 CURVE SMOOTH",
"398 505 OFFCURVE",
"392 548 OFFCURVE",
"373 545 CURVE SMOOTH",
"340 540 OFFCURVE",
"301 515 OFFCURVE",
"264 483 CURVE",
"257 519 OFFCURVE",
"248 562 OFFCURVE",
"239 579 CURVE SMOOTH",
"229 595 OFFCURVE",
"192 578 OFFCURVE",
"202 562 CURVE SMOOTH",
"206 554 OFFCURVE",
"209 548 OFFCURVE",
"211 542 CURVE SMOOTH",
"215 528 OFFCURVE",
"219 515 OFFCURVE",
"223 501 CURVE",
"201 515 OFFCURVE",
"179 528 OFFCURVE",
"162 536 CURVE SMOOTH",
"144 544 OFFCURVE",
"126 510 OFFCURVE",
"143 501 CURVE SMOOTH",
"164 491 OFFCURVE",
"205 474 OFFCURVE",
"233 457 CURVE",
"231 455 LINE",
"190 456 OFFCURVE",
"145 461 OFFCURVE",
"105 448 CURVE SMOOTH",
"87 443 OFFCURVE",
"96 416 OFFCURVE",
"114 421 CURVE SMOOTH",
"140 430 OFFCURVE",
"171 429 OFFCURVE",
"202 427 CURVE",
"178 405 OFFCURVE",
"157 383 OFFCURVE",
"141 368 CURVE SMOOTH",
"128 355 OFFCURVE",
"147 335 OFFCURVE",
"161 348 CURVE SMOOTH",
"179 365 OFFCURVE",
"209 393 OFFCURVE",
"242 421 CURVE",
"249 379 OFFCURVE",
"248 336 OFFCURVE",
"232 294 CURVE SMOOTH",
"225 276 OFFCURVE",
"262 263 OFFCURVE",
"268 281 CURVE SMOOTH",
"286 328 OFFCURVE",
"284 374 OFFCURVE",
"275 420 CURVE",
"313 382 OFFCURVE",
"329 376 OFFCURVE",
"360 305 CURVE SMOOTH",
"368 288 OFFCURVE",
"393 299 OFFCURVE",
"386 317 CURVE SMOOTH",
"359 378 OFFCURVE",
"345 392 OFFCURVE",
"319 417 CURVE",
"350 410 OFFCURVE",
"380 400 OFFCURVE",
"414 394 CURVE SMOOTH",
"432 391 OFFCURVE",
"436 438 OFFCURVE",
"417 441 CURVE SMOOTH"
);
}
);
width = 525;
}
);
note = asterisk;
unicode = 002A;
},
{
glyphname = numbersign;
lastChange = "2021-12-21 17:30:42 +0000";
layers = (
{
hints = (
{
horizontal = 1;
place = "{455, 38}";
type = Stem;
},
{
place = "{292, 49}";
type = Stem;
},
{
place = "{482, 51}";
type = Stem;
}
);
layerId = "34A4CA4C-C6E5-4C7E-9ECD-8F87FE1EC3A4";
paths = (
{
closed = 1;
nodes = (
"173 215 OFFCURVE",
"178 167 OFFCURVE",
"188 103 CURVE SMOOTH",
"192 78 OFFCURVE",
"240 86 OFFCURVE",
"238 112 CURVE SMOOTH",
"232 178 OFFCURVE",
"228 223 OFFCURVE",
"226 258 CURVE",
"361 265 LINE",
"356 212 OFFCURVE",
"376 162 OFFCURVE",
"447 108 CURVE SMOOTH",
"468 92 OFFCURVE",
"489 121 OFFCURVE",
"470 138 CURVE SMOOTH",
"423 180 OFFCURVE",
"407 224 OFFCURVE",
"408 267 CURVE",
"596 277 LINE SMOOTH",
"621 278 OFFCURVE",
"619 316 OFFCURVE",
"594 314 CURVE SMOOTH",
"412 306 LINE",
"420 347 OFFCURVE",
"439 387 OFFCURVE",
"453 419 CURVE SMOOTH",
"455 428 OFFCURVE",
"459 437 OFFCURVE",
"462 444 CURVE",
"517 443 OFFCURVE",
"571 439 OFFCURVE",
"627 436 CURVE SMOOTH",
"652 435 OFFCURVE",
"655 489 OFFCURVE",
"630 490 CURVE SMOOTH",
"579 493 OFFCURVE",
"528 494 OFFCURVE",
"478 494 CURVE",
"488 530 OFFCURVE",
"495 568 OFFCURVE",
"498 606 CURVE SMOOTH",
"499 631 OFFCURVE",
"461 633 OFFCURVE",
"460 609 CURVE SMOOTH",
"457 567 OFFCURVE",
"449 528 OFFCURVE",
"438 493 CURVE",
"377 492 OFFCURVE",
"317 488 OFFCURVE",
"257 481 CURVE",
"260 498 OFFCURVE",
"264 517 OFFCURVE",
"268 538 CURVE SMOOTH",
"273 563 OFFCURVE",
"235 570 OFFCURVE",
"231 545 CURVE SMOOTH",
"226 520 OFFCURVE",
"221 497 OFFCURVE",
"216 477 CURVE",
"200 474 OFFCURVE",
"184 472 OFFCURVE",
"168 469 CURVE SMOOTH",
"126 463 OFFCURVE",
"99 458 OFFCURVE",
"61 450 CURVE SMOOTH",
"36 446 OFFCURVE",
"43 408 OFFCURVE",
"69 414 CURVE SMOOTH",
"106 421 OFFCURVE",
"133 425 OFFCURVE",
"174 432 CURVE SMOOTH",
"185 434 OFFCURVE",
"195 435 OFFCURVE",
"206 437 CURVE",
"192 382 OFFCURVE",
"180 342 OFFCURVE",
"176 293 CURVE",
"49 287 LINE SMOOTH",
"24 286 OFFCURVE",
"26 247 OFFCURVE",
"51 248 CURVE SMOOTH",
"174 255 LINE"
);
},
{
closed = 1;
nodes = (
"227 343 OFFCURVE",
"234 377 OFFCURVE",
"248 442 CURVE",
"307 447 OFFCURVE",
"364 447 OFFCURVE",
"421 446 CURVE",
"401 392 OFFCURVE",
"379 346 OFFCURVE",
"367 302 CURVE",
"226 295 LINE"
);
}
);
width = 670;
}
);
note = numbersign;
unicode = 0023;
},
{
glyphname = slash;
layers = (
{
hints = (
{
horizontal = 1;
place = "{-64, 18}";
type = Stem;
},
{
horizontal = 1;
place = "{611, 13}";
type = Stem;
},
{
place = "{61, 436}";
type = Stem;
}
);
layerId = "34A4CA4C-C6E5-4C7E-9ECD-8F87FE1EC3A4";
paths = (
{
closed = 1;
nodes = (
"505 637 OFFCURVE",
"453 616 OFFCURVE",
"453 616 CURVE",
"61 -46 LINE",
"61 -46 OFFCURVE",
"82 -82 OFFCURVE",
"95 -52 CURVE",
"152 9 OFFCURVE",
"497 611 OFFCURVE",
"497 611 CURVE"
);
}
);
width = 250;
}
);
note = slash;
unicode = 002F;
},
{
glyphname = backslash;
layers = (
{
hints = (
{
horizontal = 1;
place = "{-8, 20}";
type = Stem;
}
);
layerId = "34A4CA4C-C6E5-4C7E-9ECD-8F87FE1EC3A4";
paths = (
{
closed = 1;
nodes = (
"482 68 OFFCURVE",
"141 659 OFFCURVE",
"141 659 CURVE",
"119 685 OFFCURVE",
"106 658 OFFCURVE",
"106 658 CURVE",
"468 -4 LINE",
"468 -4 OFFCURVE",
"505 -19 OFFCURVE",
"494 8 CURVE"
);
}
);
width = 505;
}
);
note = backslash;
unicode = 005C;
},
{
glyphname = parenleft;
lastChange = "2021-12-22 06:47:05 +0000";
layers = (
{
hints = (
{
horizontal = 1;
place = "{-76, 734}";
type = Stem;
},
{
place = "{70, 39}";
type = Stem;
}
);
layerId = "34A4CA4C-C6E5-4C7E-9ECD-8F87FE1EC3A4";
paths = (
{
closed = 1;
nodes = (
"127 -94 OFFCURVE",
"142 -62 OFFCURVE",
"127 -51 CURVE SMOOTH",
"23 30 OFFCURVE",
"90 209 OFFCURVE",
"123 285 CURVE SMOOTH",
"183 421 OFFCURVE",
"278 554 OFFCURVE",
"404 626 CURVE SMOOTH",
"420 635 OFFCURVE",
"396 665 OFFCURVE",
"380 656 CURVE SMOOTH",
"244 580 OFFCURVE",
"125 436 OFFCURVE",
"68 305 CURVE SMOOTH",
"26 209 OFFCURVE",
"-8 9 OFFCURVE",
"107 -80 CURVE"
);
}
);
width = 289;
}
);
note = parenleft;
unicode = 0028;
},
{
glyphname = parenright;
lastChange = "2021-12-22 06:47:13 +0000";
layers = (
{
hints = (
{
place = "{460, 32}";
type = Stem;
}
);
layerId = "34A4CA4C-C6E5-4C7E-9ECD-8F87FE1EC3A4";
paths = (
{
closed = 1;
nodes = (
"282 668 OFFCURVE",
"267 636 OFFCURVE",
"282 625 CURVE SMOOTH",
"386 544 OFFCURVE",
"319 365 OFFCURVE",
"286 289 CURVE SMOOTH",
"226 153 OFFCURVE",
"131 20 OFFCURVE",
"5 -52 CURVE SMOOTH",
"-11 -61 OFFCURVE",
"13 -91 OFFCURVE",
"29 -82 CURVE SMOOTH",
"165 -6 OFFCURVE",
"284 138 OFFCURVE",
"341 269 CURVE SMOOTH",
"383 365 OFFCURVE",
"417 565 OFFCURVE",
"302 654 CURVE"
);
}
);
width = 412;
}
);
note = parenright;
unicode = 0029;
},
{
glyphname = braceleft;
lastChange = "2021-12-22 06:46:07 +0000";
layers = (
{
hints = (
{
place = "{20, 36}";
type = Stem;
},
{
place = "{69, 31}";
type = Stem;
}
);
layerId = "34A4CA4C-C6E5-4C7E-9ECD-8F87FE1EC3A4";
paths = (
{
closed = 1;
nodes = (
"327 692 OFFCURVE",
"271 683 OFFCURVE",
"245 668 CURVE SMOOTH",
"176 628 OFFCURVE",
"169 571 OFFCURVE",
"148 495 CURVE SMOOTH",
"134 444 OFFCURVE",
"110 403 OFFCURVE",
"71 394 CURVE SMOOTH",
"36 386 OFFCURVE",
"18 378 OFFCURVE",
"10 344 CURVE",
"10 309 OFFCURVE",
"80 269 OFFCURVE",
"77 237 CURVE SMOOTH",
"71 172 OFFCURVE",
"28 94 OFFCURVE",
"28 35 CURVE SMOOTH",
"28 19 OFFCURVE",
"31 5 OFFCURVE",
"38 -8 CURVE SMOOTH",
"55 -39 OFFCURVE",
"98 -52 OFFCURVE",
"138 -52 CURVE SMOOTH",
"164 -52 OFFCURVE",
"183 -35 OFFCURVE",
"183 -21 CURVE SMOOTH",
"183 -14 OFFCURVE",
"177 -8 OFFCURVE",
"163 -8 CURVE SMOOTH",
"119 -8 OFFCURVE",
"99 -10 OFFCURVE",
"83 17 CURVE SMOOTH",
"77 28 OFFCURVE",
"74 40 OFFCURVE",
"74 53 CURVE SMOOTH",
"74 107 OFFCURVE",
"122 171 OFFCURVE",
"128 237 CURVE SMOOTH",
"131 270 OFFCURVE",
"97 328 OFFCURVE",
"63 346 CURVE",
"106 355 OFFCURVE",
"159 373 OFFCURVE",
"178 427 CURVE SMOOTH",
"193 473 OFFCURVE",
"219 588 OFFCURVE",
"262 617 CURVE SMOOTH",
"283 631 OFFCURVE",
"324 646 OFFCURVE",
"345 646 CURVE SMOOTH",
"376 646 OFFCURVE",
"388 661 OFFCURVE",
"388 674 CURVE SMOOTH",
"388 684 OFFCURVE",
"381 692 OFFCURVE",
"371 692 CURVE"
);
}
);
width = 236;
}
);
note = braceleft;
unicode = 007B;
},
{
glyphname = braceright;
lastChange = "2021-12-22 06:46:04 +0000";
layers = (
{
hints = (
{
place = "{170, 31}";
type = Stem;
},
{
place = "{214, 36}";
type = Stem;
}
);
layerId = "34A4CA4C-C6E5-4C7E-9ECD-8F87FE1EC3A4";
paths = (
{
closed = 1;
nodes = (
"57 -52 OFFCURVE",
"113 -43 OFFCURVE",
"139 -28 CURVE SMOOTH",
"208 12 OFFCURVE",
"215 69 OFFCURVE",
"236 145 CURVE SMOOTH",
"250 196 OFFCURVE",
"274 237 OFFCURVE",
"313 246 CURVE SMOOTH",
"348 254 OFFCURVE",
"366 262 OFFCURVE",
"374 296 CURVE",
"374 331 OFFCURVE",
"304 371 OFFCURVE",
"307 403 CURVE SMOOTH",
"313 468 OFFCURVE",
"356 546 OFFCURVE",
"356 605 CURVE SMOOTH",
"356 621 OFFCURVE",
"353 635 OFFCURVE",
"346 648 CURVE SMOOTH",
"329 679 OFFCURVE",
"286 692 OFFCURVE",
"246 692 CURVE SMOOTH",
"220 692 OFFCURVE",
"201 675 OFFCURVE",
"201 661 CURVE SMOOTH",
"201 654 OFFCURVE",
"207 648 OFFCURVE",
"221 648 CURVE SMOOTH",
"265 648 OFFCURVE",
"285 650 OFFCURVE",
"301 623 CURVE SMOOTH",
"307 612 OFFCURVE",
"310 600 OFFCURVE",
"310 587 CURVE SMOOTH",
"310 533 OFFCURVE",
"262 469 OFFCURVE",
"256 403 CURVE SMOOTH",
"253 370 OFFCURVE",
"287 312 OFFCURVE",
"321 294 CURVE",
"278 285 OFFCURVE",
"225 267 OFFCURVE",
"206 213 CURVE SMOOTH",
"191 167 OFFCURVE",
"165 52 OFFCURVE",
"122 23 CURVE SMOOTH",
"101 9 OFFCURVE",
"60 -6 OFFCURVE",
"39 -6 CURVE SMOOTH",
"8 -6 OFFCURVE",
"-4 -21 OFFCURVE",
"-4 -34 CURVE SMOOTH",
"-4 -44 OFFCURVE",
"3 -52 OFFCURVE",
"13 -52 CURVE"
);
}
);
width = 358;
}
);
note = braceright;
unicode = 007D;
},
{
glyphname = bracketleft;
lastChange = "2021-12-22 06:46:10 +0000";
layers = (
{
hints = (
{
place = "{7, 47}";
type = Stem;
}
);
layerId = "34A4CA4C-C6E5-4C7E-9ECD-8F87FE1EC3A4";
paths = (
{
closed = 1;
nodes = (
"338 666 OFFCURVE",
"300 674 OFFCURVE",
"270 674 CURVE SMOOTH",
"256 674 OFFCURVE",
"245 673 OFFCURVE",
"237 668 CURVE SMOOTH",
"131 607 OFFCURVE",
"7 298 OFFCURVE",
"7 106 CURVE SMOOTH",
"7 60 OFFCURVE",
"14 20 OFFCURVE",
"30 -8 CURVE SMOOTH",
"47 -39 OFFCURVE",
"90 -52 OFFCURVE",
"130 -52 CURVE SMOOTH",
"158 -52 OFFCURVE",
"184 -30 OFFCURVE",
"184 -14 CURVE SMOOTH",
"184 -7 OFFCURVE",
"178 -1 OFFCURVE",
"163 0 CURVE SMOOTH",
"120 3 OFFCURVE",
"82 0 OFFCURVE",
"66 27 CURVE SMOOTH",
"58 42 OFFCURVE",
"54 64 OFFCURVE",
"54 92 CURVE SMOOTH",
"54 247 OFFCURVE",
"173 563 OFFCURVE",
"254 617 CURVE SMOOTH",
"263 623 OFFCURVE",
"276 625 OFFCURVE",
"289 625 CURVE SMOOTH",
"307 625 OFFCURVE",
"325 622 OFFCURVE",
"337 620 CURVE SMOOTH",
"345 619 OFFCURVE",
"353 618 OFFCURVE",
"360 618 CURVE SMOOTH",
"387 618 OFFCURVE",
"399 629 OFFCURVE",
"399 640 CURVE SMOOTH",
"399 653 OFFCURVE",
"385 666 OFFCURVE",
"363 666 CURVE"
);
}
);
width = 268;
}
);
note = bracketleft;
unicode = 005B;
},
{
glyphname = bracketright;
lastChange = "2021-12-22 06:46:23 +0000";
layers = (
{
hints = (
{
place = "{208, 37}";
type = Stem;
}
);
layerId = "34A4CA4C-C6E5-4C7E-9ECD-8F87FE1EC3A4";
paths = (
{
closed = 1;
nodes = (
"68 -44 OFFCURVE",
"106 -52 OFFCURVE",
"136 -52 CURVE SMOOTH",
"150 -52 OFFCURVE",
"161 -51 OFFCURVE",
"169 -46 CURVE SMOOTH",
"275 15 OFFCURVE",
"399 324 OFFCURVE",
"399 516 CURVE SMOOTH",
"399 562 OFFCURVE",
"392 602 OFFCURVE",
"376 630 CURVE SMOOTH",
"359 661 OFFCURVE",
"316 674 OFFCURVE",
"276 674 CURVE SMOOTH",
"248 674 OFFCURVE",
"222 652 OFFCURVE",
"222 636 CURVE SMOOTH",
"222 629 OFFCURVE",
"228 623 OFFCURVE",
"243 622 CURVE SMOOTH",
"286 619 OFFCURVE",
"324 622 OFFCURVE",
"340 595 CURVE SMOOTH",
"348 580 OFFCURVE",
"352 558 OFFCURVE",
"352 530 CURVE SMOOTH",
"352 375 OFFCURVE",
"233 59 OFFCURVE",
"152 5 CURVE SMOOTH",
"143 -1 OFFCURVE",
"130 -3 OFFCURVE",
"117 -3 CURVE SMOOTH",
"99 -3 OFFCURVE",
"81 0 OFFCURVE",
"69 2 CURVE SMOOTH",
"61 3 OFFCURVE",
"53 4 OFFCURVE",
"46 4 CURVE SMOOTH",
"19 4 OFFCURVE",
"7 -7 OFFCURVE",
"7 -18 CURVE SMOOTH",
"7 -31 OFFCURVE",
"21 -44 OFFCURVE",
"43 -44 CURVE"
);
}
);
width = 399;
}
);
note = bracketright;
unicode = 005D;
},
{
glyphname = hyphen;
layers = (
{
hints = (
{
horizontal = 1;
place = "{228, 36}";
type = Stem;
},
{
place = "{84, 273}";
type = Stem;
},
{
horizontal = 1;
place = "{228, 33}";
type = Stem;
}
);
layerId = "34A4CA4C-C6E5-4C7E-9ECD-8F87FE1EC3A4";
paths = (
{
closed = 1;
nodes = (
"140 210 OFFCURVE",
"230 225 OFFCURVE",
"316 228 CURVE SMOOTH",
"349 229 OFFCURVE",
"374 256 OFFCURVE",
"342 261 CURVE SMOOTH",
"296 269 OFFCURVE",
"131 258 OFFCURVE",
"105 253 CURVE SMOOTH",
"73 247 OFFCURVE",
"78 199 OFFCURVE",
"111 205 CURVE SMOOTH"
);
}
);
width = 382;
}
);
note = hyphen;
unicode = 002D;
},
{
glyphname = endash;
lastChange = "2021-11-22 19:47:35 +0000";
layers = (
{
hints = (
{
horizontal = 1;
place = "{222, 37}";
type = Stem;
},
{
place = "{84, 362}";
type = Stem;
},
{
horizontal = 1;
place = "{222, 33}";
type = Stem;
}
);
layerId = "34A4CA4C-C6E5-4C7E-9ECD-8F87FE1EC3A4";
paths = (
{
closed = 1;
nodes = (
"140 219 OFFCURVE",
"319 219 OFFCURVE",
"405 222 CURVE SMOOTH",
"438 223 OFFCURVE",
"463 250 OFFCURVE",
"431 255 CURVE SMOOTH",
"385 263 OFFCURVE",
"130 258 OFFCURVE",
"104 253 CURVE SMOOTH",
"73 247 OFFCURVE",
"78 208 OFFCURVE",
"111 214 CURVE SMOOTH"
);
}
);
width = 446;
}
);
note = endash;
unicode = 2013;
},
{
glyphname = emdash;
lastChange = "2021-11-22 19:48:11 +0000";
layers = (
{
background = {
hints = (
{
horizontal = 1;
place = "{234, 33}";
type = Stem;
},
{
place = "{84, 562}";
type = Stem;
}
);
paths = (
{
closed = 1;
nodes = (
"140 210 OFFCURVE",
"519 231 OFFCURVE",
"605 234 CURVE SMOOTH",
"638 235 OFFCURVE",
"663 262 OFFCURVE",
"631 267 CURVE SMOOTH",
"585 275 OFFCURVE",
"130 258 OFFCURVE",
"104 253 CURVE SMOOTH",
"73 247 OFFCURVE",
"78 199 OFFCURVE",
"111 205 CURVE SMOOTH"
);
}
);
};
layerId = "34A4CA4C-C6E5-4C7E-9ECD-8F87FE1EC3A4";
paths = (
{
closed = 1;
nodes = (
"153 216 OFFCURVE",
"471 219 OFFCURVE",
"643 223 CURVE SMOOTH",
"661 223 OFFCURVE",
"693 251 OFFCURVE",
"652 255 CURVE SMOOTH",
"577 263 OFFCURVE",
"137 255 OFFCURVE",
"95 250 CURVE SMOOTH",
"71 247 OFFCURVE",
"78 208 OFFCURVE",
"106 211 CURVE SMOOTH"
);
}
);
width = 665;
}
);
note = emdash;
unicode = 2014;
},
{
glyphname = underscore;
lastChange = "2021-11-22 19:56:45 +0000";
layers = (
{
hints = (
{
horizontal = 1;
place = "{-78, 36}";
type = Stem;
},
{
place = "{-13, 781}";
type = Stem;
},
{
horizontal = 1;
place = "{-78, 33}";
type = Stem;
},
{
horizontal = 1;
place = "{-62.785, 21}";
target = up;
type = BottomGhost;
},
{
place = "{-36.077, 349.676}";
type = Stem;
},
{
horizontal = 1;
place = "{-4.58, 0}";
type = Stem;
},
{
place = "{121.042, 0}";
type = Stem;
}
);
layerId = "34A4CA4C-C6E5-4C7E-9ECD-8F87FE1EC3A4";
paths = (
{
closed = 1;
nodes = (
"748.042 -147.58 LINE SMOOTH",
"759.042 -147.58 OFFCURVE",
"766.042 -103.58 OFFCURVE",
"748.042 -103.58 CURVE SMOOTH",
"-13.958 -103.58 LINE SMOOTH",
"-39.958 -103.58 OFFCURVE",
"-32.958 -147.58 OFFCURVE",
"-13.958 -147.58 CURVE SMOOTH"
);
}
);
width = 714;
}
);
note = underscore;
unicode = 005F;
},
{
glyphname = quotesinglbase;
layers = (
{
hints = (
{
horizontal = 1;
place = "{-164, 226}";
type = Stem;
},
{
place = "{137, 51}";
type = Stem;
}
);
layerId = "34A4CA4C-C6E5-4C7E-9ECD-8F87FE1EC3A4";
paths = (
{
closed = 1;
nodes = (
"176 75 OFFCURVE",
"128 61 OFFCURVE",
"137 30 CURVE SMOOTH",
"139 22 OFFCURVE",
"138 2 OFFCURVE",
"130 -17 CURVE SMOOTH",
"116 -49 OFFCURVE",
"83 -85 OFFCURVE",
"46 -123 CURVE SMOOTH",
"25 -146 OFFCURVE",
"61 -179 OFFCURVE",
"82 -156 CURVE SMOOTH",
"118 -118 OFFCURVE",
"156 -82 OFFCURVE",
"175 -37 CURVE SMOOTH",
"187 -10 OFFCURVE",
"192 18 OFFCURVE",
"184 45 CURVE SMOOTH"
);
}
);
width = 206;
}
);
note = quotesinglbase;
unicode = 201A;
},
{
glyphname = quotedblbase;
layers = (
{
hints = (
{
horizontal = 1;
place = "{-164, 226}";
type = Stem;
},
{
place = "{137, 51}";
type = Stem;
},
{
place = "{267, 51}";
type = Stem;
}
);
layerId = "34A4CA4C-C6E5-4C7E-9ECD-8F87FE1EC3A4";
paths = (
{
closed = 1;
nodes = (
"306 75 OFFCURVE",
"258 61 OFFCURVE",
"267 30 CURVE SMOOTH",
"269 22 OFFCURVE",
"268 2 OFFCURVE",
"260 -17 CURVE SMOOTH",
"246 -49 OFFCURVE",
"213 -85 OFFCURVE",
"176 -123 CURVE SMOOTH",
"155 -146 OFFCURVE",
"191 -179 OFFCURVE",
"212 -156 CURVE SMOOTH",
"248 -118 OFFCURVE",
"286 -82 OFFCURVE",
"305 -37 CURVE SMOOTH",
"317 -10 OFFCURVE",
"322 18 OFFCURVE",
"314 45 CURVE SMOOTH"
);
},
{
closed = 1;
nodes = (
"176 75 OFFCURVE",
"128 61 OFFCURVE",
"137 30 CURVE SMOOTH",
"139 22 OFFCURVE",
"138 2 OFFCURVE",
"130 -17 CURVE SMOOTH",
"116 -49 OFFCURVE",
"83 -85 OFFCURVE",
"46 -123 CURVE SMOOTH",
"25 -146 OFFCURVE",
"61 -179 OFFCURVE",
"82 -156 CURVE SMOOTH",
"118 -118 OFFCURVE",
"156 -82 OFFCURVE",
"175 -37 CURVE SMOOTH",
"187 -10 OFFCURVE",
"192 18 OFFCURVE",
"184 45 CURVE SMOOTH"
);
}
);
width = 345;
}
);
note = quotedblbase;
unicode = 201E;
},
{
glyphname = quotedblleft;
layers = (
{
hints = (
{
horizontal = 1;
place = "{344, 227}";
type = Stem;
},
{
place = "{144, 51}";
type = Stem;
},
{
place = "{257, 51}";
type = Stem;
}
);
layerId = "34A4CA4C-C6E5-4C7E-9ECD-8F87FE1EC3A4";
paths = (
{
closed = 1;
nodes = (
"148 362 LINE",
"156 331 OFFCURVE",
"204 345 OFFCURVE",
"195 376 CURVE SMOOTH",
"193 384 OFFCURVE",
"194 404 OFFCURVE",
"202 423 CURVE SMOOTH",
"216 455 OFFCURVE",
"250 490 OFFCURVE",
"286 529 CURVE SMOOTH",
"308 552 OFFCURVE",
"271 586 OFFCURVE",
"250 563 CURVE SMOOTH",
"214 524 OFFCURVE",
"176 488 OFFCURVE",
"157 443 CURVE SMOOTH",
"145 416 OFFCURVE",
"140 388 OFFCURVE",
"148 361 CURVE"
);
},
{
closed = 1;
nodes = (
"261 361 LINE",
"269 330 OFFCURVE",
"317 344 OFFCURVE",
"308 375 CURVE SMOOTH",
"306 383 OFFCURVE",
"307 403 OFFCURVE",
"315 422 CURVE SMOOTH",
"329 454 OFFCURVE",
"363 489 OFFCURVE",
"399 528 CURVE SMOOTH",
"421 551 OFFCURVE",
"384 585 OFFCURVE",
"363 562 CURVE SMOOTH",
"327 523 OFFCURVE",
"289 487 OFFCURVE",
"270 442 CURVE SMOOTH",
"258 415 OFFCURVE",
"253 387 OFFCURVE",
"261 360 CURVE"
);
}
);
width = 378;
}
);
note = quotedblleft;
unicode = 201C;
},
{
glyphname = quotedblright;
layers = (
{
hints = (
{
horizontal = 1;
place = "{572, -20}";
target = down;
type = TopGhost;
}
);
layerId = "34A4CA4C-C6E5-4C7E-9ECD-8F87FE1EC3A4";
paths = (
{
closed = 1;
nodes = (
"402 555 LINE",
"394 586 OFFCURVE",
"346 572 OFFCURVE",
"355 541 CURVE SMOOTH",
"357 533 OFFCURVE",
"356 513 OFFCURVE",
"348 494 CURVE SMOOTH",
"334 462 OFFCURVE",
"300 427 OFFCURVE",
"264 388 CURVE SMOOTH",
"242 365 OFFCURVE",
"279 331 OFFCURVE",
"300 354 CURVE SMOOTH",
"336 393 OFFCURVE",
"374 429 OFFCURVE",
"393 474 CURVE SMOOTH",
"405 501 OFFCURVE",
"410 529 OFFCURVE",
"402 556 CURVE"
);
},
{
closed = 1;
nodes = (
"289 556 LINE",
"281 587 OFFCURVE",
"233 573 OFFCURVE",
"242 542 CURVE SMOOTH",
"244 534 OFFCURVE",
"243 514 OFFCURVE",
"235 495 CURVE SMOOTH",
"221 463 OFFCURVE",
"187 428 OFFCURVE",
"151 389 CURVE SMOOTH",
"129 366 OFFCURVE",
"166 332 OFFCURVE",
"187 355 CURVE SMOOTH",
"223 394 OFFCURVE",
"261 430 OFFCURVE",
"280 475 CURVE SMOOTH",
"292 502 OFFCURVE",
"297 530 OFFCURVE",
"289 557 CURVE"
);
}
);
width = 378;
}
);
note = quotedblright;
unicode = 201D;
},
{
glyphname = quoteleft;
layers = (
{
hints = (
{
horizontal = 1;
place = "{589, -20}";
target = down;
type = TopGhost;
}
);
layerId = "34A4CA4C-C6E5-4C7E-9ECD-8F87FE1EC3A4";
paths = (
{
closed = 1;
nodes = (
"157 349 OFFCURVE",
"204 363 OFFCURVE",
"195 394 CURVE SMOOTH",
"193 403 OFFCURVE",
"194 423 OFFCURVE",
"202 442 CURVE SMOOTH",
"216 474 OFFCURVE",
"249 510 OFFCURVE",
"286 548 CURVE SMOOTH",
"307 571 OFFCURVE",
"271 604 OFFCURVE",
"250 581 CURVE SMOOTH",
"214 543 OFFCURVE",
"176 507 OFFCURVE",
"157 462 CURVE SMOOTH",
"145 435 OFFCURVE",
"141 407 OFFCURVE",
"148 380 CURVE SMOOTH"
);
}
);
width = 265;
}
);
note = quoteleft;
unicode = 2018;
},
{
glyphname = quoteright;
layers = (
{
hints = (
{
horizontal = 1;
place = "{572, -20}";
target = down;
type = TopGhost;
}
);
layerId = "34A4CA4C-C6E5-4C7E-9ECD-8F87FE1EC3A4";
paths = (
{
closed = 1;
nodes = (
"289 555 LINE",
"281 586 OFFCURVE",
"233 572 OFFCURVE",
"242 541 CURVE SMOOTH",
"244 533 OFFCURVE",
"243 513 OFFCURVE",
"235 494 CURVE SMOOTH",
"221 462 OFFCURVE",
"187 427 OFFCURVE",
"151 388 CURVE SMOOTH",
"129 365 OFFCURVE",
"166 331 OFFCURVE",
"187 354 CURVE SMOOTH",
"223 393 OFFCURVE",
"261 429 OFFCURVE",
"280 474 CURVE SMOOTH",
"292 501 OFFCURVE",
"297 529 OFFCURVE",
"289 556 CURVE"
);
}
);
width = 265;
}
);
note = quoteright;
unicode = 2019;
},
{
glyphname = guillemetleft;
lastChange = "2021-12-22 06:57:21 +0000";
layers = (
{
hints = (
{
horizontal = 1;
place = "{432, -20}";
target = down;
type = TopGhost;
},
{
place = "{11, 20}";
type = Stem;
},
{
place = "{148, 20}";
type = Stem;
}
);
layerId = "34A4CA4C-C6E5-4C7E-9ECD-8F87FE1EC3A4";
paths = (
{
closed = 1;
nodes = (
"354 24 OFFCURVE",
"210 178 OFFCURVE",
"214 206 CURVE SMOOTH",
"221 254 OFFCURVE",
"340 358 OFFCURVE",
"364 391 CURVE SMOOTH",
"413 454 OFFCURVE",
"379 466 OFFCURVE",
"365 449 CURVE SMOOTH",
"351 431 OFFCURVE",
"173 262 OFFCURVE",
"170 206 CURVE SMOOTH",
"167 169 OFFCURVE",
"312 -48 OFFCURVE",
"348 13 CURVE SMOOTH"
);
},
{
closed = 1;
nodes = (
"217 24 OFFCURVE",
"72 178 OFFCURVE",
"76 206 CURVE SMOOTH",
"83 254 OFFCURVE",
"203 358 OFFCURVE",
"227 391 CURVE SMOOTH",
"276 454 OFFCURVE",
"242 466 OFFCURVE",
"228 449 CURVE SMOOTH",
"213 431 OFFCURVE",
"36 262 OFFCURVE",
"33 206 CURVE SMOOTH",
"30 169 OFFCURVE",
"175 -48 OFFCURVE",
"210 13 CURVE SMOOTH"
);
}
);
width = 394;
}
);
note = guillemotleft;
unicode = 00AB;
},
{
glyphname = guillemetright;
lastChange = "2021-12-22 06:57:24 +0000";
layers = (
{
hints = (
{
horizontal = 1;
place = "{-27, -4}";
type = Stem;
},
{
horizontal = 1;
place = "{427, -20}";
target = down;
type = TopGhost;
},
{
place = "{180, 20}";
type = Stem;
},
{
place = "{338, 20}";
type = Stem;
}
);
layerId = "34A4CA4C-C6E5-4C7E-9ECD-8F87FE1EC3A4";
paths = (
{
closed = 1;
nodes = (
"411 284 OFFCURVE",
"265 501 OFFCURVE",
"230 440 CURVE SMOOTH",
"223 429 OFFCURVE",
"368 275 OFFCURVE",
"364 247 CURVE SMOOTH",
"357 199 OFFCURVE",
"238 95 OFFCURVE",
"213 63 CURVE SMOOTH",
"165 -1 OFFCURVE",
"199 -13 OFFCURVE",
"213 4 CURVE SMOOTH",
"227 22 OFFCURVE",
"405 191 OFFCURVE",
"408 247 CURVE SMOOTH"
);
},
{
closed = 1;
nodes = (
"253 284 OFFCURVE",
"107 501 OFFCURVE",
"72 440 CURVE SMOOTH",
"65 429 OFFCURVE",
"210 275 OFFCURVE",
"206 247 CURVE SMOOTH",
"199 199 OFFCURVE",
"80 95 OFFCURVE",
"55 63 CURVE SMOOTH",
"7 -1 OFFCURVE",
"41 -13 OFFCURVE",
"55 4 CURVE SMOOTH",
"69 22 OFFCURVE",
"247 191 OFFCURVE",
"250 247 CURVE SMOOTH"
);
}
);
width = 426;
}
);
note = guillemotright;
unicode = 00BB;
},
{
glyphname = guilsinglleft;
layers = (
{
hints = (
{
horizontal = 1;
place = "{9, 423}";
type = Stem;
},
{
place = "{64, 40}";
type = Stem;
}
);
layerId = "34A4CA4C-C6E5-4C7E-9ECD-8F87FE1EC3A4";
paths = (
{
closed = 1;
nodes = (
"235 430 OFFCURVE",
"218 407 OFFCURVE",
"216 404 CURVE",
"159 340 OFFCURVE",
"128 299 OFFCURVE",
"72 245 CURVE",
"65 240 OFFCURVE",
"64 234 OFFCURVE",
"64 226 CURVE SMOOTH",
"65 179 OFFCURVE",
"190 32 OFFCURVE",
"223 12 CURVE SMOOTH",
"229 9 OFFCURVE",
"237 7 OFFCURVE",
"244 10 CURVE SMOOTH",
"294 30 OFFCURVE",
"232 58 OFFCURVE",
"224 66 CURVE SMOOTH",
"174 116 OFFCURVE",
"141 160 OFFCURVE",
"104 226 CURVE",
"153 269 OFFCURVE",
"214 340 OFFCURVE",
"238 373 CURVE SMOOTH",
"242 378 OFFCURVE",
"267 401 OFFCURVE",
"267 408 CURVE SMOOTH",
"267 423 OFFCURVE",
"253 437 OFFCURVE",
"239 431 CURVE"
);
}
);
width = 380;
}
);
note = guilsinglleft;
unicode = 2039;
},
{
glyphname = guilsinglright;
layers = (
{
hints = (
{
horizontal = 1;
place = "{12, 423}";
type = Stem;
},
{
place = "{254, 40}";
type = Stem;
}
);
layerId = "34A4CA4C-C6E5-4C7E-9ECD-8F87FE1EC3A4";
paths = (
{
closed = 1;
nodes = (
"123 14 OFFCURVE",
"140 37 OFFCURVE",
"142 40 CURVE",
"199 104 OFFCURVE",
"230 145 OFFCURVE",
"286 199 CURVE",
"293 204 OFFCURVE",
"294 210 OFFCURVE",
"294 218 CURVE SMOOTH",
"293 265 OFFCURVE",
"168 412 OFFCURVE",
"135 432 CURVE SMOOTH",
"129 435 OFFCURVE",
"121 437 OFFCURVE",
"114 434 CURVE SMOOTH",
"64 414 OFFCURVE",
"126 386 OFFCURVE",
"134 378 CURVE SMOOTH",
"184 328 OFFCURVE",
"217 284 OFFCURVE",
"254 218 CURVE",
"205 175 OFFCURVE",
"144 104 OFFCURVE",
"120 71 CURVE SMOOTH",
"116 66 OFFCURVE",
"91 43 OFFCURVE",
"91 36 CURVE SMOOTH",
"91 21 OFFCURVE",
"105 7 OFFCURVE",
"119 13 CURVE"
);
}
);
width = 348;
}
);
note = guilsinglright;
unicode = 203A;
},
{
glyphname = quotedbl;
layers = (
{
hints = (
{
horizontal = 1;
place = "{346, 226}";
type = Stem;
},
{
place = "{242, 51}";
type = Stem;
},
{
place = "{351, 51}";
type = Stem;
}
);
layerId = "34A4CA4C-C6E5-4C7E-9ECD-8F87FE1EC3A4";
paths = (
{
closed = 1;
nodes = (
"398 555 LINE",
"390 586 OFFCURVE",
"342 572 OFFCURVE",
"351 541 CURVE SMOOTH",
"353 533 OFFCURVE",
"352 513 OFFCURVE",
"344 494 CURVE SMOOTH",
"330 462 OFFCURVE",
"296 427 OFFCURVE",
"260 388 CURVE SMOOTH",
"238 365 OFFCURVE",
"275 331 OFFCURVE",
"296 354 CURVE SMOOTH",
"332 393 OFFCURVE",
"370 429 OFFCURVE",
"389 474 CURVE SMOOTH",
"401 501 OFFCURVE",
"406 529 OFFCURVE",
"398 556 CURVE"
);
},
{
closed = 1;
nodes = (
"289 555 LINE",
"281 586 OFFCURVE",
"233 572 OFFCURVE",
"242 541 CURVE SMOOTH",
"244 533 OFFCURVE",
"243 513 OFFCURVE",
"235 494 CURVE SMOOTH",
"221 462 OFFCURVE",
"187 427 OFFCURVE",
"151 388 CURVE SMOOTH",
"129 365 OFFCURVE",
"166 331 OFFCURVE",
"187 354 CURVE SMOOTH",
"223 393 OFFCURVE",
"261 429 OFFCURVE",
"280 474 CURVE SMOOTH",
"292 501 OFFCURVE",
"297 529 OFFCURVE",
"289 556 CURVE"
);
}
);
width = 374;
}
);
note = quotedbl;
unicode = 0022;
},
{
glyphname = quotesingle;
layers = (
{
hints = (
{
horizontal = 1;
place = "{572, -20}";
target = down;
type = TopGhost;
}
);
layerId = "34A4CA4C-C6E5-4C7E-9ECD-8F87FE1EC3A4";
paths = (
{
closed = 1;
nodes = (
"289 555 LINE",
"281 586 OFFCURVE",
"233 572 OFFCURVE",
"242 541 CURVE SMOOTH",
"244 533 OFFCURVE",
"243 513 OFFCURVE",
"235 494 CURVE SMOOTH",
"221 462 OFFCURVE",
"187 427 OFFCURVE",
"151 388 CURVE SMOOTH",
"129 365 OFFCURVE",
"166 331 OFFCURVE",
"187 354 CURVE SMOOTH",
"223 393 OFFCURVE",
"261 429 OFFCURVE",
"280 474 CURVE SMOOTH",
"292 501 OFFCURVE",
"297 529 OFFCURVE",
"289 556 CURVE"
);
}
);
width = 265;
}
);
note = quotesingle;
unicode = 0027;
},
{
glyphname = "leftanglebracket-math";
lastChange = "2021-11-22 20:27:23 +0000";
layers = (
{
hints = (
{
horizontal = 1;
place = "{456, -20}";
target = down;
type = TopGhost;
},
{
place = "{35, 44}";
type = Stem;
}
);
layerId = "34A4CA4C-C6E5-4C7E-9ECD-8F87FE1EC3A4";
paths = (
{
closed = 1;
nodes = (
"207 -77 OFFCURVE",
"171 -10 OFFCURVE",
"146 47 CURVE SMOOTH",
"116 114 OFFCURVE",
"96 176 OFFCURVE",
"89 225 CURVE",
"124 327 OFFCURVE",
"172 376 OFFCURVE",
"282 549 CURVE SMOOTH",
"300 577 OFFCURVE",
"311 597 OFFCURVE",
"313 607 CURVE SMOOTH",
"315 625 OFFCURVE",
"296 628 OFFCURVE",
"289 628 CURVE SMOOTH",
"285 628 OFFCURVE",
"267 604 OFFCURVE",
"252 582 CURVE SMOOTH",
"202 509 OFFCURVE",
"89 332 OFFCURVE",
"44 232 CURVE",
"53 148 OFFCURVE",
"64 123 OFFCURVE",
"98 37 CURVE SMOOTH",
"107 14 OFFCURVE",
"135 -56 OFFCURVE",
"160 -90 CURVE SMOOTH",
"167 -99 OFFCURVE",
"172 -104 OFFCURVE",
"179 -104 CURVE SMOOTH",
"187 -104 OFFCURVE",
"204 -95 OFFCURVE",
"205 -86 CURVE SMOOTH"
);
}
);
width = 268;
}
);
unicode = 27E8;
},
{
glyphname = "rightanglebracket-math";
lastChange = "2021-11-22 20:27:40 +0000";
layers = (
{
layerId = "34A4CA4C-C6E5-4C7E-9ECD-8F87FE1EC3A4";
paths = (
{
closed = 1;
nodes = (
"129 601 OFFCURVE",
"165 534 OFFCURVE",
"190 477 CURVE SMOOTH",
"220 410 OFFCURVE",
"240 348 OFFCURVE",
"247 299 CURVE",
"212 197 OFFCURVE",
"164 148 OFFCURVE",
"54 -25 CURVE SMOOTH",
"36 -53 OFFCURVE",
"25 -73 OFFCURVE",
"23 -83 CURVE SMOOTH",
"21 -101 OFFCURVE",
"40 -104 OFFCURVE",
"47 -104 CURVE SMOOTH",
"51 -104 OFFCURVE",
"69 -80 OFFCURVE",
"84 -58 CURVE SMOOTH",
"134 15 OFFCURVE",
"247 192 OFFCURVE",
"292 292 CURVE",
"283 376 OFFCURVE",
"272 401 OFFCURVE",
"238 487 CURVE SMOOTH",
"229 510 OFFCURVE",
"201 580 OFFCURVE",
"176 614 CURVE SMOOTH",
"169 623 OFFCURVE",
"164 628 OFFCURVE",
"157 628 CURVE SMOOTH",
"149 628 OFFCURVE",
"132 619 OFFCURVE",
"131 610 CURVE SMOOTH"
);
}
);
width = 392;
}
);
unicode = 27E9;
},
{
glyphname = cent;
lastChange = "2021-12-21 19:51:29 +0000";
layers = (
{
hints = (
{
horizontal = 1;
place = "{262, 28}";
type = Stem;
},
{
place = "{39, 40}";
type = Stem;
},
{
horizontal = 1;
place = "{534.696, -20}";
target = down;
type = TopGhost;
}
);
layerId = "34A4CA4C-C6E5-4C7E-9ECD-8F87FE1EC3A4";
paths = (
{
closed = 1;
nodes = (
"312 438 OFFCURVE",
"333 456 OFFCURVE",
"329 485 CURVE SMOOTH",
"326 505 OFFCURVE",
"318 535 OFFCURVE",
"261 535 CURVE",
"172 519 OFFCURVE",
"60 419 OFFCURVE",
"22 333 CURVE",
"-14 267 OFFCURVE",
"27 143 OFFCURVE",
"166 181 CURVE SMOOTH",
"219 195 OFFCURVE",
"246 211 OFFCURVE",
"307 267 CURVE SMOOTH",
"329 286 OFFCURVE",
"301 310 OFFCURVE",
"280 291 CURVE SMOOTH",
"239 250 OFFCURVE",
"197 233 OFFCURVE",
"155 224 CURVE SMOOTH",
"55 202 OFFCURVE",
"48 264 OFFCURVE",
"65 316 CURVE",
"93 382 OFFCURVE",
"217 498 OFFCURVE",
"260 483 CURVE",
"270 473 OFFCURVE",
"277 465 OFFCURVE",
"290 455 CURVE SMOOTH"
);
},
{
closed = 1;
nodes = (
"293 653 LINE SMOOTH",
"296 662 OFFCURVE",
"258 678 OFFCURVE",
"253 663 CURVE SMOOTH",
"54 16 LINE SMOOTH",
"47 -6 OFFCURVE",
"88 -10 OFFCURVE",
"93 6 CURVE SMOOTH"
);
}
);
width = 342;
}
);
note = cent;
unicode = 00A2;
},
